<svg viewBox="0 0 32 32" xmlns="http://www.w3.org/2000/svg" fill-rule="evenodd" clip-rule="evenodd" stroke-linejoin="round" stroke-miterlimit="2"><path d="M31.8048 29.9194l-9.2958-9.2958c1.7631-2.1767 2.8244-4.944 2.8244-7.9568C25.3334 5.6823 19.6511 0 12.6667 0 5.6823 0 .0001 5.6823.0001 12.6668c0 6.9844 5.6823 12.6667 12.6667 12.6667 3.0129 0 5.7801-1.0613 7.9568-2.8244l9.2958 9.2958a.6668.6668 0 00.9429 0l.9425-.9426a.6667.6667 0 000-.9429zm-19.138-7.2526c-5.5143 0-10-4.4857-10-10 0-5.5144 4.4857-10.0001 10-10.0001s10 4.4857 10 10c0 5.5144-4.4857 10.0001-10 10.0001z" fill-rule="nonzero"/></svg>