<svg viewBox="0 0 14 10" xmlns="http://www.w3.org/2000/svg" fill-rule="evenodd" clip-rule="evenodd" stroke-linejoin="round" stroke-miterlimit="2"><path d="M0.75,5.772c-0.199,0 -0.39,-0.079 -0.53,-0.219c-0.141,-0.141 -0.22,-0.332 -0.22,-0.531c0,-0.086 0,-0.174 0,-0.261c-0,-0.199 0.079,-0.389 0.22,-0.53c0.14,-0.141 0.331,-0.22 0.53,-0.22c2.381,0 9.615,0 9.615,0c0,0 -1.305,-1.45 -2.048,-2.275c-0.133,-0.148 -0.202,-0.343 -0.191,-0.542c0.01,-0.198 0.099,-0.385 0.247,-0.518c0.064,-0.057 0.13,-0.116 0.194,-0.174c0.308,-0.277 0.782,-0.252 1.059,0.055c0.864,0.961 2.621,2.913 3.449,3.833c0.257,0.285 0.257,0.718 0,1.004c-0.828,0.92 -2.585,2.872 -3.449,3.832c-0.277,0.308 -0.751,0.333 -1.059,0.056c-0.064,-0.058 -0.13,-0.117 -0.194,-0.175c-0.148,-0.133 -0.237,-0.319 -0.247,-0.518c-0.011,-0.198 0.058,-0.393 0.191,-0.541c0.743,-0.825 2.048,-2.276 2.048,-2.276l-9.615,0Z" fill="#fff"/></svg>