<svg viewBox="0 0 12 12" xmlns="http://www.w3.org/2000/svg" fill-rule="evenodd" clip-rule="evenodd" stroke-linejoin="round" stroke-miterlimit="2"><path d="M0.341,11.002c-0.092,-0 -0.177,-0.038 -0.238,-0.099l-0.001,-0.001c-0.061,-0.061 -0.098,-0.145 -0.098,-0.238l-0,-3.158c-0.003,-0.017 -0.004,-0.034 -0.004,-0.051l-0,-0.675c-0,-0.186 0.151,-0.338 0.338,-0.338l3.884,0c0.093,0 0.177,0.038 0.238,0.099l0.001,0.001c0.061,0.061 0.098,0.145 0.098,0.238l0,3.158c0.003,0.017 0.004,0.034 0.004,0.051l0,0.675c0,0.187 -0.151,0.338 -0.337,0.338l-3.885,-0Zm6.439,-0c-0.093,-0 -0.177,-0.038 -0.238,-0.099l-0.001,-0.001c-0.061,-0.061 -0.099,-0.145 -0.099,-0.238l0,-3.158c-0.002,-0.017 -0.003,-0.034 -0.003,-0.051l-0,-0.675c-0,-0.186 0.151,-0.338 0.337,-0.338l3.884,0c0.093,0 0.177,0.038 0.238,0.099l0.002,0.001c0.06,0.061 0.098,0.145 0.098,0.238l-0,3.158c0.002,0.017 0.004,0.034 0.004,0.051l-0,0.675c-0,0.187 -0.151,0.338 -0.338,0.338l-3.884,-0Zm-5.426,-3.21l-0,1.86l1.855,-0l0,-1.86l-1.855,0Zm6.438,0l0,1.86l1.856,-0l-0,-1.86l-1.856,0Zm-7.451,-3.233c-0.092,0 -0.177,-0.037 -0.238,-0.098l-0.001,-0.001c-0.061,-0.061 -0.098,-0.145 -0.098,-0.238l-0,-3.158c-0.003,-0.017 -0.004,-0.034 -0.004,-0.052l0,-0.675c0,-0.186 0.151,-0.337 0.338,-0.337l3.884,-0c0.093,-0 0.177,0.038 0.238,0.098l0.001,0.001c0.061,0.062 0.098,0.146 0.098,0.238l0,3.159c0.003,0.016 0.004,0.033 0.004,0.051l0,0.675c0,0.186 -0.151,0.337 -0.337,0.337l-3.885,0Zm6.435,0c-0.093,0 -0.177,-0.037 -0.238,-0.098l-0.001,-0.001c-0.061,-0.061 -0.098,-0.145 -0.098,-0.238l-0,-3.158c-0.003,-0.017 -0.004,-0.034 -0.004,-0.052l-0,-0.675c-0,-0.186 0.151,-0.337 0.337,-0.337l3.885,-0c0.092,-0 0.177,0.038 0.238,0.098l0.001,0.001c0.06,0.062 0.098,0.146 0.098,0.238l0,3.159c0.003,0.016 0.004,0.033 0.004,0.051l-0,0.675c-0,0.186 -0.151,0.337 -0.338,0.337l-3.884,0Zm-5.422,-3.209l-0,1.859l1.855,0l0,-1.859l-1.855,0Zm6.435,0l-0,1.859l1.855,0l0,-1.859l-1.855,0Z" fill="#585858"/></svg>