<svg viewBox="0 0 11 12" xmlns="http://www.w3.org/2000/svg" fill-rule="evenodd" clip-rule="evenodd" stroke-linejoin="round" stroke-miterlimit="2"><path d="M6.698,11.002c-0.072,-0 -0.138,-0.029 -0.185,-0.077l-0.001,-0.001c-0.047,-0.047 -0.076,-0.113 -0.076,-0.185l-0,-3.464c-0.003,-0.015 -0.004,-0.03 -0.004,-0.045l-0,-0.525c-0,-0.145 0.117,-0.263 0.262,-0.263l4.038,0c0.145,0 0.263,0.118 0.263,0.263l-0,4.034c-0,0.072 -0.029,0.138 -0.077,0.185l-0.001,0.001c-0.047,0.048 -0.112,0.077 -0.185,0.077l-4.034,-0Zm-6.432,-0c-0.072,-0 -0.137,-0.029 -0.185,-0.077l-0.001,-0.001c-0.047,-0.047 -0.076,-0.113 -0.076,-0.185l-0,-3.464c-0.003,-0.015 -0.004,-0.03 -0.004,-0.045l-0,-0.525c-0,-0.145 0.118,-0.263 0.263,-0.263l4.038,0c0.145,0 0.262,0.118 0.262,0.263l0,4.034c0,0.072 -0.029,0.138 -0.076,0.185l-0.001,0.001c-0.048,0.048 -0.113,0.077 -0.185,0.077l-4.035,-0Zm7.22,-3.51l-0,2.46l2.459,-0l-0,-2.46l-2.459,0Zm-6.432,0l-0,2.46l2.459,-0l0,-2.46l-2.459,0Zm5.644,-2.933c-0.072,0 -0.138,-0.029 -0.185,-0.076l-0.001,-0.001c-0.047,-0.048 -0.076,-0.113 -0.076,-0.185l-0,-3.464c-0.003,-0.015 -0.004,-0.03 -0.004,-0.045l-0,-0.525c-0,-0.145 0.117,-0.263 0.262,-0.263l4.038,0c0.145,0 0.263,0.118 0.263,0.263l-0,4.034c-0,0.072 -0.029,0.137 -0.077,0.185l-0.001,0.001c-0.047,0.047 -0.112,0.076 -0.185,0.076l-4.034,0Zm-6.428,0c-0.072,0 -0.137,-0.029 -0.185,-0.076l-0.001,-0.001c-0.047,-0.048 -0.076,-0.113 -0.076,-0.185l-0,-3.464c-0.003,-0.015 -0.004,-0.03 -0.004,-0.046l-0,-0.525c-0,-0.144 0.117,-0.262 0.262,-0.262l4.039,0c0.144,0 0.262,0.118 0.262,0.263l0,4.034c0,0.072 -0.029,0.137 -0.076,0.185l-0.001,0.001c-0.048,0.047 -0.113,0.076 -0.185,0.076l-4.035,0Zm7.216,-3.509l-0,2.459l2.459,0l-0,-2.459l-2.459,0Zm-6.428,-0l-0,2.459l2.459,0l0,-2.459l-2.459,-0Z" fill="#585858"/></svg>