<svg viewBox="0 0 28 27" xmlns="http://www.w3.org/2000/svg" fill-rule="evenodd" clip-rule="evenodd" stroke-linejoin="round" stroke-miterlimit="1.41421">
	<path d="M9.14 16.207c0-2.604 3.377-3.02 3.377-4.455 0-.63-.488-1.007-1.098-1.007-.844 0-1.302.855-1.302.855l-.977-.651s.661-1.445 2.391-1.445c1.271 0 2.344.851 2.344 2.214 0 2.319-3.229 2.638-3.259 4.001h3.376v1.129h-4.79c-.031-.233-.062-.437-.062-.641zM19.397 13.898h.936v1.089h-.936v1.861h-1.292v-1.861h-3.377v-.804l3.113-4.557h1.556v4.272zm-1.292 0l.03-2.99-2.024 2.97v.02h1.994z"/>
	<path d="M24.475 14.515l-.251.901c-1.429 5.117-6.642 8.346-11.798 7.067-4.953-1.23-8.032-6.029-7.292-10.919l1.493.417c.346.096.667-.218.577-.566l-1.623-6.32c-.089-.347-.522-.468-.778-.217L.14 9.443c-.256.252-.145.687.201.783l1.625.454c-1.212 6.614 2.868 13.201 9.527 14.935 6.914 1.801 13.967-2.479 15.888-9.361l.24-.86c.069-.249-.076-.506-.324-.575l-2.247-.628c-.248-.069-.505.076-.575.324zM27.131 10.577l-2.357.306c-.256.034-.436.268-.403.523l.093.715c.033.256.268.436.523.403l2.357-.307c.255-.033.435-.267.402-.522l-.093-.715c-.033-.256-.267-.436-.522-.403zM25.316 6.124l-2.07 1.167c-.224.127-.304.411-.177.636l.354.627c.126.225.411.304.635.178l2.07-1.167c.225-.126.304-.411.178-.635l-.354-.628c-.127-.225-.411-.304-.636-.178zM21.966 2.675l-1.482 1.857c-.161.202-.128.496.074.656l.563.45c.201.161.495.128.656-.074l1.482-1.857c.161-.201.128-.495-.074-.656l-.563-.449c-.201-.161-.495-.128-.656.073zM17.568.732l-.679 2.278c-.073.247.067.506.314.58l.691.206c.247.074.507-.067.58-.314l.679-2.277c.074-.247-.067-.507-.314-.581l-.69-.206c-.247-.073-.507.067-.581.314zM12.762.578l.224 2.366c.024.257.252.445.509.421l.717-.068c.257-.024.445-.252.421-.509L14.409.423c-.024-.257-.252-.445-.508-.421l-.718.068c-.256.024-.445.252-.421.508zM8.249 2.236l1.094 2.11c.118.228.4.318.629.199l.639-.332c.229-.118.319-.4.2-.629L9.717 1.475c-.118-.229-.4-.318-.629-.2l-.64.332c-.228.119-.318.4-.199.629z"/>
</svg>