<svg viewBox="0 0 20 13" xmlns="http://www.w3.org/2000/svg" fill-rule="evenodd" clip-rule="evenodd" stroke-linejoin="round" stroke-miterlimit="2"><path d="M326.133,427.513L326.131,427.515C326.131,427.515 324.847,425.652 324.005,424.43C323.816,424.155 323.743,423.815 323.803,423.486C323.864,423.157 324.053,422.865 324.328,422.675C324.329,422.675 324.329,422.675 324.329,422.674C324.605,422.484 324.945,422.412 325.274,422.472C325.603,422.533 325.895,422.722 326.085,422.997L328.058,425.86L328.061,425.86L329.682,428.218C329.935,428.586 329.935,429.073 329.682,429.441L328.21,431.582L328.212,431.583C328.212,431.583 326.928,433.446 326.086,434.667C325.896,434.943 325.605,435.132 325.275,435.192C324.946,435.253 324.606,435.18 324.331,434.99C324.331,434.99 324.33,434.99 324.33,434.99C324.054,434.8 323.866,434.508 323.805,434.179C323.744,433.85 323.817,433.51 324.007,433.234L324.967,431.842L326.136,430.141L311.208,430.141C310.922,430.141 310.647,430.027 310.445,429.825C310.242,429.623 310.128,429.348 310.128,429.062C310.128,428.908 310.128,428.751 310.128,428.597C310.128,428.311 310.242,428.036 310.445,427.834C310.647,427.631 310.922,427.518 311.208,427.518C314.802,427.518 326.136,427.518 326.136,427.518L326.133,427.513Z" transform="matrix(1,0,0,1,-310.128,-422.451) matrix(0.539832,0,0,0.539832,55.8675,155.404) matrix(1.85243,0,0,1.85243,-103.49,-287.876)"/></svg>