<svg viewBox="0 0 34 135" xmlns="http://www.w3.org/2000/svg" fill-rule="evenodd" clip-rule="evenodd" stroke-linejoin="round" stroke-miterlimit="2" fill="#2d808d"><path d="M331.332,378.962C331.333,378.693 331.389,378.423 331.499,378.171C335.727,368.463 355.469,323.144 359.697,313.436C359.909,312.95 360.305,312.568 360.799,312.374C361.293,312.18 361.843,312.19 362.33,312.401C362.596,312.517 362.87,312.637 363.136,312.753C363.622,312.964 364.004,313.361 364.198,313.854C364.392,314.348 364.382,314.899 364.171,315.385C359.888,325.216 339.733,371.485 336.833,378.142C336.611,378.652 336.611,379.231 336.833,379.74C339.735,386.401 359.911,432.719 364.196,442.555C364.637,443.568 364.173,444.746 363.161,445.187C362.887,445.307 362.604,445.43 362.33,445.549C361.843,445.761 361.293,445.771 360.799,445.577C360.305,445.383 359.909,445.001 359.697,444.515C355.469,434.807 335.727,389.488 331.499,379.78C331.389,379.528 331.333,379.258 331.332,378.988L331.332,378.969L331.332,378.962Z" transform="matrix(1,0,0,1,-1536.33,-311.603) matrix(-1.22563,0,0,2.33454,2214.31,-1728.65) matrix(0.815904,0,0,0.42835,255.366,740.467)"/></svg>