<svg viewBox="0 0 38 83" xmlns="http://www.w3.org/2000/svg" fill-rule="evenodd" clip-rule="evenodd" stroke-linejoin="round" stroke-miterlimit="2"><path d="M24.04,41.365l-23.678,-33.816c-0.634,-0.905 -0.414,-2.152 0.491,-2.785c1.757,-1.23 4.53,-3.172 6.286,-4.402c0.905,-0.634 2.152,-0.414 2.786,0.491c4.745,6.777 22.815,32.584 27.561,39.361c0.242,0.346 0.36,0.742 0.362,1.135l-0,0.025l-0,0.007c-0.002,0.392 -0.12,0.788 -0.362,1.134c-4.746,6.778 -22.816,32.584 -27.561,39.362c-0.634,0.905 -1.881,1.124 -2.786,0.491c-1.756,-1.23 -4.529,-3.172 -6.286,-4.402c-0.905,-0.633 -1.125,-1.88 -0.491,-2.785l23.678,-33.816Z" fill="#444"/></svg>