<svg viewBox="0 0 24 12" xmlns="http://www.w3.org/2000/svg" xml:space="preserve" style="fill-rule:evenodd;clip-rule:evenodd;stroke-linejoin:round;stroke-miterlimit:2"><path d="M958.666 6221.35c.075.06.156.12.241.17l.025.01c.184.1.385.15.586.15h.028c.201 0 .402-.05.586-.15l.024-.01c.086-.05.167-.11.242-.17l10.428-9.07c.542-.47.599-1.29.128-1.83-.47-.54-1.292-.6-1.834-.13l-9.588 8.34-9.589-8.34c-.541-.47-1.363-.41-1.834.13-.47.54-.413 1.36.129 1.83l10.428 9.07Z" transform="translate(-947.791 -6210)"/></svg>