<svg viewBox="0 0 8 16" xmlns="http://www.w3.org/2000/svg" fill-rule="evenodd" clip-rule="evenodd" stroke-linejoin="round" stroke-miterlimit="2"><g transform="matrix(1,0,0,1,-24.2236,-131.237) matrix(0.674397,0,0,0.674397,8.19751,41.9188)"><path d="M24.224,138.936C24.221,138.843 24.253,138.749 24.32,138.675L30.905,131.361C31.044,131.207 31.281,131.195 31.435,131.333L31.992,131.835C32.146,131.974 32.158,132.211 32.02,132.365L26.103,138.936L32.02,145.507C32.158,145.661 32.146,145.898 31.992,146.037L31.435,146.539C31.281,146.677 31.044,146.665 30.905,146.511L24.32,139.197C24.253,139.123 24.221,139.029 24.224,138.936Z" transform="matrix(1.48281,0,0,1.48281,-12.1553,-62.1575)"/></g></svg>