<?xml version="1.0" encoding="UTF-8" standalone="no"?><!DOCTYPE svg PUBLIC "-//W3C//DTD SVG 1.1//EN" "http://www.w3.org/Graphics/SVG/1.1/DTD/svg11.dtd"><svg width="100%" height="100%" viewBox="0 0 79 79" version="1.1" xmlns="http://www.w3.org/2000/svg" xmlns:xlink="http://www.w3.org/1999/xlink" xml:space="preserve" xmlns:serif="http://www.serif.com/" style="fill-rule:evenodd;clip-rule:evenodd;stroke-linejoin:round;stroke-miterlimit:2;"><g><path d="M72.464,16.916c4.142,2.04 6.499,6.514 5.839,11.084c-1.382,9.576 -3.735,25.866 -5.117,35.442c-0.66,4.569 -4.187,8.194 -8.737,8.979c-9.535,1.644 -25.754,4.441 -35.289,6.085c-4.55,0.784 -9.087,-1.45 -11.239,-5.535l-16.692,-31.681c-2.152,-4.085 -1.43,-9.091 1.79,-12.4c6.748,-6.934 18.226,-18.73 24.973,-25.664c3.22,-3.31 8.204,-4.169 12.346,-2.129c8.68,4.274 23.446,11.545 32.126,15.819Z" style="fill:#00beee;"/><g><path d="M29.361,26.09c-0.39,-0.39 -1.024,-0.39 -1.414,0l-2.122,2.122c-0.39,0.39 -0.39,1.024 0,1.414l26.163,26.163c0.391,0.39 1.024,0.39 1.415,-0l2.121,-2.122c0.39,-0.39 0.39,-1.023 -0,-1.414l-26.163,-26.163Z" style="fill:#fff;"/><path d="M55.524,29.626c0.39,-0.39 0.39,-1.024 -0,-1.414l-2.121,-2.122c-0.391,-0.39 -1.024,-0.39 -1.415,0l-26.163,26.163c-0.39,0.391 -0.39,1.024 0,1.414l2.122,2.122c0.39,0.39 1.024,0.39 1.414,-0l26.163,-26.163Z" style="fill:#fff;"/></g></g></svg>