<svg viewBox="0 0 55 55" xmlns="http://www.w3.org/2000/svg" fill-rule="evenodd" clip-rule="evenodd" stroke-linejoin="round" stroke-miterlimit="2" fill="#2d808d"><path d="M236.9,511.532L213.671,488.302C213.296,487.927 213.085,487.418 213.085,486.888C213.085,486.358 213.296,485.849 213.671,485.474C213.876,485.269 214.087,485.057 214.293,484.852C214.668,484.477 215.176,484.266 215.707,484.266C216.237,484.266 216.746,484.477 217.121,484.852L240.351,508.082L263.58,484.852C263.955,484.477 264.464,484.266 264.994,484.266C265.525,484.266 266.033,484.477 266.409,484.852C266.62,485.064 266.838,485.282 267.05,485.493C267.425,485.868 267.635,486.377 267.635,486.907C267.635,487.438 267.425,487.947 267.05,488.322L243.82,511.551L267.05,534.781C267.425,535.156 267.635,535.664 267.635,536.195C267.635,536.725 267.425,537.234 267.05,537.609C266.844,537.814 266.633,538.026 266.428,538.231C266.053,538.606 265.544,538.817 265.014,538.817C264.483,538.817 263.974,538.606 263.599,538.231L240.37,515.001L217.121,538.25C216.746,538.625 216.237,538.836 215.707,538.836C215.176,538.836 214.668,538.625 214.293,538.25C214.081,538.039 213.863,537.821 213.652,537.609C213.276,537.234 213.066,536.725 213.066,536.195C213.066,535.664 213.276,535.156 213.652,534.781L236.9,511.532Z" transform="matrix(1,0,0,1,-213.066,-484.266) matrix(1.22563,0,0,2.33454,-412.985,-1691.65) matrix(0.815904,0,0,0.42835,336.956,724.618)"/></svg>