<svg viewBox="0 0 15 117" xmlns="http://www.w3.org/2000/svg" fill-rule="evenodd" clip-rule="evenodd" stroke-linejoin="round" stroke-miterlimit="2"><g transform="matrix(1,0,0,1,-1643.69,-596.123) matrix(1,0,0,1.36164,0.279605,-48.1209) matrix(3.39517e-16,-4.07211,0.076886,3.45754e-18,1591.58,7239.49)"><path d="M0.286,-0.63C0.332,-0.63 0.374,-0.624 0.413,-0.611C0.452,-0.598 0.485,-0.58 0.513,-0.555C0.541,-0.53 0.563,-0.498 0.579,-0.461C0.594,-0.423 0.602,-0.379 0.602,-0.329C0.602,-0.27 0.593,-0.219 0.574,-0.178C0.555,-0.136 0.53,-0.102 0.499,-0.076C0.467,-0.049 0.43,-0.03 0.388,-0.018C0.345,-0.006 0.301,-0 0.254,-0L0.076,-0L0.076,-0.63L0.286,-0.63ZM0.183,-0.086L0.245,-0.086C0.276,-0.086 0.306,-0.09 0.335,-0.097C0.364,-0.103 0.389,-0.116 0.412,-0.135C0.435,-0.153 0.453,-0.178 0.467,-0.209C0.48,-0.24 0.487,-0.28 0.487,-0.329C0.487,-0.398 0.467,-0.452 0.428,-0.489C0.388,-0.526 0.335,-0.544 0.268,-0.544L0.183,-0.544L0.183,-0.086Z" fill="#fff" fill-rule="nonzero" transform="matrix(3.60702,0,0,260.126,1640.36,859.043)"/><path d="M0.076,-0L0.076,-0.472L0.179,-0.472L0.179,-0L0.076,-0ZM0.128,-0.589C0.11,-0.589 0.096,-0.595 0.085,-0.606C0.074,-0.617 0.069,-0.63 0.069,-0.647C0.069,-0.664 0.074,-0.678 0.085,-0.689C0.096,-0.7 0.11,-0.705 0.128,-0.705C0.145,-0.705 0.16,-0.7 0.171,-0.689C0.182,-0.678 0.187,-0.664 0.187,-0.647C0.187,-0.63 0.182,-0.616 0.171,-0.605C0.16,-0.594 0.145,-0.589 0.128,-0.589Z" fill="#fff" fill-rule="nonzero" transform="matrix(3.60702,0,0,260.126,1642.69,859.043)"/><path d="M0.064,-0L0.064,-0.472L0.142,-0.472L0.157,-0.381C0.168,-0.409 0.187,-0.433 0.212,-0.452C0.237,-0.47 0.268,-0.48 0.304,-0.48C0.32,-0.48 0.334,-0.479 0.345,-0.476C0.357,-0.473 0.368,-0.47 0.377,-0.465L0.358,-0.379C0.35,-0.383 0.341,-0.386 0.331,-0.389C0.32,-0.392 0.308,-0.393 0.295,-0.393C0.258,-0.393 0.228,-0.381 0.203,-0.356C0.178,-0.331 0.166,-0.293 0.166,-0.242L0.166,-0L0.064,-0Z" fill="#fff" fill-rule="nonzero" transform="matrix(3.60702,0,0,260.126,1643.62,859.043)"/><path d="M0.474,-0.218L0.143,-0.218L0.143,-0.214C0.143,-0.166 0.157,-0.13 0.185,-0.105C0.213,-0.08 0.25,-0.068 0.296,-0.068C0.321,-0.068 0.344,-0.07 0.365,-0.075C0.385,-0.079 0.405,-0.086 0.426,-0.095L0.446,-0.02C0.427,-0.011 0.404,-0.004 0.377,0.001C0.35,0.007 0.321,0.01 0.289,0.01C0.255,0.01 0.223,0.005 0.192,-0.004C0.161,-0.013 0.135,-0.028 0.112,-0.048C0.089,-0.068 0.07,-0.093 0.057,-0.124C0.044,-0.155 0.037,-0.191 0.037,-0.234C0.037,-0.271 0.043,-0.304 0.054,-0.335C0.065,-0.365 0.08,-0.391 0.101,-0.412C0.121,-0.434 0.146,-0.451 0.174,-0.463C0.203,-0.474 0.236,-0.48 0.271,-0.48C0.302,-0.48 0.33,-0.475 0.355,-0.465C0.38,-0.455 0.401,-0.441 0.419,-0.423C0.436,-0.404 0.45,-0.382 0.46,-0.356C0.469,-0.329 0.474,-0.3 0.474,-0.268L0.474,-0.218ZM0.368,-0.29C0.368,-0.306 0.366,-0.321 0.362,-0.335C0.358,-0.349 0.352,-0.361 0.344,-0.372C0.336,-0.382 0.326,-0.39 0.313,-0.397C0.3,-0.403 0.284,-0.406 0.266,-0.406C0.233,-0.406 0.205,-0.395 0.185,-0.374C0.164,-0.353 0.151,-0.324 0.146,-0.288L0.368,-0.29Z" fill="#fff" fill-rule="nonzero" transform="matrix(3.60702,0,0,260.126,1644.89,859.043)"/><path d="M0.169,-0.168L0.169,-0L0.067,-0L0.067,-0.711L0.169,-0.711L0.169,-0.275L0.348,-0.472L0.474,-0.472L0.284,-0.273L0.483,-0L0.362,-0L0.213,-0.212L0.169,-0.168Z" fill="#fff" fill-rule="nonzero" transform="matrix(3.60702,0,0,260.126,1646.73,859.043)"/><path d="M0.325,-0.396L0.191,-0.396L0.191,-0.141C0.191,-0.118 0.197,-0.102 0.207,-0.094C0.219,-0.086 0.233,-0.082 0.252,-0.082C0.265,-0.082 0.28,-0.084 0.295,-0.086C0.31,-0.09 0.323,-0.093 0.334,-0.097L0.35,-0.021C0.337,-0.016 0.32,-0.011 0.299,-0.007C0.278,-0.002 0.255,-0 0.232,-0C0.181,-0 0.145,-0.011 0.123,-0.032C0.1,-0.053 0.089,-0.084 0.089,-0.125L0.089,-0.396L0.017,-0.396L0.017,-0.472L0.089,-0.472L0.089,-0.621L0.191,-0.621L0.191,-0.472L0.325,-0.472L0.325,-0.396Z" fill="#fff" fill-rule="nonzero" transform="matrix(3.60702,0,0,260.126,1648.52,859.043)"/><path d="M0.169,-0.168L0.169,-0L0.067,-0L0.067,-0.711L0.169,-0.711L0.169,-0.275L0.348,-0.472L0.474,-0.472L0.284,-0.273L0.483,-0L0.362,-0L0.213,-0.212L0.169,-0.168Z" fill="#fff" fill-rule="nonzero" transform="matrix(3.60702,0,0,260.126,1649.85,859.043)"/><path d="M0.507,-0.241C0.507,-0.202 0.501,-0.166 0.489,-0.135C0.476,-0.104 0.459,-0.077 0.438,-0.056C0.417,-0.035 0.392,-0.018 0.363,-0.007C0.334,0.004 0.303,0.01 0.27,0.01C0.237,0.01 0.206,0.005 0.178,-0.006C0.149,-0.017 0.125,-0.032 0.103,-0.053C0.083,-0.073 0.066,-0.098 0.055,-0.128C0.043,-0.158 0.037,-0.192 0.037,-0.231C0.037,-0.271 0.043,-0.306 0.056,-0.337C0.068,-0.368 0.085,-0.394 0.106,-0.415C0.127,-0.436 0.152,-0.453 0.181,-0.464C0.21,-0.474 0.241,-0.48 0.274,-0.48C0.307,-0.48 0.338,-0.475 0.367,-0.465C0.395,-0.454 0.42,-0.439 0.441,-0.419C0.462,-0.399 0.478,-0.374 0.49,-0.344C0.501,-0.314 0.507,-0.28 0.507,-0.241ZM0.4,-0.236C0.4,-0.266 0.396,-0.292 0.389,-0.313C0.382,-0.334 0.372,-0.351 0.36,-0.364C0.348,-0.377 0.334,-0.387 0.319,-0.393C0.304,-0.399 0.288,-0.402 0.271,-0.402C0.255,-0.402 0.239,-0.399 0.224,-0.394C0.209,-0.389 0.195,-0.38 0.183,-0.367C0.171,-0.354 0.162,-0.337 0.155,-0.316C0.148,-0.295 0.144,-0.268 0.144,-0.236C0.144,-0.207 0.148,-0.181 0.155,-0.16C0.162,-0.139 0.172,-0.121 0.184,-0.108C0.196,-0.094 0.21,-0.084 0.226,-0.078C0.241,-0.071 0.257,-0.068 0.273,-0.068C0.289,-0.068 0.305,-0.071 0.32,-0.076C0.335,-0.081 0.349,-0.091 0.361,-0.103C0.373,-0.117 0.383,-0.134 0.39,-0.156C0.397,-0.177 0.4,-0.204 0.4,-0.236Z" fill="#fff" fill-rule="nonzero" transform="matrix(3.60702,0,0,260.126,1651.55,859.043)"/><path d="M0.168,-0L0.065,-0L0.065,-0.472L0.146,-0.472L0.16,-0.409C0.183,-0.432 0.208,-0.449 0.234,-0.462C0.259,-0.474 0.288,-0.48 0.321,-0.48C0.371,-0.48 0.41,-0.466 0.437,-0.439C0.464,-0.412 0.478,-0.373 0.478,-0.322L0.478,-0L0.375,-0L0.375,-0.309C0.375,-0.336 0.368,-0.358 0.354,-0.374C0.34,-0.39 0.319,-0.398 0.291,-0.398C0.27,-0.398 0.249,-0.393 0.228,-0.383C0.206,-0.372 0.187,-0.357 0.168,-0.338L0.168,-0Z" fill="#fff" fill-rule="nonzero" transform="matrix(3.60702,0,0,260.126,1653.51,859.043)"/><path d="M0.325,-0.396L0.191,-0.396L0.191,-0.141C0.191,-0.118 0.197,-0.102 0.207,-0.094C0.219,-0.086 0.233,-0.082 0.252,-0.082C0.265,-0.082 0.28,-0.084 0.295,-0.086C0.31,-0.09 0.323,-0.093 0.334,-0.097L0.35,-0.021C0.337,-0.016 0.32,-0.011 0.299,-0.007C0.278,-0.002 0.255,-0 0.232,-0C0.181,-0 0.145,-0.011 0.123,-0.032C0.1,-0.053 0.089,-0.084 0.089,-0.125L0.089,-0.396L0.017,-0.396L0.017,-0.472L0.089,-0.472L0.089,-0.621L0.191,-0.621L0.191,-0.472L0.325,-0.472L0.325,-0.396Z" fill="#fff" fill-rule="nonzero" transform="matrix(3.60702,0,0,260.126,1655.46,859.043)"/><path d="M0.071,-0.43C0.102,-0.447 0.131,-0.459 0.16,-0.468C0.188,-0.476 0.219,-0.48 0.254,-0.48C0.281,-0.48 0.305,-0.477 0.328,-0.471C0.35,-0.465 0.369,-0.455 0.385,-0.442C0.401,-0.429 0.413,-0.411 0.423,-0.389C0.432,-0.366 0.436,-0.339 0.436,-0.307L0.436,-0L0.353,-0L0.342,-0.051L0.339,-0.051C0.32,-0.03 0.299,-0.014 0.274,-0.005C0.249,0.005 0.222,0.01 0.192,0.01C0.145,0.01 0.107,-0.003 0.078,-0.028C0.049,-0.053 0.034,-0.087 0.034,-0.129C0.034,-0.155 0.039,-0.178 0.05,-0.197C0.061,-0.216 0.076,-0.231 0.095,-0.244C0.114,-0.257 0.137,-0.266 0.164,-0.273C0.191,-0.279 0.22,-0.282 0.252,-0.282L0.332,-0.282L0.332,-0.318C0.332,-0.348 0.324,-0.369 0.308,-0.381C0.292,-0.392 0.27,-0.398 0.242,-0.398C0.225,-0.398 0.205,-0.395 0.184,-0.39C0.162,-0.384 0.137,-0.373 0.109,-0.358L0.071,-0.43ZM0.333,-0.214L0.27,-0.213C0.223,-0.212 0.189,-0.203 0.17,-0.188C0.151,-0.173 0.141,-0.155 0.141,-0.134C0.141,-0.121 0.143,-0.11 0.148,-0.101C0.152,-0.092 0.158,-0.085 0.165,-0.08C0.172,-0.075 0.181,-0.071 0.191,-0.069C0.2,-0.066 0.21,-0.065 0.22,-0.065C0.241,-0.065 0.261,-0.07 0.281,-0.081C0.302,-0.091 0.319,-0.106 0.333,-0.125L0.333,-0.214Z" fill="#fff" fill-rule="nonzero" transform="matrix(3.60702,0,0,260.126,1656.79,859.043)"/><path d="M0.169,-0.168L0.169,-0L0.067,-0L0.067,-0.711L0.169,-0.711L0.169,-0.275L0.348,-0.472L0.474,-0.472L0.284,-0.273L0.483,-0L0.362,-0L0.213,-0.212L0.169,-0.168Z" fill="#fff" fill-rule="nonzero" transform="matrix(3.60702,0,0,260.126,1658.58,859.043)"/><path d="M0.325,-0.396L0.191,-0.396L0.191,-0.141C0.191,-0.118 0.197,-0.102 0.207,-0.094C0.219,-0.086 0.233,-0.082 0.252,-0.082C0.265,-0.082 0.28,-0.084 0.295,-0.086C0.31,-0.09 0.323,-0.093 0.334,-0.097L0.35,-0.021C0.337,-0.016 0.32,-0.011 0.299,-0.007C0.278,-0.002 0.255,-0 0.232,-0C0.181,-0 0.145,-0.011 0.123,-0.032C0.1,-0.053 0.089,-0.084 0.089,-0.125L0.089,-0.396L0.017,-0.396L0.017,-0.472L0.089,-0.472L0.089,-0.621L0.191,-0.621L0.191,-0.472L0.325,-0.472L0.325,-0.396Z" fill="#fff" fill-rule="nonzero" transform="matrix(3.60702,0,0,260.126,1660.37,859.043)"/></g></svg>