<svg viewBox="0 0 518 492" xmlns="http://www.w3.org/2000/svg" fill-rule="evenodd" clip-rule="evenodd" stroke-linejoin="round" stroke-miterlimit="2"><g transform="matrix(1,0,0,1,-842.307,-680.113)"><path d="M490.117,10.113L132.565,10.113C119.064,10.129 108.124,21.069 108.108,34.57L108.108,124.276C108.108,124.276 96.705,107.17 96.705,107.17C88.425,94.682 71.767,90.933 58.93,98.676C58.934,98.674 25.306,118.892 25.306,118.892C13.695,125.71 5.177,136.762 1.542,149.727C1.541,149.732 1.54,149.736 1.538,149.741C-10.859,194.883 -2.098,272.86 112.057,387.032C112.057,387.032 112.057,387.033 112.058,387.033C202.7,477.582 270.403,501.758 316.984,501.76C327.914,501.81 338.802,500.389 349.354,497.536C349.362,497.534 349.37,497.532 349.378,497.53C362.338,493.895 373.39,485.388 380.221,473.793C380.221,473.793 400.414,440.127 400.414,440.127C408.125,427.303 404.38,410.679 391.913,402.398C391.917,402.4 311.371,348.708 311.371,348.708C311.368,348.707 311.365,348.705 311.362,348.703C299.14,340.619 282.757,343.277 273.717,354.81L250.261,384.966C250.255,384.974 250.248,384.982 250.242,384.991C248.602,387.15 245.625,387.779 243.251,386.47L238.776,384.005C224.217,376.071 206.109,366.176 169.514,329.581C167.201,327.268 165.015,325.042 162.925,322.883C162.925,322.883 490.114,322.883 490.114,322.883C503.582,322.893 514.521,312.005 514.574,298.536C514.574,298.532 514.574,298.529 514.574,298.525L514.574,34.57C514.558,21.069 503.618,10.129 490.117,10.113ZM228.021,403.73L232.346,406.106C244.409,412.843 259.587,409.715 268.001,398.757C268.001,398.757 291.442,368.62 291.442,368.62C293.24,366.333 296.49,365.806 298.919,367.406L379.457,421.094C381.918,422.734 382.658,426.016 381.139,428.553C381.139,428.553 360.942,462.224 360.942,462.224C360.936,462.234 360.93,462.243 360.925,462.253C357.06,468.88 350.782,473.756 343.405,475.861C303.51,486.826 233.92,477.068 127.965,371.106C22.02,265.153 12.289,195.572 23.224,155.709C25.331,148.322 30.204,142.045 36.827,138.179C36.837,138.173 36.846,138.168 36.855,138.162L70.525,117.957C73.063,116.442 76.345,117.181 77.987,119.639C77.987,119.639 131.699,200.178 131.699,200.178C133.302,202.605 132.775,205.857 130.485,207.652C130.485,207.652 100.338,231.102 100.338,231.102C89.382,239.514 86.252,254.691 92.99,266.75C92.99,266.75 95.373,271.075 95.373,271.075C103.976,286.853 114.659,306.496 153.637,345.465C192.617,384.437 212.253,395.127 228.021,403.73L228.021,403.73ZM492.107,298.528C492.079,299.593 491.203,300.442 490.135,300.434C490.128,300.434 490.122,300.434 490.115,300.434L142.433,300.434C131.83,288.167 122.665,274.726 115.117,260.371C115.109,260.357 115.102,260.343 115.094,260.329L112.631,255.84C111.321,253.474 111.948,250.506 114.103,248.871C114.112,248.864 114.12,248.858 114.129,248.851L144.293,225.388C155.831,216.35 158.489,199.964 150.401,187.741L130.574,157.984C130.574,157.984 130.574,34.573 130.574,34.573C130.574,34.563 130.574,34.553 130.574,34.543C130.568,34.02 130.773,33.518 131.142,33.148C131.512,32.779 132.014,32.574 132.537,32.58C132.547,32.58 132.557,32.58 132.567,32.58L490.114,32.58C490.124,32.58 490.134,32.58 490.144,32.58C490.667,32.574 491.169,32.779 491.539,33.148C491.908,33.518 492.113,34.02 492.107,34.543C492.107,34.553 492.107,34.563 492.107,34.573L492.107,298.526L492.107,298.528Z" fill-rule="nonzero" transform="matrix(1,0,0,1,845,670)"/><path d="M459.095,50.171L316.5,158.313C313.427,160.533 309.279,160.538 306.201,158.328C306.18,158.313 163.64,50.172 163.64,50.172C163.64,50.172 163.64,50.172 163.64,50.172C158.696,46.422 151.647,47.39 147.898,52.334C144.148,57.279 145.117,64.328 150.061,68.076C150.06,68.076 292.643,176.227 292.643,176.227C292.652,176.234 292.661,176.241 292.671,176.248C303.768,184.446 318.915,184.446 330.012,176.248C330.021,176.241 330.03,176.234 330.039,176.227L472.665,68.076C475.041,66.276 476.604,63.603 477.008,60.649C477.412,57.695 476.626,54.702 474.822,52.328C471.072,47.393 464.035,46.428 459.095,50.171Z" fill-rule="nonzero" transform="matrix(1,0,0,1,845,670)"/><path d="M236.646,172.847C236.611,172.88 236.577,172.915 236.544,172.95L149.127,266.563C144.896,271.1 145.145,278.21 149.683,282.441C154.22,286.672 161.33,286.423 165.561,281.885C165.56,281.886 252.976,188.233 252.976,188.233C253.012,188.195 253.047,188.155 253.081,188.114C256.882,183.528 256.442,176.771 252.078,172.715C252.078,172.715 252.078,172.715 252.078,172.715C247.713,168.659 240.941,168.717 236.646,172.847Z" fill-rule="nonzero" transform="matrix(1,0,0,1,845,670)"/><path d="M386.703,172.952C382.472,168.414 375.364,168.164 370.825,172.396C366.287,176.627 366.037,183.735 370.269,188.274L457.66,281.886C461.89,286.423 468.998,286.673 473.537,282.441C478.075,278.21 478.325,271.102 474.093,266.563L386.702,172.951L386.703,172.952Z" fill-rule="nonzero" transform="matrix(1,0,0,1,845,670)"/></g></svg>