<svg viewBox="0 0 22 26" xmlns="http://www.w3.org/2000/svg" fill-rule="evenodd" clip-rule="evenodd" stroke-linejoin="round" stroke-miterlimit="2"><g transform="matrix(1,0,0,1,-300.893,-917.8) matrix(1,0,0,2.14739,-1,-425.783) matrix(0.0946826,0,0,0.0440919,288.16,625.355)"><path d="M256,163.273C231.074,163.273 210.796,142.995 210.796,118.069C210.796,93.143 231.074,72.865 256,72.865C280.926,72.865 301.204,93.143 301.204,118.069C301.204,142.995 280.926,163.273 256,163.273ZM256,94.415C242.958,94.415 232.346,105.027 232.346,118.069C232.346,131.111 242.958,141.723 256,141.723C269.042,141.723 279.654,131.111 279.654,118.069C279.654,105.027 269.042,94.415 256,94.415Z" fill="#0f7d7f" fill-rule="nonzero"/><path d="M256,7.393C317.153,7.393 366.91,57.12 366.958,118.261C366.158,150.513 349.86,181.373 329.99,207.568C303.145,242.96 269.546,269.89 256.001,280.329C242.455,269.891 208.855,242.961 182.01,207.569C162.14,181.373 145.842,150.513 145.042,118.261C145.091,57.12 194.847,7.393 256,7.393ZM251.334,257.223C254.052,259.434 257.948,259.434 260.666,257.223C278.503,242.709 307.954,214.103 328.374,183.029C342.568,161.428 352.275,138.57 351.744,118.252C351.69,65.504 308.76,22.607 256,22.607C203.241,22.607 160.31,65.504 160.256,118.252C159.725,138.57 169.432,161.428 183.626,183.029C204.046,214.103 233.497,242.709 251.334,257.223Z" fill="#0f7d7f" fill-rule="nonzero"/></g></svg>