<svg viewBox="0 0 28 26" xmlns="http://www.w3.org/2000/svg" fill-rule="evenodd" clip-rule="evenodd" stroke-linejoin="round" stroke-miterlimit="2"><g fill-rule="nonzero"><path d="M25.762 1.151c2.009 1.507 2.683 4.85 1.951 7.475-.724 2.619-2.848 4.513-4.857 7.727-2.008 3.221-3.902 7.755-6.729 8.687-2.819.933-6.578-1.75-9.993-4.964C2.712 16.862-.372 13.103.037 9.76c.401-3.35 4.297-6.291 7.719-7.798C11.177.456 14.119.384 17.261.183c3.149-.208 6.492-.538 8.501.968z" fill="#6e6e6e"/><path d="M17.891 8h-7.782c-.495 0-.898.403-.898.898v5.388c0 .495.403.898.898.898h7.782c.495 0 .898-.403.898-.898V8.898c0-.495-.403-.898-.898-.898zm0 .599c.041 0 .079.008.115.023L14 12.094 9.994 8.622c.036-.015.074-.023.115-.023h7.782zm0 5.986h-7.782c-.165 0-.299-.134-.299-.299V9.254l3.994 3.462c.056.049.126.073.196.073s.14-.024.196-.073l3.994-3.462v5.032c0 .165-.134.299-.299.299z" fill="#eaeaea"/></g></svg>