<svg viewBox="0 0 24 18" xmlns="http://www.w3.org/2000/svg" fill-rule="evenodd" clip-rule="evenodd" stroke-linejoin="round" stroke-miterlimit="2"><path d="M464,64L48,64C21.531,64 0,85.531 0,112C0,112 0,400 0,400C0,426.469 21.531,448 48,448L464,448C490.469,448 512,426.469 512,400L512,112C512,85.531 490.469,64 464,64ZM480,131.39L480,400C479.999,408.828 472.827,415.999 464,415.999L48,415.999C39.172,415.999 32,408.828 32,399.999L32,131.39L32.079,131.388L32.139,131.35L32.206,131.33L32.259,131.271L245.516,316.094C248.532,318.703 252.266,320 256,320C259.734,320 263.468,318.704 266.484,316.093L480,131.047C479.705,131.302 479.839,131.399 480,131.39ZM470.132,97.238C470.132,97.238 256,282.828 256,282.828L41.867,97.238C43.757,96.452 45.825,96 47.999,96L464,96C466.174,96 468.242,96.451 470.132,97.238Z" fill="#0f7d7f" fill-rule="nonzero" transform="matrix(1,0,0,1,-301.093,-1031.75) matrix(1,0,0,2.14739,-1,-310.783) matrix(0.0455729,0,0,0.0212224,302.093,623.834)"/></svg>