<svg viewBox="0 0 22 22" xmlns="http://www.w3.org/2000/svg" fill-rule="evenodd" clip-rule="evenodd" stroke-linejoin="round" stroke-miterlimit="2"><path d="M410.548,458.943L409.886,457.316L407.712,459.422C402.349,464.435 397.25,469.722 392.482,475.206L392.104,475.631C381.541,486.912 368.612,492.432 352.553,492.432L347.947,492.32C321.249,490.607 296.742,480.378 278.391,471.602C278.383,471.598 278.375,471.594 278.367,471.59C229.144,447.713 185.582,413.6 150.602,371.537C150.6,371.535 150.599,371.534 150.598,371.533C121.12,336.007 101.314,302.948 88.205,267.526C88.204,267.525 88.203,267.523 88.203,267.522C79.788,244.992 76.736,227.297 78.138,210.194C78.138,210.189 78.139,210.184 78.139,210.178C79.004,198.145 84.255,186.838 92.89,178.413L121.514,149.791L121.448,149.847L121.834,149.478C128.147,143.551 135.185,140.567 142.054,140.567C149.05,140.567 155.996,143.613 162.02,149.632L162.126,149.676L162.023,149.635L162.123,149.678L162.027,149.639L162.095,149.709C167.109,154.403 171.901,159.249 177.543,165.076L185.508,173.208L208.374,196.064C215.12,202.813 218.28,209.858 218.28,216.799C218.28,223.741 215.12,230.785 208.381,237.524L201.109,244.797C193.554,252.531 187.02,259.027 179.817,265.496L180.461,267.177L180.426,267.214L179.73,265.581L179.595,265.721C176.902,268.426 176.987,270.797 177.863,273.645L177.886,273.716C178.097,274.349 178.671,274.785 179.33,274.821L179.449,274.925C178.791,274.925 178.197,274.529 177.945,273.921C183.428,287.138 191.267,299.862 203.239,315.101L204.52,315.724C204.52,315.724 203.275,315.145 203.275,315.145L203.495,315.41C225.96,343.082 249.502,364.543 275.491,380.985C275.498,380.989 275.505,380.994 275.512,380.998C278.532,382.844 281.643,384.534 284.834,386.064C284.858,386.076 284.882,386.088 284.905,386.099C288.1,387.695 291.1,389.203 293.728,390.816L294.58,391.056C294.58,391.056 293.768,390.839 293.768,390.839L294.613,391.318L294.521,391.283C295.51,391.799 296.605,392.08 297.72,392.107C297.738,392.108 297.757,392.108 297.775,392.108C300.46,392.082 302.138,390.162 302.802,389.496C302.803,389.496 331.564,360.732 331.564,360.732C337.891,354.407 344.997,351.237 351.961,351.237C361.533,351.237 368.612,357.121 372.005,360.807L418.327,407.116C424.802,413.558 427.901,420.623 427.943,427.676C427.985,434.703 424.983,441.872 418.595,448.548C418.589,448.554 418.584,448.56 418.578,448.566C415.737,451.624 412.896,454.389 409.888,457.314L410.549,458.942L410.548,458.943ZM331.179,394.222C331.026,394.078 330.905,393.899 330.822,393.698C330.57,393.089 330.709,392.388 331.175,391.922L318.201,404.896C312.177,410.919 305.261,413.887 297.72,413.887C297.709,413.887 297.698,413.887 297.686,413.887C293.095,413.855 288.577,412.736 284.502,410.622L282.619,409.543C280.539,408.255 277.958,406.973 275.229,405.609C275.221,405.605 275.214,405.601 275.206,405.598C271.35,403.743 267.591,401.691 263.946,399.449C263.929,399.438 263.911,399.427 263.894,399.416C236.032,381.795 210.816,358.914 186.862,329.464L186.405,328.918C172.831,311.687 164.006,297.217 157.737,282.036L157.132,280.3C155.759,275.942 151.87,263.139 163.669,250.875L164.999,249.546L163.946,249.932L165.066,249.485C169.218,245.763 173.154,242.007 177.224,237.974C177.532,237.669 177.705,237.254 177.706,236.821C177.707,236.388 177.536,235.972 177.229,235.665L123.002,181.437C122.214,180.65 121.942,181.604 121.862,182.601L121.833,182.573L121.356,183.05L120.681,181.421L108.214,193.887C103.281,198.645 100.296,205.076 99.848,211.916C99.846,211.942 99.844,211.969 99.842,211.995C98.694,225.994 101.457,240.771 108.61,259.921C108.612,259.926 108.613,259.93 108.615,259.935C120.898,293.12 139.573,324.142 167.339,357.608C167.339,357.608 167.34,357.609 167.34,357.609C200.328,397.277 241.406,429.451 287.822,451.975C287.825,451.976 287.828,451.978 287.831,451.979C304.243,459.827 326.075,469.103 349.383,470.595L352.556,470.656L352.849,470.152C353.015,469.843 353.216,469.427 353.343,469.012L354.182,468.996L354.185,469.027C354.185,469.927 353.456,470.656 352.556,470.656L354.37,470.621C363.297,470.268 370.06,467.25 376.067,460.903L374.885,461.411L376.113,460.852C379.826,456.582 383.694,452.451 387.711,448.468C388.019,448.163 388.192,447.748 388.193,447.315C388.194,446.881 388.022,446.466 387.716,446.159L333.495,391.938C332.708,391.152 332.436,392.102 332.35,393.097L332.327,393.074L331.179,394.222ZM350.453,376.535L349.63,373.945C349.63,373.945 349.281,374.184 349.281,374.184C349.281,374.184 350.193,377.163 350.193,377.163C349.761,377.163 349.347,376.991 349.041,376.686L402.969,430.614C403.327,430.972 403.831,431.143 404.333,431.077C404.836,431.011 405.278,430.715 405.532,430.276C405.997,429.471 406.234,428.664 406.223,427.815C406.211,426.946 405.937,426.133 405.426,425.327C404.867,424.446 403.978,423.55 402.926,422.507L356.387,375.968L353.984,373.814C353.4,373.428 352.727,373.009 351.968,373.009C351.16,373.009 350.399,373.461 349.696,373.901L350.453,376.535ZM296.48,390.301L296.369,390.266C295.959,390.932 295.273,391.468 295.273,391.468C295.974,391.468 296.591,391.021 296.809,390.366L296.48,390.301ZM356.725,376.503C356.932,377.088 356.575,377.636 356.156,378.04L356.373,378.257C356.528,378.115 356.649,377.937 356.732,377.735C356.9,377.331 356.895,376.888 356.725,376.503C356.703,376.429 356.668,376.355 356.624,376.281L356.725,376.503ZM356.422,376.009L356.575,376.202L356.539,376.145L356.422,376.009ZM156.809,284.019L156.855,284.127C157.147,284.016 157.398,283.812 157.577,283.544C157.746,283.292 157.838,283.002 157.842,282.708C157.796,283.366 157.255,283.786 156.809,284.019ZM157.828,282.368L157.836,282.458L157.835,282.404L157.828,282.368ZM157.752,282.085L157.814,282.304L157.794,282.208L157.752,282.085ZM180.047,274.695C179.896,274.766 179.731,274.803 179.562,274.813L179.449,274.925C179.673,274.925 179.89,274.88 180.085,274.784L180.047,274.695ZM146.642,165.055L144.547,163.153C143.8,162.658 142.965,162.345 142.054,162.345C140.947,162.345 139.821,162.821 138.669,163.689C138.292,163.972 138.056,164.405 138.023,164.876C137.99,165.347 138.163,165.809 138.496,166.142L192.483,220.129C192.811,220.457 193.263,220.63 193.726,220.604C194.19,220.578 194.62,220.355 194.909,219.992C195.133,219.711 195.337,219.431 195.523,219.154C196.081,218.32 196.471,217.582 196.471,216.802C196.471,216.022 196.081,215.284 195.523,214.45C194.888,213.503 194.031,212.523 192.972,211.465L170.02,188.514C170.02,188.514 161.898,180.22 161.898,180.22C156.479,174.623 151.894,169.986 147.254,165.644L146.959,165.367L147.013,165.434L146.661,165.07L146.642,165.055ZM120.191,150.247L120.37,150.261C120.346,150.282 120.282,150.277 120.191,150.247ZM120.704,149.934L120.226,148.776L120.24,148.762L120.704,149.934Z" fill="#0f7d7f" fill-rule="nonzero" transform="matrix(1,0,0,1,-301.793,-982.7) matrix(1,0,0,2.14739,-1,-358.783) matrix(0.0613872,0,0,0.0285868,298.017,620.685)"/></svg>