<svg viewBox="0 0 28 28" xmlns="http://www.w3.org/2000/svg" fill-rule="evenodd" clip-rule="evenodd" stroke-linejoin="round" stroke-miterlimit="2"><g transform="matrix(1,0,0,1,-784.287,-916.7) matrix(0.0531254,0,0,0.0531254,784.587,917)"><path d="M441.013,70.987C391.593,21.568 325.888,-5.647 256,-5.647C186.112,-5.647 120.407,21.568 70.987,70.987C21.567,120.406 -5.647,186.112 -5.647,256C-5.647,325.888 21.568,391.593 70.987,441.013C120.406,490.433 186.112,517.647 256,517.647C325.888,517.647 391.593,490.432 441.013,441.013C490.433,391.594 517.647,325.888 517.647,256C517.647,186.112 490.432,120.407 441.013,70.987L441.013,70.987ZM421.713,421.713C377.45,465.976 318.598,490.353 256,490.353C193.402,490.353 134.55,465.976 90.287,421.713C46.024,377.45 21.647,318.598 21.647,256C21.647,193.402 46.024,134.55 90.287,90.287C134.55,46.024 193.402,21.647 256,21.647C318.598,21.647 377.45,46.024 421.713,90.287C465.976,134.55 490.353,193.402 490.353,256C490.353,318.598 465.976,377.45 421.713,421.713Z" fill="#0f7d7f" fill-rule="nonzero"/><path d="M242.353,416L242.353,440C242.353,447.537 248.463,453.647 256,453.647C263.537,453.647 269.647,447.537 269.647,440L269.647,416C269.647,408.463 263.537,402.353 256,402.353C248.463,402.353 242.353,408.463 242.353,416Z" fill="#0f7d7f" fill-rule="nonzero"/><path d="M109.647,256C109.647,248.463 103.537,242.353 96,242.353C96,242.353 72,242.353 72,242.353C64.463,242.353 58.353,248.463 58.353,256C58.353,263.537 64.463,269.647 72,269.647L96,269.647C103.537,269.647 109.647,263.537 109.647,256Z" fill="#0f7d7f" fill-rule="nonzero"/><path d="M109.647,256C109.647,248.463 103.537,242.353 96,242.353L72,242.353C64.463,242.353 58.353,248.463 58.353,256C58.353,263.537 64.463,269.647 72,269.647L96,269.647C103.537,269.647 109.647,263.537 109.647,256Z" fill="#0f7d7f" fill-rule="nonzero" transform="matrix(6.12323e-17,1,-1,6.12323e-17,511.8,-3.47265)"/><path d="M402.353,256C402.353,263.537 408.463,269.647 416,269.647L440,269.647C447.537,269.647 453.647,263.537 453.647,256C453.647,248.463 447.537,242.353 440,242.353C440,242.353 416,242.353 416,242.353C408.463,242.353 402.353,248.463 402.353,256Z" fill="#0f7d7f" fill-rule="nonzero"/><path d="M187.818,110.613L175.818,89.828C172.05,83.3 163.704,81.065 157.177,84.832C157.177,84.832 157.177,84.832 157.176,84.833C150.65,88.601 148.413,96.948 152.182,103.475L164.182,124.26C166.709,128.636 171.293,131.084 176.008,131.084C178.324,131.084 180.673,130.496 182.823,129.255C182.824,129.255 182.824,129.254 182.825,129.254C189.35,125.486 191.587,117.139 187.818,110.612L187.818,110.613Z" fill="#0f7d7f" fill-rule="nonzero"/><path d="M347.818,387.74C344.05,381.214 335.702,378.98 329.178,382.745C329.177,382.745 329.177,382.745 329.176,382.746C322.65,386.514 320.413,394.861 324.182,401.388L336.182,422.173C338.709,426.549 343.293,428.997 348.008,428.997C350.324,428.997 352.673,428.409 354.823,427.168C354.824,427.168 354.824,427.168 354.825,427.167C361.351,423.399 363.588,415.052 359.819,408.525L347.818,387.74Z" fill="#0f7d7f" fill-rule="nonzero"/><path d="M96.659,361.648C98.975,361.648 101.324,361.06 103.474,359.819L124.261,347.818C130.787,344.05 133.024,335.703 129.255,329.176C125.487,322.65 117.139,320.416 110.615,324.181L89.828,336.182C83.302,339.95 81.065,348.296 84.833,354.823C87.359,359.199 91.944,361.648 96.659,361.648Z" fill="#0f7d7f" fill-rule="nonzero"/><path d="M394.571,189.648C396.887,189.648 399.236,189.06 401.386,187.819L422.173,175.818C428.699,172.05 430.936,163.703 427.167,157.176C423.399,150.65 415.054,148.416 408.527,152.18L387.74,164.182C381.214,167.95 378.977,176.297 382.746,182.824C382.746,182.824 382.746,182.824 382.746,182.824C385.273,187.2 389.858,189.648 394.571,189.648Z" fill="#0f7d7f" fill-rule="nonzero"/><path d="M354.824,84.833C348.297,81.063 339.95,83.299 336.181,89.828C336.182,89.828 324.182,110.613 324.182,110.613C320.413,117.139 322.65,125.486 329.176,129.254C331.327,130.497 333.675,131.084 335.993,131.084C340.708,131.084 345.292,128.636 347.819,124.26L359.82,103.474C363.586,96.947 361.35,88.601 354.824,84.833L354.824,84.833Z" fill="#0f7d7f" fill-rule="nonzero"/><path d="M182.824,382.746C176.297,378.977 167.95,381.214 164.182,387.74L152.182,408.526C148.413,415.052 150.65,423.399 157.176,427.167C159.327,428.41 161.675,428.997 163.993,428.997C168.708,428.997 173.292,426.549 175.819,422.173L187.82,401.387C191.586,394.86 189.35,386.514 182.824,382.746Z" fill="#0f7d7f" fill-rule="nonzero"/><path d="M387.74,347.818L408.526,359.818C410.675,361.061 413.023,361.648 415.342,361.648C420.057,361.648 424.641,359.2 427.168,354.824C427.168,354.824 427.168,354.824 427.168,354.824C430.937,348.297 428.7,339.95 422.174,336.182L401.388,324.182C394.863,320.412 386.516,322.649 382.747,329.176C378.977,335.703 381.214,344.05 387.74,347.818Z" fill="#0f7d7f" fill-rule="nonzero"/><path d="M124.26,164.182L103.474,152.182C96.949,148.412 88.601,150.649 84.833,157.176C81.064,163.703 83.301,172.05 89.827,175.818L110.613,187.818C112.762,189.061 115.11,189.648 117.429,189.648C122.144,189.648 126.728,187.2 129.255,182.824C129.255,182.824 129.256,182.823 129.256,182.823C133.022,176.296 130.786,167.95 124.26,164.182Z" fill="#0f7d7f" fill-rule="nonzero"/><path d="M797.462,926L797.461,926L797.461,928L797.462,928L797.462,929.202C796.957,929.465 796.612,929.993 796.612,930.6C796.612,931.469 797.318,932.175 798.187,932.175C798.211,932.175 798.234,932.175 798.258,932.173L800.517,936.087C800.651,936.319 800.895,936.449 801.145,936.449C801.268,936.449 801.393,936.418 801.507,936.352C801.507,936.352 801.507,936.352 801.507,936.352C801.854,936.152 801.973,935.708 801.773,935.362C801.773,935.362 799.513,931.448 799.513,931.448C799.67,931.203 799.762,930.912 799.762,930.6C799.762,929.993 799.416,929.465 798.911,929.202C798.912,929.202 798.912,928.699 798.912,928L798.912,928L798.912,926L798.912,926C798.912,925.11 798.912,924.363 798.912,924.363C798.912,924.025 798.587,923.75 798.187,923.75C797.786,923.75 797.462,924.025 797.462,924.363L797.462,926Z" fill="#0f7d7f" transform="matrix(18.8234,0,0,18.8234,-14768.6,-17261.1)"/></g></svg>