<svg viewBox="0 0 29 28" xmlns="http://www.w3.org/2000/svg" fill-rule="evenodd" clip-rule="evenodd" stroke-linejoin="round" stroke-miterlimit="2"><g fill-rule="nonzero"><path d="M23.848 1.41c3.461 2.053 5.734 6.709 5.021 10.653-.712 3.953-4.402 7.193-7.862 10.161-3.461 2.969-6.701 5.666-9.05 4.775-2.35-.89-3.808-5.368-5.971-8.337C3.823 15.693.956 14.235.21 12.029c-.755-2.213.61-5.173 2.773-7.218C5.146 2.759 8.106 1.614 11.914.766c3.809-.848 8.465-1.408 11.934.644z" fill="#e6e6e6"/><g fill="#9b9b9b"><path d="M17.508 13.419c-.212-.221-.468-.339-.739-.339-.269 0-.527.116-.748.336l-.691.689c-.057-.03-.114-.059-.168-.087-.079-.04-.153-.077-.217-.116-.647-.411-1.235-.947-1.8-1.64-.273-.346-.457-.637-.59-.932.179-.164.345-.334.507-.498.061-.062.123-.125.184-.186.459-.46.459-1.054 0-1.514l-.597-.597c-.068-.067-.138-.137-.203-.207-.132-.136-.269-.276-.412-.407-.212-.21-.465-.322-.732-.322-.267 0-.525.112-.744.322l-.004.004-.744.75c-.28.28-.439.621-.474 1.017-.053.639.135 1.234.28 1.623.354.955.883 1.841 1.673 2.79.958 1.144 2.11 2.047 3.426 2.684.503.238 1.175.52 1.925.568.046.002.094.004.138.004.505 0 .929-.181 1.261-.542.003-.004.007-.006.009-.011.114-.138.245-.262.383-.396.094-.089.19-.183.284-.282.217-.225.33-.487.33-.756 0-.272-.115-.532-.336-.75l-1.201-1.205zm.783 2.302c-.002 0-.002.003 0 0-.085.092-.173.175-.267.267-.142.136-.286.278-.422.437-.221.237-.481.348-.822.348-.033 0-.068 0-.101-.002-.649-.042-1.253-.295-1.705-.512-1.238-.599-2.325-1.45-3.228-2.528-.746-.899-1.245-1.73-1.575-2.622-.203-.544-.278-.969-.245-1.369.022-.256.121-.468.302-.649l.746-.746c.107-.101.221-.155.332-.155.138 0 .249.083.319.153.003.002.005.004.007.006.133.125.26.254.394.392.067.07.137.14.207.212l.597.597c.232.232.232.446 0 .678-.063.063-.124.127-.188.188-.183.188-.358.363-.549.534-.004.004-.008.006-.011.011-.188.188-.153.371-.113.496.002.007.004.013.006.02.156.376.374.73.707 1.152l.002.002c.603.744 1.24 1.323 1.942 1.767.089.057.181.103.269.147.079.039.153.076.216.116.009.004.018.011.027.015.074.037.144.055.216.055.182 0 .295-.114.332-.151l.748-.748c.075-.074.193-.164.331-.164.135 0 .247.085.314.16l1.21 1.209c.225.223.225.453.002.684zM14.919 9.465c.573.096 1.093.367 1.509.783.415.415.684.936.783 1.509.024.144.148.244.291.244.017 0 .032-.002.05-.004.162-.026.269-.179.243-.341-.119-.693-.447-1.325-.947-1.826-.501-.501-1.133-.829-1.826-.947-.162-.026-.313.081-.342.241-.028.159.077.314.239.341zM19.669 11.571c-.195-1.142-.733-2.181-1.56-3.007-.826-.827-1.865-1.365-3.006-1.559-.16-.029-.311.08-.339.24-.027.162.08.313.242.341 1.019.173 1.949.656 2.688 1.393.739.739 1.22 1.669 1.393 2.688.024.144.149.245.291.245.017 0 .033-.002.05-.005.16-.024.269-.177.241-.336z"/></g></g></svg>