<svg viewBox="0 0 170 80" xmlns="http://www.w3.org/2000/svg" fill-rule="evenodd" clip-rule="evenodd" stroke-linejoin="round" stroke-miterlimit="2"><path d="M169.9999 0h-170v80h170V0zM4 4v72h161.9998V4H4z"/><path d="M58.828 64.3128h-6.016l-12.2879-20.096-12.48 20.096h-5.632l15.168-23.872-14.144-21.824h5.888l11.328 18.112 11.456-18.112h5.632l-14.144 21.632 15.232 24.064zM101.0777 64.3128h-6.08l-24.96-38.336h-.256c.32 4.48.512 8.64.512 12.352v25.984h-4.928v-45.696h6.016l24.896 38.208h.256c-.064-.576-.128-2.368-.256-5.44-.192-3.072-.256-5.248-.192-6.528v-26.24h4.992v45.696zM142.352 64.3128l-5.696-14.528h-18.304l-5.632 14.528h-5.376l18.048-45.888h4.48l17.984 45.888h-5.504zm-7.36-19.328l-5.312-14.144c-.704-1.792-1.408-3.968-2.112-6.592-.448 1.984-1.088 4.224-1.984 6.592l-5.376 14.144h14.784z" fill-rule="nonzero"/></svg>