<svg width="100%" height="100%" viewBox="0 0 154 81" version="1.1" xmlns="http://www.w3.org/2000/svg" xmlns:xlink="http://www.w3.org/1999/xlink" xml:space="preserve" style="fill-rule:evenodd;clip-rule:evenodd;stroke-linejoin:round;stroke-miterlimit:1.41421;"><rect id="ArtBoard1" x="0" y="-0.492" width="153.2" height="81" style="fill:none;"/><clipPath id="_clip1"><rect x="0" y="-0.492" width="153.2" height="81"/></clipPath><g clip-path="url(#_clip1)"><g><path d="M54.544,11.672c0,-1.735 -0.739,-2.871 -2.215,-3.41c-1.477,-0.539 -3.316,-0.809 -5.52,-0.809l-0.422,0l0,-6.047l31.5,0l0,6.047l-1.265,0c-1.406,0 -2.684,0.117 -3.832,0.352c-1.149,0.234 -2.274,0.679 -3.375,1.336c-1.102,0.656 -2.238,1.593 -3.41,2.812c-1.172,1.219 -2.485,2.789 -3.938,4.711l-14.836,19.758l21.164,28.476c2.11,2.813 4.114,4.793 6.012,5.942c1.898,1.148 3.738,1.722 5.52,1.722l1.898,0.001l0,6.046l-37.195,0l0,-6.047l0.703,0c5.765,0 8.648,-1.593 8.648,-4.781c0,-0.515 -0.07,-1.043 -0.211,-1.582c-0.14,-0.539 -0.422,-1.172 -0.843,-1.898c-0.422,-0.727 -0.985,-1.606 -1.688,-2.637c-0.703,-1.031 -1.617,-2.297 -2.742,-3.797l-9.633,-12.937l-10.055,14.062c-0.422,0.563 -0.867,1.219 -1.336,1.969c-0.468,0.75 -0.89,1.523 -1.265,2.32c-0.375,0.797 -0.68,1.606 -0.914,2.426c-0.235,0.82 -0.352,1.605 -0.352,2.355c0,1.641 0.68,2.801 2.039,3.481c1.36,0.68 3.656,1.019 6.891,1.019l0.422,0l0,6.047l-34.313,0l0,-6.047l1.336,0c1.735,0 3.258,-0.14 4.57,-0.421c1.313,-0.282 2.555,-0.774 3.727,-1.477c1.172,-0.703 2.344,-1.652 3.516,-2.848c1.172,-1.195 2.461,-2.683 3.867,-4.464l18.14,-23.485l-18.14,-24.75c-2.11,-2.484 -4.16,-4.383 -6.152,-5.695c-1.993,-1.313 -4.067,-1.969 -6.223,-1.969l-1.899,0l0,-6.047l36.563,0l0,6.047l-0.422,0c-1.641,0 -3,0.106 -4.078,0.317c-1.078,0.21 -1.922,0.515 -2.531,0.914c-0.61,0.398 -1.032,0.855 -1.266,1.371c-0.234,0.515 -0.352,1.054 -0.352,1.617c0,0.984 0.293,1.957 0.879,2.918c0.586,0.961 1.418,2.191 2.496,3.691l9.493,12.938l7.453,-10.758c1.078,-1.641 1.945,-3.188 2.601,-4.641c0.657,-1.453 0.985,-2.836 0.985,-4.148Z" style="fill-rule:nonzero;"/><path d="M153.2,39.867c0,13.547 -2.871,23.625 -8.613,30.235c-5.742,6.609 -14.145,9.914 -25.207,9.914c-5.203,0 -9.867,-0.821 -13.993,-2.461c-4.124,-1.641 -7.628,-4.125 -10.511,-7.453c-2.883,-3.329 -5.086,-7.512 -6.61,-12.551c-1.523,-5.039 -2.285,-10.934 -2.285,-17.684c0,-13.453 2.848,-23.461 8.543,-30.023c5.696,-6.563 14.121,-9.844 25.278,-9.844c5.203,0 9.867,0.809 13.992,2.426c4.125,1.617 7.629,4.078 10.511,7.383c2.883,3.304 5.086,7.453 6.61,12.445c1.523,4.992 2.285,10.863 2.285,17.613Zm-53.297,0c0,5.344 0.352,10.055 1.055,14.133c0.703,4.078 1.84,7.488 3.41,10.23c1.57,2.743 3.609,4.817 6.117,6.223c2.508,1.406 5.567,2.109 9.176,2.109c3.609,0.001 6.656,-0.703 9.141,-2.109c2.484,-1.406 4.5,-3.48 6.046,-6.223c1.547,-2.742 2.661,-6.152 3.34,-10.23c0.68,-4.078 1.02,-8.789 1.02,-14.133c0,-5.344 -0.352,-10.031 -1.055,-14.062c-0.703,-4.032 -1.828,-7.395 -3.375,-10.09c-1.547,-2.695 -3.574,-4.723 -6.082,-6.082c-2.508,-1.36 -5.566,-2.039 -9.176,-2.039c-3.609,0 -6.656,0.679 -9.14,2.039c-2.485,1.359 -4.5,3.387 -6.047,6.082c-1.547,2.695 -2.672,6.058 -3.375,10.09c-0.703,4.031 -1.055,8.718 -1.055,14.062Z" style="fill-rule:nonzero;"/></g></g></svg>