<svg viewBox="0 0 302 27" xmlns="http://www.w3.org/2000/svg" xml:space="preserve" style="fill-rule:evenodd;clip-rule:evenodd;stroke-linejoin:round;stroke-miterlimit:2"><path d="M212.647 152.255V52.341h37.819c9.716 0 17.184 2.308 22.403 6.923 5.219 4.615 7.829 10.919 7.829 18.912 0 5.424-1.024 9.991-3.072 13.702-2.047 3.711-4.797 6.566-8.25 8.564-3.453 1.999-7.187 2.998-11.201 2.998l2.168-4.282c4.817 0 9.073.999 12.767 2.997 3.693 1.998 6.624 4.924 8.792 8.778s3.252 8.636 3.252 14.345c0 8.564-2.71 15.201-8.13 19.911-5.42 4.711-13.47 7.066-24.149 7.066h-40.228Zm12.044-11.562h27.702c6.665 0 11.764-1.332 15.297-3.996 3.533-2.665 5.299-6.851 5.299-12.561 0-5.804-1.766-10.039-5.299-12.703-3.533-2.664-8.632-3.997-15.297-3.997h-28.786V95.875h25.775c6.103 0 10.84-1.332 14.213-3.997 3.372-2.664 5.058-6.661 5.058-11.989 0-5.329-1.686-9.326-5.058-11.99-3.373-2.664-8.11-3.997-14.213-3.997h-24.691v76.791Z" style="fill:#fff;fill-rule:nonzero" transform="matrix(.2989 0 0 .25222 39.61 -11.6893)"/><path d="M328.996 153.111c-5.46 0-10.258-1.189-14.393-3.568-4.135-2.379-7.347-6.019-9.636-10.919-2.288-4.901-3.432-11.062-3.432-18.484V76.606h11.562v41.964c0 7.422 1.506 12.988 4.517 16.699 3.011 3.712 7.247 5.567 12.707 5.567 4.015 0 7.508-.975 10.479-2.926 2.97-1.951 5.259-4.805 6.865-8.564 1.606-3.759 2.409-8.302 2.409-13.631V76.606h11.562v75.649h-10.96v-20.411l1.807 5.424c-2.088 5.043-5.22 8.944-9.395 11.704-4.175 2.759-8.873 4.139-14.092 4.139Z" style="fill:#fff;fill-rule:nonzero" transform="matrix(.2989 0 0 .25222 39.61 -11.6893)"/><path d="M423.304 152.255v-15.986l-.602-2.998v-27.262c0-5.805-1.426-10.301-4.276-13.488-2.851-3.188-7.126-4.782-12.827-4.782-3.774 0-7.468.737-11.081 2.212-3.614 1.475-6.665 3.45-9.154 5.924l-4.818-10.277c3.292-3.14 7.247-5.543 11.864-7.208 4.617-1.665 9.455-2.498 14.513-2.498 8.753 0 15.498 2.522 20.235 7.565 4.738 5.043 7.106 12.751 7.106 23.123v45.675h-10.96Zm-20.957.856c-4.738 0-8.893-.951-12.466-2.854-3.574-1.904-6.324-4.544-8.251-7.922-1.927-3.378-2.891-7.208-2.891-11.49 0-4.092.824-7.803 2.47-11.134 1.646-3.33 4.336-5.994 8.069-7.993 3.734-1.998 8.773-2.997 15.116-2.997h20.235v9.849h-19.753c-5.781 0-9.676 1.141-11.683 3.425-2.008 2.284-3.011 5.043-3.011 8.279 0 3.711 1.244 6.684 3.733 8.921 2.49 2.236 5.942 3.354 10.359 3.354 4.336 0 8.13-1.142 11.382-3.426 3.252-2.283 5.6-5.614 7.046-9.991l2.288 9.42c-1.525 4.473-4.215 8.017-8.07 10.634-3.854 2.617-8.712 3.925-14.573 3.925Z" style="fill:#fff;fill-rule:nonzero" transform="matrix(.2989 0 0 .25222 39.61 -11.6893)"/><path d="M483.526 153.111c-6.504 0-12.305-1.665-17.404-4.995-5.099-3.331-9.094-7.898-11.984-13.703-2.891-5.804-4.336-12.465-4.336-19.983 0-7.517 1.445-14.178 4.336-19.982 2.89-5.805 6.885-10.349 11.984-13.632 5.099-3.282 10.9-4.924 17.404-4.924 5.781 0 10.94 1.356 15.477 4.068 4.537 2.712 8.05 6.732 10.539 12.061l-8.792 6.709c-2.088-3.712-4.637-6.447-7.649-8.208-3.011-1.76-6.243-2.64-9.695-2.64-4.176 0-7.91 1.094-11.202 3.283-3.292 2.188-5.901 5.257-7.829 9.206-1.927 3.949-2.89 8.635-2.89 14.059 0 5.424.963 10.134 2.89 14.131 1.928 3.997 4.537 7.089 7.829 9.278 3.292 2.188 7.026 3.283 11.202 3.283 3.452 0 6.684-.881 9.695-2.641 3.012-1.76 5.561-4.496 7.649-8.207l8.792 6.566c-2.489 5.233-6.002 9.253-10.539 12.061-4.537 2.807-9.696 4.21-15.477 4.21Z" style="fill:#fff;fill-rule:nonzero" transform="matrix(.2989 0 0 .25222 39.61 -11.6893)"/><path d="M557.72 75.892c5.219 0 9.816 1.19 13.791 3.568 3.974 2.379 7.086 5.995 9.334 10.848 2.248 4.853 3.373 10.991 3.373 18.413v43.534h-11.563v-41.964c0-7.327-1.506-12.846-4.517-16.557-3.011-3.711-7.246-5.567-12.707-5.567-4.095 0-7.668.952-10.719 2.855-3.051 1.903-5.4 4.71-7.046 8.421-1.646 3.711-2.469 8.326-2.469 13.845v38.967h-11.563V46.346h11.563v50.671l-2.289-5.424c2.088-4.948 5.3-8.802 9.636-11.562 4.336-2.759 9.395-4.139 15.176-4.139Z" style="fill:#fff;fill-rule:nonzero" transform="matrix(.2989 0 0 .25222 39.61 -11.6893)"/><path d="m617.942 152.255-23.727-75.649h10.96l21.078 68.512h-5.179l21.92-68.512h9.756l21.44 68.512h-5.059l21.559-68.512h10.359l-23.848 75.649H666.12l-20.114-62.518h3.372l-20.355 62.518h-11.081Z" style="fill:#fff;fill-rule:nonzero" transform="matrix(.2989 0 0 .25222 39.61 -11.6893)"/><path d="M750.31 152.255v-15.986l-.602-2.998v-27.262c0-5.805-1.425-10.301-4.276-13.488-2.85-3.188-7.126-4.782-12.827-4.782-3.774 0-7.467.737-11.081 2.212-3.613 1.475-6.664 3.45-9.154 5.924l-4.817-10.277c3.292-3.14 7.246-5.543 11.863-7.208 4.618-1.665 9.455-2.498 14.514-2.498 8.752 0 15.497 2.522 20.235 7.565 4.737 5.043 7.106 12.751 7.106 23.123v45.675H750.31Zm-20.957.856c-4.737 0-8.893-.951-12.466-2.854-3.573-1.904-6.323-4.544-8.25-7.922-1.927-3.378-2.891-7.208-2.891-11.49 0-4.092.823-7.803 2.469-11.134 1.646-3.33 4.336-5.994 8.07-7.993 3.734-1.998 8.772-2.997 15.116-2.997h20.234v9.849h-19.753c-5.781 0-9.675 1.141-11.683 3.425-2.007 2.284-3.011 5.043-3.011 8.279 0 3.711 1.245 6.684 3.734 8.921 2.489 2.236 5.942 3.354 10.358 3.354 4.336 0 8.13-1.142 11.382-3.426 3.252-2.283 5.601-5.614 7.046-9.991l2.289 9.42c-1.526 4.473-4.216 8.017-8.07 10.634-3.854 2.617-8.712 3.925-14.574 3.925Z" style="fill:#fff;fill-rule:nonzero" transform="matrix(.2989 0 0 .25222 39.61 -11.6893)"/><path style="fill:#fff;fill-rule:nonzero" d="M782.71 46.346h11.563v105.909H782.71z" transform="matrix(.2989 0 0 .25222 39.61 -11.6893)"/><path d="M842.691 153.111c-6.183 0-11.703-1.617-16.561-4.853-4.858-3.235-8.692-7.755-11.502-13.559-2.811-5.805-4.216-12.561-4.216-20.269 0-7.707 1.405-14.44 4.216-20.197 2.81-5.757 6.644-10.253 11.502-13.488 4.858-3.235 10.378-4.853 16.561-4.853 5.38 0 10.238 1.427 14.574 4.282s7.809 7.137 10.419 12.846c2.609 5.71 3.914 12.846 3.914 21.41s-1.265 15.701-3.794 21.41c-2.529 5.71-5.962 10.016-10.298 12.918-4.336 2.902-9.274 4.353-14.815 4.353Zm.964-11.989c4.015 0 7.648-1.095 10.9-3.283 3.252-2.189 5.822-5.305 7.709-9.349 1.886-4.045 2.83-8.731 2.83-14.06 0-5.424-.944-10.11-2.83-14.059-1.887-3.949-4.457-7.018-7.709-9.206-3.252-2.189-6.885-3.283-10.9-3.283-4.095 0-7.749 1.094-10.961 3.283-3.211 2.188-5.781 5.257-7.708 9.206-1.927 3.949-2.891 8.635-2.891 14.059 0 5.329.964 10.015 2.891 14.06 1.927 4.044 4.497 7.16 7.708 9.349 3.212 2.188 6.866 3.283 10.961 3.283Zm21.8 11.133v-20.411l.723-17.556-1.204-17.557V46.346h11.562v105.909h-11.081Z" style="fill:#fff;fill-rule:nonzero" transform="matrix(.2989 0 0 .25222 39.61 -11.6893)"/><g><path d="M187.633 33.961h30.912v566.015h-30.912V33.961ZM63.369 599.976H32.457V33.961h30.912v566.015Zm127.046-252.281H60.278v-70.348h130.137v70.348Z" style="fill:#fff;fill-opacity:.65;fill-rule:nonzero" transform="matrix(.11646 0 0 .04452 -3.78 0)"/><path d="M380.83 599.976v-90.563l-1.545-16.98V337.992c0-32.883-3.658-58.354-10.974-76.412-7.315-18.059-18.289-27.088-32.921-27.088-9.685 0-19.165 4.178-28.438 12.533-9.274 8.355-17.105 19.541-23.493 33.557l-12.365-58.219c8.45-17.789 18.599-31.4 30.448-40.834 11.85-9.434 24.266-14.15 37.249-14.15 22.462 0 39.773 14.285 51.931 42.855 12.159 28.57 18.238 72.234 18.238 130.992v258.75h-28.13Zm-53.786 4.851c-12.158 0-22.823-5.39-31.993-16.172-9.171-10.781-16.229-25.74-21.175-44.877-4.945-19.136-7.418-40.834-7.418-65.091 0-23.18 2.112-44.203 6.337-63.071 4.224-18.867 11.128-33.96 20.71-45.281 9.583-11.32 22.514-16.98 38.794-16.98h51.932v55.793h-50.695c-14.838 0-24.833 6.468-29.984 19.406-5.152 12.937-7.728 28.57-7.728 46.898 0 21.024 3.194 37.869 9.582 50.537 6.389 12.668 15.25 19.002 26.584 19.002 11.128 0 20.866-6.468 29.212-19.406 8.346-12.937 14.374-31.805 18.083-56.601l5.873 53.367c-3.915 25.336-10.819 45.416-20.711 60.24-9.891 14.824-22.359 22.236-37.403 22.236Z" style="fill:#fff;fill-opacity:.65;fill-rule:nonzero" transform="matrix(.11646 0 0 .04452 -3.78 0)"/><path d="M532.915 604.827c-14.013 0-26.326-6.738-36.939-20.215-10.613-13.476-18.856-34.095-24.729-61.857-5.873-27.762-8.81-62.666-8.81-104.713v-246.62h29.675v237.726c0 42.047 3.864 73.582 11.592 94.605 7.728 21.023 18.598 31.535 32.612 31.535 10.304 0 19.268-5.525 26.893-16.576s13.498-27.223 17.619-48.516c4.122-21.292 6.183-47.033 6.183-77.22V171.422h29.675v428.554h-28.13V484.347l4.637 30.726c-5.358 28.571-13.395 50.672-24.111 66.305-10.716 15.633-22.772 23.449-36.167 23.449Z" style="fill:#fff;fill-opacity:.65;fill-rule:nonzero" transform="matrix(.11646 0 0 .04452 -3.78 0)"/><path d="M720.239 604.827c-13.601 0-26.532-4.851-38.794-14.555-12.261-9.703-21.895-21.562-28.902-35.578l12.365-61.453c7.006 12.399 15.662 22.91 25.965 31.535 10.304 8.625 20.814 12.938 31.53 12.938 13.807 0 23.751-5.121 29.83-15.363 6.079-10.242 9.119-24.528 9.119-42.856 0-13.476-1.855-23.988-5.564-31.535-3.71-7.547-8.604-13.207-14.683-16.98-6.08-3.774-12.829-7.143-20.247-10.108-7.419-2.964-14.838-6.738-22.257-11.32-7.418-4.582-14.219-11.051-20.401-19.406-6.183-8.356-11.128-19.945-14.838-34.77-3.709-14.824-5.564-34.634-5.564-59.431 0-25.875 2.782-48.516 8.346-67.922s13.447-34.365 23.648-44.877c10.2-10.512 22.307-15.767 36.321-15.767 10.716 0 21.586 3.369 32.611 10.107 11.025 6.738 20.041 16.307 27.048 28.705l-12.674 61.453c-7.419-12.937-15.146-21.832-23.183-26.683-8.037-4.852-16.074-7.278-24.111-7.278-12.983 0-22.669 5.526-29.057 16.576-6.389 11.051-9.583 25.201-9.583 42.451 0 14.555 1.906 25.741 5.719 33.557 3.812 7.816 8.758 13.881 14.837 18.193 6.08 4.313 12.829 7.952 20.247 10.916 7.419 2.965 14.838 6.739 22.257 11.321 7.418 4.582 14.167 10.916 20.247 19.002 6.079 8.086 11.025 19.406 14.837 33.96 3.813 14.555 5.719 33.961 5.719 58.219 0 25.875-2.885 48.246-8.655 67.113-5.77 18.867-13.911 33.557-24.42 44.069-10.51 10.511-23.081 15.767-37.713 15.767Z" style="fill:#fff;fill-opacity:.65;fill-rule:nonzero" transform="matrix(.11646 0 0 .04452 -3.78 0)"/></g></svg>