<?xml version="1.0" encoding="UTF-8" standalone="no"?><!DOCTYPE svg PUBLIC "-//W3C//DTD SVG 1.1//EN" "http://www.w3.org/Graphics/SVG/1.1/DTD/svg11.dtd"><svg width="100%" height="100%" viewBox="0 0 148 98" version="1.1" xmlns="http://www.w3.org/2000/svg" xmlns:xlink="http://www.w3.org/1999/xlink" xml:space="preserve" xmlns:serif="http://www.serif.com/" style="fill-rule:evenodd;clip-rule:evenodd;stroke-linejoin:round;stroke-miterlimit:2;"><rect id="LocalBusiness" x="0" y="0" width="148" height="98" style="fill:#fff;"/><g id="Ebene-1" serif:id="Ebene 1"><path d="M40.217,37.34c-4.471,1.318 -7.037,6.029 -5.718,10.501c1.318,4.472 6.029,7.037 10.5,5.719c4.472,-1.318 7.037,-6.029 5.719,-10.5c-1.318,-4.472 -6.028,-7.038 -10.501,-5.72m5.276,17.897c-5.396,1.59 -11.08,-1.506 -12.671,-6.901c-1.591,-5.396 1.505,-11.081 6.901,-12.671c5.395,-1.591 11.081,1.505 12.672,6.9c1.59,5.396 -1.507,11.081 -6.902,12.672" style="fill:#00beee;fill-rule:nonzero;"/><path d="M18.924,43.618c-4.472,1.318 -7.038,6.029 -5.72,10.501c1.318,4.471 6.03,7.037 10.501,5.719c4.472,-1.318 7.037,-6.029 5.719,-10.501c-1.318,-4.472 -6.029,-7.037 -10.5,-5.719m5.275,17.896c-5.396,1.591 -11.08,-1.505 -12.671,-6.901c-1.591,-5.396 1.505,-11.08 6.901,-12.671c5.396,-1.591 11.081,1.505 12.671,6.901c1.591,5.396 -1.505,11.08 -6.901,12.671" style="fill:#00beee;fill-rule:nonzero;"/><path d="M34.097,48.024l-1.245,0.367c-1.83,-6.205 -8.641,-10.009 -14.846,-8.179c7.183,-2.118 14.403,0.503 16.521,7.686l-0.43,0.126Z" style="fill:#00beee;fill-rule:nonzero;"/><path d="M32.549,29.96l-0.276,1.269c-6.322,-1.372 -12.927,2.778 -14.3,9.1c1.589,-7.318 7.352,-12.395 14.67,-10.806l-0.094,0.437Z" style="fill:#00beee;fill-rule:nonzero;"/><path d="M40.326,28.876l-1.032,0.789c-3.927,-5.141 -11.647,-6.258 -16.788,-2.33c5.951,-4.546 13.63,-4.681 18.176,1.27l-0.356,0.271Z" style="fill:#00beee;fill-rule:nonzero;"/><path d="M28.02,33.359l1.286,-0.183c0.909,6.405 7.096,11.157 13.502,10.247c-7.415,1.053 -14.178,-2.587 -15.231,-10.001l0.443,-0.063Z" style="fill:#00beee;fill-rule:nonzero;"/><path d="M32.363,32.078l1.287,-0.182c0.909,6.405 7.096,11.156 13.501,10.246c-7.414,1.054 -14.177,-2.586 -15.231,-10.001l0.443,-0.063Z" style="fill:#00beee;fill-rule:nonzero;"/></g><g id="Ebene-11" serif:id="Ebene 1"><path d="M35.266,79.256c0,0.493 -0.401,0.894 -0.894,0.894l-7.472,0l0,-7.472c0,-0.493 0.401,-0.893 0.893,-0.893l7.473,0l0,7.471Zm-10.428,-6.578l0,9.535l9.534,0c0.306,0 0.607,-0.048 0.894,-0.139l0,0.139l2.064,0l0,-12.492l-9.537,0c-1.629,0 -2.955,1.327 -2.955,2.957" style="fill:#00beee;fill-rule:nonzero;"/><path d="M48.882,79.256c0,0.493 -0.402,0.894 -0.896,0.894l-7.47,0l0,-7.472c0,-0.493 0.4,-0.893 0.893,-0.893l7.473,0l0,7.471Zm0,-9.535l-7.473,0c-1.631,0 -2.957,1.327 -2.957,2.957l0,9.535l9.534,0c0.307,0 0.608,-0.048 0.896,-0.139l0,0.139l2.06,0l0,-22.065l-2.06,0l0,9.573Z" style="fill:#00beee;fill-rule:nonzero;"/><path d="M11.187,72.678l0,9.535l2.062,0l0,-9.535c0,-0.493 0.402,-0.893 0.894,-0.893l9.534,0l0,-2.064l-9.534,0c-1.63,0 -2.956,1.327 -2.956,2.957" style="fill:#00beee;fill-rule:nonzero;"/><rect x="52.068" y="60.148" width="2.062" height="22.064" style="fill:#00beee;"/><path d="M55.254,63.106l0,19.107l2.061,0l0,-10.293l3.813,0l0,-2.199l-3.813,0l0,-6.615c0,-0.494 0.402,-0.895 0.895,-0.895l4.446,0l0,20.002l2.063,0l0,-22.064l-6.509,0c-1.63,0 -2.956,1.326 -2.956,2.957" style="fill:#00beee;fill-rule:nonzero;"/><path d="M76.27,79.256c0,0.493 -0.4,0.894 -0.892,0.894l-7.472,0l0,-10.429l-2.064,0l0,12.492l9.536,0c1.629,0 2.956,-1.327 2.956,-2.957l0,-9.535l-2.064,0l0,9.535Z" style="fill:#00beee;fill-rule:nonzero;"/><path d="M105.91,69.721l-10.664,0l0,-9.572l-2.063,0l0,9.572l-10.769,0c-1.631,0 -2.957,1.327 -2.957,2.957l0,4.159l10.428,0l0,2.419c0,0.493 -0.4,0.894 -0.894,0.894l-9.534,0l0,2.063l9.534,0c1.631,0 2.958,-1.327 2.958,-2.957l0,-4.481l-10.429,0l0,-2.097c0,-0.493 0.4,-0.893 0.894,-0.893l10.769,0l0,10.428l2.063,0l0,-10.428l10.664,0c0.493,0 0.893,0.4 0.893,0.893l0,2.097l-10.428,0l0,4.481c0,1.63 1.327,2.957 2.957,2.957l9.535,0l0,-2.063l-9.535,0c-0.493,0 -0.894,-0.401 -0.894,-0.894l0,-2.419l10.429,0l0,-4.159c0,-1.63 -1.327,-2.957 -2.957,-2.957" style="fill:#00beee;fill-rule:nonzero;"/><path d="M127.803,69.751l-14.843,0l-0.189,0.007l-0.415,0.059c-1.35,0.279 -2.352,1.473 -2.352,2.891l0,9.534l2.063,0l0,-9.534c0,-0.493 0.401,-0.895 0.893,-0.895l14.843,0c0.493,0 0.895,0.402 0.895,0.895l0,2.097l-10.429,0l0,4.481c0,1.63 1.325,2.956 2.956,2.956l9.535,0l0,-2.062l-9.535,0c-0.493,0 -0.894,-0.402 -0.894,-0.894l0,-2.419l10.429,0l0,-4.159c0,-1.63 -1.326,-2.957 -2.957,-2.957" style="fill:#00beee;fill-rule:nonzero;"/><path d="M134.84,69.751c-1.631,0 -2.957,1.327 -2.957,2.956l0,9.535l2.064,0l0,-9.535c0,-0.492 0.401,-0.894 0.893,-0.894l9.535,0l0,-2.062l-9.535,0Z" style="fill:#00beee;fill-rule:nonzero;"/><rect x="65.842" y="66.539" width="12.492" height="2.06" style="fill:#00beee;"/></g></svg>