<svg viewBox="0 0 192 66" xmlns="http://www.w3.org/2000/svg" fill-rule="evenodd" clip-rule="evenodd" stroke-linejoin="round" stroke-miterlimit="2">
	<g transform="matrix(1,0,0,1,-300.093,-17.9636)">
		<g id="Logo" transform="matrix(0.0673414,0,0,0.0673414,281.826,4.35866)">
			<g transform="matrix(0.863521,0,0,0.863521,37.0217,85.0891)">
				<path
					d="M0,-396.516C-3.983,-388.495 -7.431,-380.306 -10.318,-371.986C-13.182,-363.657 -15.465,-355.19 -17.099,-346.635C-20.397,-329.529 -21.234,-312.13 -19.959,-294.915C-18.659,-277.7 -15.416,-260.648 -10.501,-244.077C-8.108,-235.772 -5.228,-227.606 -2.047,-219.575C1.113,-211.549 4.751,-203.66 8.676,-196.151C9.167,-195.224 9.672,-194.293 10.159,-193.434L10.63,-192.603L11.14,-191.636L11.982,-189.937C13.054,-187.703 14.006,-185.495 14.899,-183.267C16.688,-178.819 18.183,-174.307 19.444,-169.738C21.973,-160.608 23.662,-151.273 24.369,-141.858C25.908,-123.041 23.591,-103.975 17.923,-86.172C12.225,-68.352 3.204,-51.871 -7.946,-37.373C-19.115,-22.864 -32.283,-10.195 -46.704,0.53L-47.375,-0.212C-35.321,-13.448 -24.248,-27.363 -15.237,-42.36C-6.209,-57.317 0.771,-73.304 4.8,-89.891C6.865,-98.166 8.118,-106.594 8.704,-115.033C8.984,-119.253 9.065,-123.483 8.954,-127.702C8.87,-131.921 8.588,-136.133 8.114,-140.321C7.137,-148.689 5.506,-156.985 3.087,-165.019C1.871,-169.031 0.486,-172.986 -1.066,-176.822C-1.847,-178.733 -2.68,-180.621 -3.554,-182.408L-4.208,-183.704L-4.481,-184.218L-4.842,-184.841C-5.463,-185.919 -6.03,-186.949 -6.592,-187.991C-8.832,-192.132 -10.845,-196.299 -12.736,-200.526C-14.63,-204.745 -16.404,-209.007 -18.069,-213.309C-21.393,-221.914 -24.178,-230.714 -26.56,-239.623C-31.186,-257.468 -33.932,-275.883 -33.999,-294.379C-34.107,-312.851 -31.587,-331.394 -26.021,-348.914C-20.47,-366.421 -11.971,-382.883 -0.848,-397.046L0,-396.516Z"
					class="logo--color-primary" fill-rule="nonzero" transform="matrix(2.8411,0,0,2.8411,492.915,1267.95)"/>
				<path
					d="M0,-1.584C2.228,4.657 -1.025,11.523 -7.267,13.752L-17.352,17.352C-23.593,19.58 -30.46,16.325 -32.688,10.084L-36.287,-0C-38.515,-6.242 -35.262,-13.107 -29.02,-15.336L-18.935,-18.936C-12.693,-21.164 -5.828,-17.91 -3.6,-11.668L0,-1.584Z"
					class="logo--color-primary" fill-rule="nonzero" transform="matrix(2.8411,0,0,2.8411,408.215,688.302)"/>
				<path
					d="M0,-1.261C1.777,3.718 -0.819,9.195 -5.799,10.972L-13.843,13.843C-18.822,15.62 -24.299,13.023 -26.076,8.045L-28.947,0.001C-30.724,-4.981 -28.128,-10.456 -23.148,-12.234L-15.104,-15.104C-10.125,-16.881 -4.648,-14.285 -2.87,-9.305L0,-1.261Z"
					fill="#6ec6ce" fill-rule="nonzero" transform="matrix(2.8411,0,0,2.8411,436.185,790.682)"/>
				<path
					d="M0,1.527C1.29,6.653 -1.819,11.855 -6.946,13.146L-15.229,15.231C-20.356,16.521 -25.559,13.411 -26.849,8.285L-28.934,0.003C-30.225,-5.126 -27.115,-10.327 -21.988,-11.619L-13.705,-13.703C-8.578,-14.994 -3.376,-11.884 -2.085,-6.756L0,1.527Z"
					fill="#6ec6ce" fill-rule="nonzero" transform="matrix(2.8411,0,0,2.8411,467.837,887.299)"/>
				<path d="M0,8.542C0,13.828 -4.285,18.114 -9.572,18.114L-18.114,18.114C-23.401,18.114 -27.687,13.828 -27.687,8.542L-27.687,0.001C-27.687,-5.287 -23.401,-9.572 -18.114,-9.572L-9.572,-9.572C-4.285,-9.572 0,-5.287 0,0.001L0,8.542Z" fill="#6ec6ce"
							fill-rule="nonzero" transform="matrix(2.8411,0,0,2.8411,349.925,463.694)"/>
				<path
					d="M0,3.005C1.026,8.191 -2.345,13.227 -7.532,14.254L-15.911,15.911C-21.098,16.938 -26.133,13.565 -27.16,8.38L-28.817,0.001C-29.844,-5.187 -26.472,-10.222 -21.285,-11.248L-12.906,-12.906C-7.719,-13.933 -2.684,-10.561 -1.657,-5.373L0,3.005Z"
					fill="#6ec6ce" fill-rule="nonzero" transform="matrix(2.8411,0,0,2.8411,364.078,572.827)"/>
				<path d="M0,9.353C-0.472,13.609 -4.306,16.678 -8.563,16.206L-15.441,15.442C-19.699,14.969 -22.767,11.135 -22.295,6.879L-21.532,0.001C-21.059,-4.257 -17.225,-7.325 -12.968,-6.853L-6.089,-6.089C-1.832,-5.617 1.236,-1.784 0.763,2.475L0,9.353Z"
							fill="#6ec6ce" fill-rule="nonzero" transform="matrix(2.8411,0,0,2.8411,465.312,976.436)"/>
				<path d="M0,12.438C-1.247,16.097 -5.222,18.052 -8.881,16.805L-14.792,14.792C-18.45,13.545 -20.406,9.569 -19.159,5.911L-17.146,0C-15.899,-3.659 -11.923,-5.614 -8.264,-4.367L-2.353,-2.353C1.306,-1.107 3.261,2.87 2.014,6.528L0,12.438Z"
							fill="#6ec6ce" fill-rule="nonzero" transform="matrix(2.8411,0,0,2.8411,438.851,1056.2)"/>
				<path d="M0,13.132C-1.828,15.338 -5.097,15.645 -7.302,13.818L-10.866,10.864C-13.071,9.037 -13.378,5.768 -11.55,3.563L-8.599,-0.001C-6.771,-2.206 -3.502,-2.513 -1.296,-0.685L2.267,2.268C4.473,4.095 4.779,7.363 2.952,9.569L0,13.132Z"
							fill="#6ec6ce" fill-rule="nonzero" transform="matrix(2.8411,0,0,2.8411,344.118,1190.37)"/>
				<path d="M0,14.773C-1.953,17.588 -5.817,18.287 -8.632,16.334L-13.18,13.178C-15.995,11.226 -16.694,7.361 -14.741,4.546L-11.586,0C-9.633,-2.816 -5.769,-3.514 -2.954,-1.561L1.595,1.594C4.409,3.547 5.108,7.412 3.154,10.227L0,14.773Z"
							fill="#6ec6ce" fill-rule="nonzero" transform="matrix(2.8411,0,0,2.8411,395.978,1126.47)"/>
				<path d="M0,10.581C-0.717,14.803 -4.721,17.645 -8.944,16.928L-15.767,15.769C-19.99,15.051 -22.832,11.046 -22.115,6.824L-20.956,0.002C-20.238,-4.223 -16.233,-7.064 -12.01,-6.346L-5.187,-5.187C-0.964,-4.47 1.877,-0.466 1.159,3.759L0,10.581Z"
							fill="#6ec6ce" fill-rule="nonzero" transform="matrix(2.8411,0,0,2.8411,343.205,363.703)"/>
				<path d="M0,11.31C-1.008,15.041 -4.85,17.248 -8.582,16.239L-14.609,14.61C-18.341,13.602 -20.549,9.76 -19.541,6.029L-17.911,-0C-16.903,-3.731 -13.061,-5.938 -9.329,-4.929L-3.301,-3.3C0.431,-2.292 2.638,1.551 1.629,5.282L0,11.31Z"
							fill="#6ec6ce" fill-rule="nonzero" transform="matrix(2.8411,0,0,2.8411,355.329,281.586)"/>
				<path d="M0,12.699C-1.718,14.991 -4.969,15.456 -7.26,13.739L-10.963,10.963C-13.255,9.245 -13.72,5.994 -12.002,3.703L-9.227,0C-7.51,-2.292 -4.259,-2.757 -1.968,-1.039L1.736,1.737C4.027,3.455 4.493,6.705 2.775,8.996L0,12.699Z" fill="#6ec6ce"
							fill-rule="nonzero" transform="matrix(2.8411,0,0,2.8411,406.834,141.321)"/>
				<path d="M0,13.182C-1.579,16.222 -5.323,17.406 -8.363,15.827L-13.275,13.275C-16.315,11.696 -17.5,7.953 -15.921,4.912L-13.37,0.001C-11.791,-3.04 -8.046,-4.224 -5.006,-2.645L-0.094,-0.093C2.947,1.486 4.131,5.23 2.551,8.271L0,13.182Z"
							fill="#6ec6ce" fill-rule="nonzero" transform="matrix(2.8411,0,0,2.8411,374.363,204.503)"/>
			</g>
			<g class="logo--title" transform="matrix(2.8411,0,0,2.8411,186.864,48.4676)">
				<path
					d="M0,-44.326C0,-58.548 -9.712,-65.659 -29.136,-65.659C-33.896,-65.659 -39.235,-65.244 -45.156,-64.414C-44.77,-55.393 -44.575,-41.338 -44.575,-22.246C-42.639,-22.135 -40.259,-22.08 -37.437,-22.08C-12.479,-22.08 0,-29.495 0,-44.326M13.862,-49.14C13.862,-36.523 9.075,-27.088 -0.498,-20.835C-10.072,-14.581 -22.938,-11.455 -39.097,-11.455C-41.145,-11.455 -42.915,-11.51 -44.409,-11.621C-44.409,0.444 -43.967,15.025 -43.081,32.124L-59.019,32.124C-58.188,16.408 -57.773,-2.517 -57.773,-24.653C-57.773,-43.689 -58.188,-60.789 -59.019,-75.952L-47.148,-75.952C-45.876,-75.952 -42.238,-76.035 -36.233,-76.201C-30.229,-76.367 -25.124,-76.45 -20.918,-76.45C-10.293,-76.45 -1.84,-74.029 4.441,-69.187C10.721,-64.344 13.862,-57.662 13.862,-49.14"
					fill-rule="nonzero" transform="matrix(1,0,0,1,245.624,209.374)"/>
				<path
					d="M0,108.076L-15.771,108.076C-15.219,88.93 -14.941,71.774 -14.941,56.611L-64.663,56.611C-64.663,68.896 -64.387,86.052 -63.833,108.076L-79.604,108.076C-78.83,87.878 -78.442,68.952 -78.442,51.299C-78.442,32.816 -78.83,15.717 -79.604,0L-63.833,0C-64.497,15.827 -64.829,31.211 -64.829,46.152L-14.775,46.152C-14.775,34.144 -15.107,18.76 -15.771,0L0,0C-0.83,15.385 -1.245,32.484 -1.245,51.299C-1.245,71.94 -0.83,90.866 0,108.076"
					fill-rule="nonzero" transform="matrix(1,0,0,1,360.175,133.423)"/>
				<path
					d="M0,-108.076C0,-106.028 -3.403,-100.052 -10.21,-90.146C-19.839,-76.145 -26.12,-66.627 -29.053,-61.592C-35.859,-50.025 -39.263,-41.226 -39.263,-35.195C-39.263,-23.795 -38.876,-12.063 -38.101,0L-54.038,0C-53.319,-11.455 -52.959,-23.242 -52.959,-35.361C-52.959,-42.002 -56.142,-51.216 -62.505,-63.003C-66.103,-69.588 -72.051,-79.106 -80.352,-91.557C-86.716,-101.186 -89.897,-106.692 -89.897,-108.076L-72.881,-108.076C-72.881,-106.637 -68.107,-97.825 -58.563,-81.638C-49.016,-65.451 -44.243,-54.757 -44.243,-49.555L-43.413,-49.555C-43.413,-54.812 -38.862,-65.327 -29.758,-81.098C-20.656,-96.87 -16.104,-105.862 -16.104,-108.076L0,-108.076Z"
					fill-rule="nonzero" transform="matrix(1,0,0,1,467.504,241.498)"/>
				<path
					d="M0,50.884C0,71.36 -14.25,81.597 -42.749,81.597C-53.153,81.597 -62.395,80.406 -70.474,78.028L-67.568,64.995C-58.271,68.205 -49.445,69.81 -41.089,69.81C-22.274,69.81 -12.866,64.497 -12.866,53.872C-12.866,48.505 -15.302,43.911 -20.171,40.093C-23.437,37.548 -29.855,34.145 -39.429,29.883C-49.501,25.401 -56.557,21.279 -60.596,17.515C-66.186,12.314 -68.979,5.783 -68.979,-2.075C-68.979,-10.264 -66.13,-16.933 -60.43,-22.08C-54.066,-27.835 -45.073,-30.713 -33.452,-30.713C-20.282,-30.713 -11.262,-29.854 -6.392,-28.139L-8.384,-14.941C-16.796,-17.597 -25.732,-18.926 -35.195,-18.926C-49.418,-18.926 -56.528,-14.166 -56.528,-4.648C-56.528,-0.054 -54.481,3.791 -50.386,6.89C-47.729,8.827 -41.864,11.76 -32.788,15.689C-22.44,20.171 -14.97,24.433 -10.376,28.472C-3.459,34.56 0,42.03 0,50.884"
					fill-rule="nonzero" transform="matrix(1,0,0,1,548.021,162.641)"/>
				<path d="M0,108.076L-15.771,108.076C-14.941,90.146 -14.526,71.221 -14.526,51.299C-14.526,31.709 -14.941,14.609 -15.771,0L0,0C-0.775,15.107 -1.162,32.207 -1.162,51.299C-1.162,71.332 -0.775,90.258 0,108.076" fill-rule="nonzero"
							transform="matrix(1,0,0,1,587.616,133.423)"/>
				<path
					d="M0,-0.582C0,-14.859 -3.75,-25.913 -11.247,-33.744C-18.747,-41.574 -27.393,-45.489 -37.188,-45.489C-46.264,-45.489 -54.343,-41.366 -61.426,-33.121C-68.51,-24.875 -72.051,-13.863 -72.051,-0.084C-72.051,14.249 -68.274,25.331 -60.72,33.161C-53.167,40.992 -44.521,44.906 -34.78,44.906C-25.705,44.906 -17.64,40.729 -10.583,32.372C-3.528,24.017 0,13.031 0,-0.582M14.775,-2.491C14.775,15.384 9.546,29.674 -0.913,40.382C-11.372,51.09 -23.464,56.445 -37.188,56.445C-50.358,56.445 -61.911,51.534 -71.843,41.71C-81.777,31.888 -86.743,18.621 -86.743,1.908C-86.743,-16.187 -81.514,-30.534 -71.055,-41.131C-60.596,-51.728 -48.505,-57.027 -34.78,-57.027C-21.61,-57.027 -10.059,-52.116 -0.124,-42.293C9.808,-32.47 14.775,-19.203 14.775,-2.491"
					fill-rule="nonzero" transform="matrix(1,0,0,1,698.183,188.292)"/>
				<path
					d="M0,80.352L-0.498,94.214L-71.719,94.214L-70.972,84.253C-63.999,74.514 -53.845,58.743 -40.508,36.939C-26.176,13.42 -19.009,0.332 -19.009,-2.324L-19.009,-3.237C-31.128,-3.237 -48.311,-2.544 -70.557,-1.162L-70.142,-13.862L-2.407,-13.862L-3.071,-3.569C-9.38,5.341 -19.092,20.974 -32.207,43.331C-45.876,66.573 -52.71,79.356 -52.71,81.68L-52.71,82.593C-41.255,82.593 -23.686,81.846 0,80.352"
					fill-rule="nonzero" transform="matrix(1,0,0,1,801.112,147.284)"/>
				<path
					d="M0,83.008L-0.498,95.542L-67.402,95.542C-66.628,78.388 -66.24,59.462 -66.24,38.765C-66.24,19.286 -66.628,2.187 -67.402,-12.534L-4.648,-12.534L-5.313,-0.166C-20.531,-0.83 -36.662,-1.162 -53.706,-1.162C-53.374,7.416 -53.208,19.009 -53.208,33.618C-38.488,33.618 -25.373,33.286 -13.862,32.622L-13.862,44.99C-26.147,44.492 -39.263,44.243 -53.208,44.243C-53.208,58.466 -52.959,71.802 -52.461,84.253C-34.089,84.253 -16.602,83.838 0,83.008"
					fill-rule="nonzero" transform="matrix(1,0,0,1,892.338,145.956)"/>
				<path d="M0,108.076L-15.771,108.076C-14.941,90.146 -14.526,71.221 -14.526,51.299C-14.526,31.709 -14.941,14.609 -15.771,0L0,0C-0.775,15.107 -1.162,32.207 -1.162,51.299C-1.162,71.332 -0.775,90.258 0,108.076" fill-rule="nonzero"
							transform="matrix(1,0,0,1,929.193,133.423)"/>
				<path
					d="M0,-108.076L-0.415,-96.372C-11.372,-96.925 -22.689,-97.202 -34.365,-97.202C-34.477,-86.577 -34.531,-73.101 -34.531,-56.777C-34.531,-38.736 -34.255,-19.81 -33.701,0L-48.892,0C-48.228,-18.87 -47.896,-37.796 -47.896,-56.777C-47.896,-72.881 -48.062,-86.355 -48.394,-97.202C-56.584,-97.202 -68.095,-96.87 -82.925,-96.206L-82.51,-108.076L0,-108.076Z"
					fill-rule="nonzero" transform="matrix(1,0,0,1,1029.55,241.498)"/>
				<path
					d="M0,6.961C-5.508,-6.797 -8.262,-14.109 -8.262,-14.977L-8.648,-14.977C-8.648,-14.25 -11.496,-6.937 -17.191,6.961L0,6.961ZM13.465,26.367L6.047,26.367C6.047,24.797 4.57,19.863 1.617,11.566L-18.668,11.566C-21.574,19.746 -23.027,24.68 -23.027,26.367L-30.129,26.367C-30.129,25.5 -27.105,18.006 -21.059,3.885C-15.012,-10.236 -11.988,-18 -11.988,-19.406L-3.832,-19.406C-3.832,-18.023 -0.949,-10.371 4.816,3.551C10.582,17.473 13.465,25.078 13.465,26.367"
					fill-rule="nonzero" transform="matrix(1,0,0,1,217.125,301.531)"/>
				<path
					d="M0,34.559L-6.398,34.559C-5.883,28.395 -5.625,21.668 -5.625,14.379C-5.625,10.77 -6.358,8.303 -7.822,6.979C-9.287,5.655 -11.379,4.993 -14.098,4.993C-17.426,4.993 -20.496,6.2 -23.309,8.614C-23.309,16.606 -23.262,25.254 -23.168,34.559L-29.566,34.559C-29.168,26.59 -28.969,20.825 -28.969,17.262C-28.969,11.778 -29.484,6.457 -30.516,1.301L-24.328,0.422L-23.66,4.711L-23.379,4.711C-19.911,1.571 -16.195,0 -12.234,0C-8.344,0 -5.332,0.862 -3.199,2.584C-1.067,4.307 0,7.371 0,11.778C0,12.223 -0.023,13.102 -0.07,14.414C-0.118,15.727 -0.141,16.606 -0.141,17.051C-0.141,20.965 -0.094,26.801 0,34.559"
					fill-rule="nonzero" transform="matrix(1,0,0,1,265.394,293.339)"/>
				<path
					d="M0,34.805C0,27.516 -0.199,20.496 -0.598,13.746C-2.496,12.176 -4.864,11.391 -7.699,11.391C-11.66,11.391 -14.625,12.709 -16.594,15.346C-18.563,17.983 -19.547,21.293 -19.547,25.278C-19.547,28.84 -18.615,31.84 -16.752,34.278C-14.889,36.715 -12.305,37.934 -9,37.934C-4.852,37.934 -1.852,36.891 0,34.805M5.66,41.731L0.422,41.907C0.234,40.899 0.141,39.832 0.141,38.707L-0.246,38.707C-2.707,41.379 -6.363,42.715 -11.215,42.715C-15.668,42.715 -19.213,41.098 -21.85,37.864C-24.486,34.629 -25.805,30.727 -25.805,26.157C-25.805,20.977 -24.34,16.512 -21.41,12.762C-18.48,9.012 -14.356,7.137 -9.035,7.137C-5.238,7.137 -2.52,7.91 -0.879,9.457L-0.598,9.457C-0.598,3.645 -0.762,-2.062 -1.09,-7.664L5.59,-7.91C5.145,-1.957 4.922,5.836 4.922,15.469C4.922,25.266 5.168,34.02 5.66,41.731"
					fill-rule="nonzero" transform="matrix(1,0,0,1,299.25,286.132)"/>
				<path
					d="M0,-32.238L-1.582,-26.648C-3.41,-27.375 -5.11,-27.738 -6.68,-27.738C-11.086,-27.738 -13.945,-25.64 -15.258,-21.445C-15.258,-10.664 -15.188,-3.129 -15.047,1.16L-21.27,1.16C-20.895,-6.269 -20.707,-12.035 -20.707,-16.136C-20.707,-21.691 -21.258,-27.011 -22.359,-32.097L-16.207,-32.976C-15.762,-30.398 -15.539,-28.675 -15.539,-27.808L-15.258,-27.808C-12.727,-31.535 -9.773,-33.398 -6.398,-33.398C-4.618,-33.398 -2.484,-33.011 0,-32.238"
					fill-rule="nonzero" transform="matrix(1,0,0,1,335.461,326.738)"/>
				<path
					d="M0,-7.137C0,-13.723 -2.754,-17.016 -8.262,-17.016C-13.887,-17.016 -17.204,-13.594 -18.211,-6.75L0,-7.137ZM5.871,-7.207C5.871,-6.223 5.824,-4.864 5.73,-3.129L-18.422,-2.707C-18.188,0.715 -16.863,3.58 -14.449,5.888C-12.036,8.197 -8.836,9.351 -4.852,9.351C-1.289,9.351 2.051,8.918 5.168,8.051L4.57,13.008C2.273,13.922 -1.043,14.379 -5.379,14.379C-11.473,14.379 -16.119,12.715 -19.318,9.386C-22.518,6.058 -24.117,2.004 -24.117,-2.778C-24.117,-7.887 -22.658,-12.287 -19.74,-15.979C-16.822,-19.67 -12.902,-21.516 -7.98,-21.516C-3.458,-21.516 -0.018,-20.18 2.338,-17.508C4.693,-14.836 5.871,-11.403 5.871,-7.207"
					fill-rule="nonzero" transform="matrix(1,0,0,1,362.707,314.469)"/>
				<path
					d="M0,20.039C-0.117,16.476 -0.176,13.277 -0.176,10.441C-4.582,10.441 -7.934,10.769 -10.23,11.426C-14.074,12.598 -15.996,14.836 -15.996,18.141C-15.996,21.328 -13.746,22.922 -9.246,22.922C-5.379,22.922 -2.297,21.961 0,20.039M6.223,26.859L0.703,27.07C0.422,25.922 0.281,24.832 0.281,23.801L-0.07,23.801C-2.953,26.426 -6.879,27.738 -11.848,27.738C-14.543,27.738 -16.863,26.947 -18.809,25.365C-20.754,23.783 -21.727,21.527 -21.727,18.598C-21.727,14.988 -20.203,12.088 -17.156,9.896C-14.109,7.705 -8.449,6.551 -0.176,6.434C-0.105,5.871 -0.07,5.226 -0.07,4.5C-0.07,1.617 -0.838,-0.305 -2.373,-1.266C-3.908,-2.227 -6.234,-2.707 -9.352,-2.707C-13.031,-2.707 -16.652,-2.25 -20.215,-1.336L-19.617,-6.188C-16.102,-7.195 -12.059,-7.699 -7.488,-7.699C-3.316,-7.699 -0.094,-6.838 2.18,-5.115C4.453,-3.393 5.59,-0.457 5.59,3.691C5.59,4.793 5.537,6.791 5.432,9.685C5.326,12.58 5.273,14.508 5.273,15.469C5.273,19.734 5.59,23.531 6.223,26.859"
					fill-rule="nonzero" transform="matrix(1,0,0,1,396.879,301.039)"/>
				<path
					d="M0,-19.969C0,-25.547 -3.773,-28.336 -11.32,-28.336C-14.016,-28.336 -16.277,-28.184 -18.105,-27.879C-17.941,-23.801 -17.859,-18.258 -17.859,-11.25C-16.453,-11.203 -15.105,-11.18 -13.816,-11.18C-4.605,-11.18 0,-14.11 0,-19.969M10.758,13.008L3.973,13.008C1.723,6.281 0.082,1.828 -0.949,-0.352C-2.262,-3.094 -3.75,-4.864 -5.414,-5.66C-6.727,-6.293 -9.082,-6.61 -12.48,-6.61C-14.473,-6.61 -16.242,-6.586 -17.789,-6.539C-17.789,1.031 -17.648,7.547 -17.367,13.008L-23.906,13.008C-23.555,5.742 -23.379,-2.274 -23.379,-11.039C-23.379,-19.289 -23.555,-26.532 -23.906,-32.766L-18.949,-32.766C-17.895,-32.766 -16.559,-32.801 -14.941,-32.871C-13.324,-32.942 -11.473,-32.977 -9.387,-32.977C0.879,-32.977 6.012,-29.438 6.012,-22.36C6.012,-16.477 3.129,-12.34 -2.637,-9.949L-2.637,-9.598C-0.059,-8.824 2.027,-7.031 3.621,-4.219C4.957,-1.875 7.336,3.867 10.758,13.008"
					fill-rule="nonzero" transform="matrix(1,0,0,1,453.516,314.891)"/>
				<path
					d="M0,-7.137C0,-13.723 -2.754,-17.016 -8.262,-17.016C-13.887,-17.016 -17.203,-13.594 -18.211,-6.75L0,-7.137ZM5.871,-7.207C5.871,-6.223 5.824,-4.864 5.73,-3.129L-18.422,-2.707C-18.188,0.715 -16.863,3.58 -14.449,5.888C-12.035,8.197 -8.836,9.351 -4.852,9.351C-1.289,9.351 2.051,8.918 5.168,8.051L4.57,13.008C2.273,13.922 -1.043,14.379 -5.379,14.379C-11.473,14.379 -16.119,12.715 -19.318,9.386C-22.518,6.058 -24.117,2.004 -24.117,-2.778C-24.117,-7.887 -22.658,-12.287 -19.74,-15.979C-16.822,-19.67 -12.902,-21.516 -7.98,-21.516C-3.457,-21.516 -0.018,-20.18 2.338,-17.508C4.693,-14.836 5.871,-11.403 5.871,-7.207"
					fill-rule="nonzero" transform="matrix(1,0,0,1,494.191,314.469)"/>
				<path
					d="M0,-40.113C0,-38.918 -0.387,-37.881 -1.16,-37.002C-1.934,-36.123 -3.023,-35.683 -4.43,-35.683C-5.625,-35.683 -6.557,-36.064 -7.225,-36.826C-7.893,-37.588 -8.227,-38.508 -8.227,-39.586C-8.227,-40.758 -7.828,-41.777 -7.031,-42.644C-6.234,-43.511 -5.133,-43.945 -3.727,-43.945C-2.578,-43.945 -1.67,-43.564 -1.002,-42.802C-0.334,-42.041 0,-41.144 0,-40.113M-1.477,3.832L-7.84,3.832C-7.512,-0.855 -7.348,-6.211 -7.348,-12.234C-7.348,-19.008 -7.758,-24.691 -8.578,-29.285L-1.547,-30.234C-1.828,-25.336 -1.969,-19.336 -1.969,-12.234C-1.969,-6.609 -1.805,-1.254 -1.477,3.832"
					fill-rule="nonzero" transform="matrix(1,0,0,1,516.023,324.066)"/>
				<path
					d="M0,34.559L-6.398,34.559C-5.883,28.395 -5.625,21.668 -5.625,14.379C-5.625,10.77 -6.357,8.303 -7.822,6.979C-9.287,5.655 -11.379,4.993 -14.098,4.993C-17.426,4.993 -20.496,6.2 -23.309,8.614C-23.309,16.606 -23.262,25.254 -23.168,34.559L-29.566,34.559C-29.168,26.59 -28.969,20.825 -28.969,17.262C-28.969,11.778 -29.484,6.457 -30.516,1.301L-24.328,0.422L-23.66,4.711L-23.379,4.711C-19.91,1.571 -16.195,0 -12.234,0C-8.344,0 -5.332,0.862 -3.199,2.584C-1.066,4.307 0,7.371 0,11.778C0,12.223 -0.023,13.102 -0.07,14.414C-0.117,15.727 -0.141,16.606 -0.141,17.051C-0.141,20.965 -0.094,26.801 0,34.559"
					fill-rule="nonzero" transform="matrix(1,0,0,1,553.641,293.339)"/>
				<path
					d="M0,34.805C0,27.516 -0.199,20.496 -0.598,13.746C-2.496,12.176 -4.863,11.391 -7.699,11.391C-11.66,11.391 -14.625,12.709 -16.594,15.346C-18.563,17.983 -19.547,21.293 -19.547,25.278C-19.547,28.84 -18.615,31.84 -16.752,34.278C-14.889,36.715 -12.305,37.934 -9,37.934C-4.852,37.934 -1.852,36.891 0,34.805M5.66,41.731L0.422,41.907C0.234,40.899 0.141,39.832 0.141,38.707L-0.246,38.707C-2.707,41.379 -6.363,42.715 -11.215,42.715C-15.668,42.715 -19.213,41.098 -21.85,37.864C-24.486,34.629 -25.805,30.727 -25.805,26.157C-25.805,20.977 -24.34,16.512 -21.41,12.762C-18.48,9.012 -14.355,7.137 -9.035,7.137C-5.238,7.137 -2.52,7.91 -0.879,9.457L-0.598,9.457C-0.598,3.645 -0.762,-2.062 -1.09,-7.664L5.59,-7.91C5.145,-1.957 4.922,5.836 4.922,15.469C4.922,25.266 5.168,34.02 5.66,41.731"
					fill-rule="nonzero" transform="matrix(1,0,0,1,587.496,286.132)"/>
				<path d="M0,49.816L-6.75,49.816C-6.328,42.082 -6.117,33.339 -6.117,23.589C-6.117,14.121 -6.457,6.375 -7.137,0.351L0,0C-0.445,6.375 -0.668,14.238 -0.668,23.589C-0.668,33.222 -0.445,41.964 0,49.816" fill-rule="nonzero"
							transform="matrix(1,0,0,1,609.258,278.082)"/>
				<path
					d="M0,-6.152C0,-9.902 -0.65,-12.381 -1.951,-13.588C-3.252,-14.795 -5.391,-15.398 -8.367,-15.398C-10.875,-15.398 -13.465,-14.168 -16.137,-11.707C-16.23,-8.847 -16.277,-6.047 -16.277,-3.304C-16.277,0.61 -16.207,6.446 -16.066,14.203L-22.465,14.203C-21.949,7.524 -21.691,0.739 -21.691,-6.152C-21.691,-9.902 -22.342,-12.381 -23.643,-13.588C-24.943,-14.795 -27.023,-15.398 -29.883,-15.398C-32.813,-15.398 -35.555,-14.168 -38.109,-11.707C-38.109,-4.277 -38.063,4.36 -37.969,14.203L-44.367,14.203C-43.922,6.235 -43.699,0.469 -43.699,-3.093C-43.699,-8.507 -44.227,-13.828 -45.281,-19.054L-39.094,-19.933L-38.461,-15.679L-38.109,-15.679C-35.063,-18.797 -31.676,-20.355 -27.949,-20.355C-22.395,-20.355 -18.82,-18.797 -17.227,-15.679L-16.84,-15.679C-13.301,-18.797 -9.809,-20.355 -6.363,-20.355C-2.426,-20.355 0.551,-19.488 2.566,-17.754C4.582,-16.019 5.59,-12.961 5.59,-8.578C5.59,-8.132 5.566,-7.254 5.52,-5.941C5.473,-4.629 5.449,-3.75 5.449,-3.304C5.449,0.61 5.496,6.446 5.59,14.203L-0.809,14.203C-0.27,8.063 0,1.278 0,-6.152"
					fill-rule="nonzero" transform="matrix(1,0,0,1,663.117,313.695)"/>
				<path
					d="M0,-7.137C0,-13.723 -2.754,-17.016 -8.262,-17.016C-13.887,-17.016 -17.203,-13.594 -18.211,-6.75L0,-7.137ZM5.871,-7.207C5.871,-6.223 5.824,-4.864 5.73,-3.129L-18.422,-2.707C-18.188,0.715 -16.863,3.58 -14.449,5.888C-12.035,8.197 -8.836,9.351 -4.852,9.351C-1.289,9.351 2.051,8.918 5.168,8.051L4.57,13.008C2.273,13.922 -1.043,14.379 -5.379,14.379C-11.473,14.379 -16.119,12.715 -19.318,9.386C-22.518,6.058 -24.117,2.004 -24.117,-2.778C-24.117,-7.887 -22.658,-12.287 -19.74,-15.979C-16.822,-19.67 -12.902,-21.516 -7.98,-21.516C-3.457,-21.516 -0.018,-20.18 2.338,-17.508C4.693,-14.836 5.871,-11.403 5.871,-7.207"
					fill-rule="nonzero" transform="matrix(1,0,0,1,700.875,314.469)"/>
				<path
					d="M0,-40.113C0,-38.918 -0.387,-37.881 -1.16,-37.002C-1.934,-36.123 -3.023,-35.683 -4.43,-35.683C-5.625,-35.683 -6.557,-36.064 -7.225,-36.826C-7.893,-37.588 -8.227,-38.508 -8.227,-39.586C-8.227,-40.758 -7.828,-41.777 -7.031,-42.644C-6.234,-43.511 -5.133,-43.945 -3.727,-43.945C-2.578,-43.945 -1.67,-43.564 -1.002,-42.802C-0.334,-42.041 0,-41.144 0,-40.113M-1.477,3.832L-7.84,3.832C-7.512,-0.855 -7.348,-6.211 -7.348,-12.234C-7.348,-19.008 -7.758,-24.691 -8.578,-29.285L-1.547,-30.234C-1.828,-25.336 -1.969,-19.336 -1.969,-12.234C-1.969,-6.609 -1.805,-1.254 -1.477,3.832"
					fill-rule="nonzero" transform="matrix(1,0,0,1,722.707,324.066)"/>
				<path
					d="M0,-7.137C0,-13.723 -2.754,-17.016 -8.262,-17.016C-13.887,-17.016 -17.203,-13.594 -18.211,-6.75L0,-7.137ZM5.871,-7.207C5.871,-6.223 5.824,-4.864 5.73,-3.129L-18.422,-2.707C-18.188,0.715 -16.863,3.58 -14.449,5.888C-12.035,8.197 -8.836,9.351 -4.852,9.351C-1.289,9.351 2.051,8.918 5.168,8.051L4.57,13.008C2.273,13.922 -1.043,14.379 -5.379,14.379C-11.473,14.379 -16.119,12.715 -19.318,9.386C-22.518,6.058 -24.117,2.004 -24.117,-2.778C-24.117,-7.887 -22.658,-12.287 -19.74,-15.979C-16.822,-19.67 -12.902,-21.516 -7.98,-21.516C-3.457,-21.516 -0.018,-20.18 2.338,-17.508C4.693,-14.836 5.871,-11.403 5.871,-7.207"
					fill-rule="nonzero" transform="matrix(1,0,0,1,753.504,314.469)"/>
				<path
					d="M0,-32.238L-1.582,-26.648C-3.41,-27.375 -5.109,-27.738 -6.68,-27.738C-11.086,-27.738 -13.945,-25.64 -15.258,-21.445C-15.258,-10.664 -15.188,-3.129 -15.047,1.16L-21.27,1.16C-20.895,-6.269 -20.707,-12.035 -20.707,-16.136C-20.707,-21.691 -21.258,-27.011 -22.359,-32.097L-16.207,-32.976C-15.762,-30.398 -15.539,-28.675 -15.539,-27.808L-15.258,-27.808C-12.727,-31.535 -9.773,-33.398 -6.398,-33.398C-4.617,-33.398 -2.484,-33.011 0,-32.238"
					fill-rule="nonzero" transform="matrix(1,0,0,1,788.731,326.738)"/>
			</g>
		</g>
	</g>
</svg>