<?xml version="1.0" encoding="UTF-8" standalone="no"?><!DOCTYPE svg PUBLIC "-//W3C//DTD SVG 1.1//EN" "http://www.w3.org/Graphics/SVG/1.1/DTD/svg11.dtd"><svg width="100%" height="100%" viewBox="0 0 234 70" version="1.1" xmlns="http://www.w3.org/2000/svg" xmlns:xlink="http://www.w3.org/1999/xlink" xml:space="preserve" xmlns:serif="http://www.serif.com/" style="fill-rule:evenodd;clip-rule:evenodd;stroke-linejoin:round;stroke-miterlimit:2;"><clipPath id="_clip1"><rect id="JobRad" x="0" y="0" width="233.845" height="69.386"/></clipPath><g clip-path="url(#_clip1)"><g id="Ebene_2-2"><path d="M32.957,49.24c2.854,-13.94 7.647,-19.695 19.754,-19.695c11.185,0 16.668,6.167 13.867,19.695c-2.855,14.039 -7.873,20.146 -20.113,20.146c-11.052,0 -16.362,-6.393 -13.508,-20.146Zm23.292,0c1.826,-8.63 -0.079,-11.165 -4.414,-11.165c-4.799,0 -6.717,2.542 -8.629,11.165c-1.885,9.074 0.113,11.417 4.454,11.417c4.819,0 6.644,-2.343 8.589,-11.417Z" style="fill:#4c8b2b;fill-rule:nonzero;"/><path d="M77.829,30.342l11.417,0c10.163,0 13.362,3.485 12.108,10.275c-0.553,3.776 -3.379,6.845 -7.096,7.707c3.372,0.663 5.881,3.372 4.852,8.735c-1.48,7.361 -6.107,11.53 -14.955,11.53l-14.258,0c-1.487,0 -1.939,-0.398 -1.6,-1.938l7.302,-34.364c0.351,-1.547 0.736,-1.945 2.23,-1.945Zm3.465,22.15l-1.766,8.278l4.846,0c3.027,0 4.454,-1.428 4.965,-4.222c0.518,-2.655 -0.564,-4.056 -3.823,-4.056l-4.222,0Zm3.007,-14.384l-1.713,8.218l3.598,0c3.133,0 4.793,-1.368 5.363,-4.169c0.571,-2.801 -0.458,-4.049 -3.425,-4.049l-3.823,0Z" style="fill:#4c8b2b;fill-rule:nonzero;"/><path d="M114.974,30.342l12.161,0c9.472,0 13.468,3.823 11.815,12.386c-1.082,5.881 -3.71,9.592 -8.39,11.284l3.366,10.734c0.308,0.96 0.482,1.959 0.517,2.967c-0.093,0.743 -0.664,0.856 -1.991,0.856l-6.28,0c-1.327,0 -1.991,-0.398 -2.343,-1.766l-2.462,-11.709l-3.319,0l-2.45,11.53c-0.345,1.54 -0.743,1.938 -2.23,1.938l-6.332,0c-1.54,0 -1.945,-0.398 -1.6,-1.938l7.301,-34.364c0.352,-1.52 0.77,-1.918 2.237,-1.918Zm6.638,7.866l-1.991,9.545l3.803,0c3.253,0 5.058,-1.427 5.689,-4.793c0.631,-3.365 -0.783,-4.752 -3.803,-4.752l-3.698,0Z" style="fill:#4c8b2b;fill-rule:nonzero;"/><path d="M146.245,68.589l-7.879,0c-1.022,0 -1.254,-0.345 -1.195,-0.856c0.06,-0.511 0.173,-0.797 0.91,-2.224l17.358,-33.189c0.909,-1.713 1.254,-1.945 2.655,-1.945l9.366,0c1.427,0 1.938,0.172 2.111,1.945l2.874,32.731c0.12,1.255 0.173,1.54 0.173,1.885c0,1.142 -0.571,1.653 -1.992,1.653l-6.565,0c-1.48,0 -1.938,-0.345 -1.991,-1.938l-0.226,-6.167l-10.348,0l-2.854,6.22c-0.737,1.712 -0.969,1.885 -2.397,1.885Zm15.394,-15.639l-0.571,-13.488l-0.067,-1.049l-0.418,1.036l-5.974,13.501l7.03,0Z" style="fill:#4c8b2b;fill-rule:nonzero;"/><path d="M186.053,30.342l10.56,0c11.949,0 17.126,5.084 14.332,18.951c-2.968,14.603 -7.594,19.296 -20.664,19.296l-12.161,0c-1.54,0 -1.938,-0.398 -1.599,-1.938l7.348,-34.364c0.305,-1.547 0.703,-1.945 2.184,-1.945Zm6.445,8.397l-4.454,21.241l2.602,0c6.114,0 8.47,-2.848 10.123,-10.959c1.712,-8.271 -0.299,-10.309 -6.353,-10.309l-1.918,0.027Z" style="fill:#4c8b2b;fill-rule:nonzero;"/><path d="M168.33,6.638c16.185,-0.026 32.188,3.436 46.916,10.149c5.197,2.164 9.054,4.54 18.174,3.512c0.339,0 0.392,-0.299 0.425,-0.478c0.033,-0.18 -0.172,-0.332 -0.292,-0.405c-39.466,-25.775 -90.663,-25.841 -130.195,-0.166c-0.206,0.133 -0.763,0.524 -0.664,0.763c0.1,0.239 0.438,0.286 0.545,0.292c9.127,0.976 12.983,-1.327 18.174,-3.511c14.728,-6.715 30.73,-10.179 46.917,-10.156Z" style="fill:#76b72a;fill-rule:nonzero;"/><path d="M22.104,30.063l-10.123,0c-1.533,0 -1.818,0.325 -2.21,1.931l-1.095,4.647c-0.339,1.447 0.113,1.932 1.593,1.932l9.034,-0.04l0.166,0l1.726,-7.76c0.101,-0.417 0.479,-0.713 0.909,-0.71Z" style="fill:#ba3159;fill-rule:nonzero;"/><path d="M29.406,30.063l-7.302,0c-0.435,-0.001 -0.816,0.305 -0.909,0.73l-1.726,7.76l6.532,0.04c2.076,0.011 3.892,-1.448 4.327,-3.479l0.664,-3.12c0.345,-1.533 -0.113,-1.931 -1.586,-1.931Z" style="fill:#4c8a33;fill-rule:nonzero;"/><path d="M29.406,30.063l-7.302,0c-0.435,-0.001 -0.816,0.305 -0.909,0.73l-1.726,7.76l6.532,0.04c2.076,0.011 3.892,-1.448 4.327,-3.479l0.664,-3.12c0.345,-1.533 -0.113,-1.931 -1.586,-1.931Z" style="fill:#3f4e55;fill-rule:nonzero;"/><path d="M18.46,43.266l-0.007,0.053l0.007,-0.053Z" style="fill:#75b62d;fill-rule:nonzero;"/><path d="M30.992,31.994l-0.664,3.12l0,0.08l0.339,-1.587l-0.359,1.574c-0.463,1.993 -2.261,3.411 -4.307,3.398l-6.532,-0.04l-0.06,0.279l-0.949,4.434l0,0.053l-0.266,1.222l-0.073,0.338l0,0.053l-2.057,9.585c-0.024,0.11 -0.024,0.223 0,0.332c0.109,0.146 0.291,0.22 0.471,0.193c4.839,-0.378 9.598,-2.376 11.371,-8.497l0.338,-1.573l2.748,-12.964Z" style="fill:#76b72a;fill-rule:nonzero;"/><path d="M26.14,54.138c-0.08,-0.358 -0.398,-0.059 -0.531,0.093c-0.432,0.492 -0.77,1.062 -1.215,1.547c-0.82,0.891 -1.785,1.636 -2.854,2.204c-2.062,1.028 -4.302,1.65 -6.598,1.832l-0.067,0.298l-0.471,2.184l-0.664,3.12c-0.435,2.031 -2.251,3.49 -4.328,3.478c-0.471,0 -0.935,0 -1.4,-0.033c1.069,0.053 2.131,0.073 3.193,0.033c0.338,0 0.663,0 1.009,-0.046c2.225,-0.07 4.415,-0.568 6.452,-1.467c4.52,-2.177 6.233,-7.176 7.301,-11.742c0.16,-0.483 0.218,-0.994 0.173,-1.501Z" style="fill:#76b72a;fill-rule:nonzero;"/><path d="M14.384,59.867c-1.894,0.163 -3.796,0.208 -5.695,0.133c-0.797,0 -1.593,-0.06 -2.39,-0.107c-1.108,-0.066 -2.217,-0.152 -3.319,-0.252c-1.101,-0.099 -1.473,0.664 -1.719,1.52c-0.451,1.62 -0.823,3.273 -1.168,4.926c-0.166,0.803 -0.206,1.579 0.704,1.918c0.478,0.144 0.969,0.242 1.467,0.292c0.557,0.086 1.108,0.153 1.666,0.219c0.557,0.066 1.261,0.139 1.891,0.193c0.731,0.066 1.461,0.119 2.191,0.152c0.465,0 0.929,0.04 1.4,0.033c2.077,0.012 3.893,-1.447 4.328,-3.478l0.664,-3.12l0.471,-2.184l0.067,-0.298l-0.558,0.053Z" style="fill:#4c8b2b;fill-rule:nonzero;"/><path d="M221.426,33.488l0,1.328l0.664,0c0.663,0 0.922,-0.2 0.922,-0.664c0,-0.465 -0.219,-0.664 -0.949,-0.664l-0.637,0Zm-0.664,-0.664l1.606,0c0.983,0 1.487,0.359 1.487,1.255c0.053,0.552 -0.292,1.071 -0.823,1.234l0.85,1.527c0.028,0.049 0.046,0.103 0.053,0.159c0,0.047 0,0.073 -0.1,0.073l-0.544,0c-0.097,0.018 -0.194,-0.035 -0.232,-0.126l-0.777,-1.56l-0.823,0l0,1.574c0,0.086 0,0.112 -0.1,0.112l-0.59,0c-0.087,0 -0.12,0 -0.12,-0.112l0,-3.983c0,-0.073 0.033,-0.1 0.12,-0.1m5.356,2.105c0,-2.928 -1.506,-4.182 -4.015,-4.182c-2.324,0 -3.91,1.254 -3.91,4.182c0,2.821 1.586,4.161 3.896,4.161c2.523,0 4.029,-1.327 4.029,-4.161m-8.861,0c0,-3.213 1.759,-4.986 4.832,-4.986c3.253,0 4.985,1.773 4.985,4.986c0,3.099 -1.732,4.985 -5.005,4.985c-3.053,0 -4.812,-1.886 -4.812,-4.985" style="fill:#4c8b2b;fill-rule:nonzero;"/><path d="M221.426,33.488l0,1.328l0.664,0c0.663,0 0.922,-0.2 0.922,-0.664c0,-0.465 -0.219,-0.664 -0.949,-0.664l-0.637,0Zm-0.664,-0.664l1.606,0c0.983,0 1.487,0.359 1.487,1.255c0.053,0.552 -0.292,1.071 -0.823,1.234l0.85,1.527c0.028,0.049 0.046,0.103 0.053,0.159c0,0.047 0,0.073 -0.1,0.073l-0.544,0c-0.097,0.018 -0.194,-0.035 -0.232,-0.126l-0.777,-1.56l-0.823,0l0,1.574c0,0.086 0,0.112 -0.1,0.112l-0.59,0c-0.087,0 -0.12,0 -0.12,-0.112l0,-3.983c0,-0.073 0.033,-0.1 0.12,-0.1m5.356,2.105c0,-2.928 -1.506,-4.182 -4.015,-4.182c-2.324,0 -3.91,1.254 -3.91,4.182c0,2.821 1.586,4.161 3.896,4.161c2.523,0 4.029,-1.327 4.029,-4.161m-8.861,0c0,-3.213 1.759,-4.986 4.832,-4.986c3.253,0 4.985,1.773 4.985,4.986c0,3.099 -1.732,4.985 -5.005,4.985c-3.053,0 -4.812,-1.886 -4.812,-4.985" style="fill:#4c8b33;fill-rule:nonzero;"/></g></g></svg>