<svg viewBox="0 0 192 66" xmlns="http://www.w3.org/2000/svg" xml:space="preserve" xmlns:serif="http://www.serif.com/" fill-rule="evenodd" clip-rule="evenodd" stroke-linejoin="round" stroke-miterlimit="2"><g transform="matrix(1,0,0,1,-300.093,-17.9636)">
	<g id="Logo" transform="matrix(0.0673414,0,0,0.0673414,281.826,4.35866)"><g transform="matrix(0.863521,0,0,0.863521,37.0217,85.0891)"><path d="M0,-396.516C-3.983,-388.495 -7.431,-380.306 -10.318,-371.986C-13.182,-363.657 -15.465,-355.19 -17.099,-346.635C-20.397,-329.529 -21.234,-312.13 -19.959,-294.915C-18.659,-277.7 -15.416,-260.648 -10.501,-244.077C-8.108,-235.772 -5.228,-227.606 -2.047,-219.575C1.113,-211.549 4.751,-203.66 8.676,-196.151C9.167,-195.224 9.672,-194.293 10.159,-193.434L10.63,-192.603L11.14,-191.636L11.982,-189.937C13.054,-187.703 14.006,-185.495 14.899,-183.267C16.688,-178.819 18.183,-174.307 19.444,-169.738C21.973,-160.608 23.662,-151.273 24.369,-141.858C25.908,-123.041 23.591,-103.975 17.923,-86.172C12.225,-68.352 3.204,-51.871 -7.946,-37.373C-19.115,-22.864 -32.283,-10.195 -46.704,0.53L-47.375,-0.212C-35.321,-13.448 -24.248,-27.363 -15.237,-42.36C-6.209,-57.317 0.771,-73.304 4.8,-89.891C6.865,-98.166 8.118,-106.594 8.704,-115.033C8.984,-119.253 9.065,-123.483 8.954,-127.702C8.87,-131.921 8.588,-136.133 8.114,-140.321C7.137,-148.689 5.506,-156.985 3.087,-165.019C1.871,-169.031 0.486,-172.986 -1.066,-176.822C-1.847,-178.733 -2.68,-180.621 -3.554,-182.408L-4.208,-183.704L-4.481,-184.218L-4.842,-184.841C-5.463,-185.919 -6.03,-186.949 -6.592,-187.991C-8.832,-192.132 -10.845,-196.299 -12.736,-200.526C-14.63,-204.745 -16.404,-209.007 -18.069,-213.309C-21.393,-221.914 -24.178,-230.714 -26.56,-239.623C-31.186,-257.468 -33.932,-275.883 -33.999,-294.379C-34.107,-312.851 -31.587,-331.394 -26.021,-348.914C-20.47,-366.421 -11.971,-382.883 -0.848,-397.046L0,-396.516Z" class="logo--color-primary" fill-rule="nonzero" transform="matrix(2.8411,0,0,2.8411,492.915,1267.95)"/><path
		d="M0,-1.584C2.228,4.657 -1.025,11.523 -7.267,13.752L-17.352,17.352C-23.593,19.58 -30.46,16.325 -32.688,10.084L-36.287,-0C-38.515,-6.242 -35.262,-13.107 -29.02,-15.336L-18.935,-18.936C-12.693,-21.164 -5.828,-17.91 -3.6,-11.668L0,-1.584Z"
		class="logo--color-primary" fill-rule="nonzero" transform="matrix(2.8411,0,0,2.8411,408.215,688.302)"/><path
		d="M0,-1.261C1.777,3.718 -0.819,9.195 -5.799,10.972L-13.843,13.843C-18.822,15.62 -24.299,13.023 -26.076,8.045L-28.947,0.001C-30.724,-4.981 -28.128,-10.456 -23.148,-12.234L-15.104,-15.104C-10.125,-16.881 -4.648,-14.285 -2.87,-9.305L0,-1.261Z"
		fill="#6ec6ce" fill-rule="nonzero" transform="matrix(2.8411,0,0,2.8411,436.185,790.682)"/><path
		d="M0,1.527C1.29,6.653 -1.819,11.855 -6.946,13.146L-15.229,15.231C-20.356,16.521 -25.559,13.411 -26.849,8.285L-28.934,0.003C-30.225,-5.126 -27.115,-10.327 -21.988,-11.619L-13.705,-13.703C-8.578,-14.994 -3.376,-11.884 -2.085,-6.756L0,1.527Z"
		fill="#6ec6ce" fill-rule="nonzero" transform="matrix(2.8411,0,0,2.8411,467.837,887.299)"/><path
		d="M0,8.542C0,13.828 -4.285,18.114 -9.572,18.114L-18.114,18.114C-23.401,18.114 -27.687,13.828 -27.687,8.542L-27.687,0.001C-27.687,-5.287 -23.401,-9.572 -18.114,-9.572L-9.572,-9.572C-4.285,-9.572 0,-5.287 0,0.001L0,8.542Z" fill="#6ec6ce"
		fill-rule="nonzero" transform="matrix(2.8411,0,0,2.8411,349.925,463.694)"/><path
		d="M0,3.005C1.026,8.191 -2.345,13.227 -7.532,14.254L-15.911,15.911C-21.098,16.938 -26.133,13.565 -27.16,8.38L-28.817,0.001C-29.844,-5.187 -26.472,-10.222 -21.285,-11.248L-12.906,-12.906C-7.719,-13.933 -2.684,-10.561 -1.657,-5.373L0,3.005Z"
		fill="#6ec6ce" fill-rule="nonzero" transform="matrix(2.8411,0,0,2.8411,364.078,572.827)"/><path
		d="M0,9.353C-0.472,13.609 -4.306,16.678 -8.563,16.206L-15.441,15.442C-19.699,14.969 -22.767,11.135 -22.295,6.879L-21.532,0.001C-21.059,-4.257 -17.225,-7.325 -12.968,-6.853L-6.089,-6.089C-1.832,-5.617 1.236,-1.784 0.763,2.475L0,9.353Z"
		fill="#6ec6ce" fill-rule="nonzero" transform="matrix(2.8411,0,0,2.8411,465.312,976.436)"/><path
		d="M0,12.438C-1.247,16.097 -5.222,18.052 -8.881,16.805L-14.792,14.792C-18.45,13.545 -20.406,9.569 -19.159,5.911L-17.146,0C-15.899,-3.659 -11.923,-5.614 -8.264,-4.367L-2.353,-2.353C1.306,-1.107 3.261,2.87 2.014,6.528L0,12.438Z" fill="#6ec6ce"
		fill-rule="nonzero" transform="matrix(2.8411,0,0,2.8411,438.851,1056.2)"/><path
		d="M0,13.132C-1.828,15.338 -5.097,15.645 -7.302,13.818L-10.866,10.864C-13.071,9.037 -13.378,5.768 -11.55,3.563L-8.599,-0.001C-6.771,-2.206 -3.502,-2.513 -1.296,-0.685L2.267,2.268C4.473,4.095 4.779,7.363 2.952,9.569L0,13.132Z" fill="#6ec6ce"
		fill-rule="nonzero" transform="matrix(2.8411,0,0,2.8411,344.118,1190.37)"/><path
		d="M0,14.773C-1.953,17.588 -5.817,18.287 -8.632,16.334L-13.18,13.178C-15.995,11.226 -16.694,7.361 -14.741,4.546L-11.586,0C-9.633,-2.816 -5.769,-3.514 -2.954,-1.561L1.595,1.594C4.409,3.547 5.108,7.412 3.154,10.227L0,14.773Z" fill="#6ec6ce"
		fill-rule="nonzero" transform="matrix(2.8411,0,0,2.8411,395.978,1126.47)"/><path
		d="M0,10.581C-0.717,14.803 -4.721,17.645 -8.944,16.928L-15.767,15.769C-19.99,15.051 -22.832,11.046 -22.115,6.824L-20.956,0.002C-20.238,-4.223 -16.233,-7.064 -12.01,-6.346L-5.187,-5.187C-0.964,-4.47 1.877,-0.466 1.159,3.759L0,10.581Z" fill="#6ec6ce"
		fill-rule="nonzero" transform="matrix(2.8411,0,0,2.8411,343.205,363.703)"/><path
		d="M0,11.31C-1.008,15.041 -4.85,17.248 -8.582,16.239L-14.609,14.61C-18.341,13.602 -20.549,9.76 -19.541,6.029L-17.911,-0C-16.903,-3.731 -13.061,-5.938 -9.329,-4.929L-3.301,-3.3C0.431,-2.292 2.638,1.551 1.629,5.282L0,11.31Z" fill="#6ec6ce"
		fill-rule="nonzero" transform="matrix(2.8411,0,0,2.8411,355.329,281.586)"/><path
		d="M0,12.699C-1.718,14.991 -4.969,15.456 -7.26,13.739L-10.963,10.963C-13.255,9.245 -13.72,5.994 -12.002,3.703L-9.227,0C-7.51,-2.292 -4.259,-2.757 -1.968,-1.039L1.736,1.737C4.027,3.455 4.493,6.705 2.775,8.996L0,12.699Z" fill="#6ec6ce"
		fill-rule="nonzero" transform="matrix(2.8411,0,0,2.8411,406.834,141.321)"/><path
		d="M0,13.182C-1.579,16.222 -5.323,17.406 -8.363,15.827L-13.275,13.275C-16.315,11.696 -17.5,7.953 -15.921,4.912L-13.37,0.001C-11.791,-3.04 -8.046,-4.224 -5.006,-2.645L-0.094,-0.093C2.947,1.486 4.131,5.23 2.551,8.271L0,13.182Z" fill="#6ec6ce"
		fill-rule="nonzero" transform="matrix(2.8411,0,0,2.8411,374.363,204.503)"/></g><g class="logo--title" transform="matrix(2.8411,0,0,2.8411,186.864,162.456)"><path d="M0,-44.326C0,-58.548 -9.712,-65.659 -29.136,-65.659C-33.896,-65.659 -39.235,-65.244 -45.156,-64.414C-44.77,-55.393 -44.575,-41.338 -44.575,-22.246C-42.639,-22.135 -40.259,-22.08 -37.437,-22.08C-12.479,-22.08 0,-29.495 0,-44.326M13.862,-49.14C13.862,-36.523 9.075,-27.088 -0.498,-20.835C-10.072,-14.581 -22.938,-11.455 -39.097,-11.455C-41.145,-11.455 -42.915,-11.51 -44.409,-11.621C-44.409,0.444 -43.967,15.025 -43.081,32.124L-59.019,32.124C-58.188,16.408 -57.773,-2.517 -57.773,-24.653C-57.773,-43.689 -58.188,-60.789 -59.019,-75.952L-47.148,-75.952C-45.876,-75.952 -42.238,-76.035 -36.233,-76.201C-30.229,-76.367 -25.124,-76.45 -20.918,-76.45C-10.293,-76.45 -1.84,-74.029 4.441,-69.187C10.721,-64.344 13.862,-57.662 13.862,-49.14" fill-rule="nonzero" transform="matrix(1,0,0,1,245.624,209.374)"/>
		<path
			d="M0,108.076L-15.771,108.076C-15.219,88.93 -14.941,71.774 -14.941,56.611L-64.663,56.611C-64.663,68.896 -64.387,86.052 -63.833,108.076L-79.604,108.076C-78.83,87.878 -78.442,68.952 -78.442,51.299C-78.442,32.816 -78.83,15.717 -79.604,0L-63.833,0C-64.497,15.827 -64.829,31.211 -64.829,46.152L-14.775,46.152C-14.775,34.144 -15.107,18.76 -15.771,0L0,0C-0.83,15.385 -1.245,32.484 -1.245,51.299C-1.245,71.94 -0.83,90.866 0,108.076"
			fill-rule="nonzero" transform="matrix(1,0,0,1,360.175,133.423)"/>
		<path
			d="M0,-108.076C0,-106.028 -3.403,-100.052 -10.21,-90.146C-19.839,-76.145 -26.12,-66.627 -29.053,-61.592C-35.859,-50.025 -39.263,-41.226 -39.263,-35.195C-39.263,-23.795 -38.876,-12.063 -38.101,0L-54.038,0C-53.319,-11.455 -52.959,-23.242 -52.959,-35.361C-52.959,-42.002 -56.142,-51.216 -62.505,-63.003C-66.103,-69.588 -72.051,-79.106 -80.352,-91.557C-86.716,-101.186 -89.897,-106.692 -89.897,-108.076L-72.881,-108.076C-72.881,-106.637 -68.107,-97.825 -58.563,-81.638C-49.016,-65.451 -44.243,-54.757 -44.243,-49.555L-43.413,-49.555C-43.413,-54.812 -38.862,-65.327 -29.758,-81.098C-20.656,-96.87 -16.104,-105.862 -16.104,-108.076L0,-108.076Z"
			fill-rule="nonzero" transform="matrix(1,0,0,1,467.504,241.498)"/>
		<path
			d="M0,50.884C0,71.36 -14.25,81.597 -42.749,81.597C-53.153,81.597 -62.395,80.406 -70.474,78.028L-67.568,64.995C-58.271,68.205 -49.445,69.81 -41.089,69.81C-22.274,69.81 -12.866,64.497 -12.866,53.872C-12.866,48.505 -15.302,43.911 -20.171,40.093C-23.437,37.548 -29.855,34.145 -39.429,29.883C-49.501,25.401 -56.557,21.279 -60.596,17.515C-66.186,12.314 -68.979,5.783 -68.979,-2.075C-68.979,-10.264 -66.13,-16.933 -60.43,-22.08C-54.066,-27.835 -45.073,-30.713 -33.452,-30.713C-20.282,-30.713 -11.262,-29.854 -6.392,-28.139L-8.384,-14.941C-16.796,-17.597 -25.732,-18.926 -35.195,-18.926C-49.418,-18.926 -56.528,-14.166 -56.528,-4.648C-56.528,-0.054 -54.481,3.791 -50.386,6.89C-47.729,8.827 -41.864,11.76 -32.788,15.689C-22.44,20.171 -14.97,24.433 -10.376,28.472C-3.459,34.56 0,42.03 0,50.884"
			fill-rule="nonzero" transform="matrix(1,0,0,1,548.021,162.641)"/>
		<path d="M0,108.076L-15.771,108.076C-14.941,90.146 -14.526,71.221 -14.526,51.299C-14.526,31.709 -14.941,14.609 -15.771,0L0,0C-0.775,15.107 -1.162,32.207 -1.162,51.299C-1.162,71.332 -0.775,90.258 0,108.076" fill-rule="nonzero"
					transform="matrix(1,0,0,1,587.616,133.423)"/>
		<path
			d="M0,-0.582C0,-14.859 -3.75,-25.913 -11.247,-33.744C-18.747,-41.574 -27.393,-45.489 -37.188,-45.489C-46.264,-45.489 -54.343,-41.366 -61.426,-33.121C-68.51,-24.875 -72.051,-13.863 -72.051,-0.084C-72.051,14.249 -68.274,25.331 -60.72,33.161C-53.167,40.992 -44.521,44.906 -34.78,44.906C-25.705,44.906 -17.64,40.729 -10.583,32.372C-3.528,24.017 0,13.031 0,-0.582M14.775,-2.491C14.775,15.384 9.546,29.674 -0.913,40.382C-11.372,51.09 -23.464,56.445 -37.188,56.445C-50.358,56.445 -61.911,51.534 -71.843,41.71C-81.777,31.888 -86.743,18.621 -86.743,1.908C-86.743,-16.187 -81.514,-30.534 -71.055,-41.131C-60.596,-51.728 -48.505,-57.027 -34.78,-57.027C-21.61,-57.027 -10.059,-52.116 -0.124,-42.293C9.808,-32.47 14.775,-19.203 14.775,-2.491"
			fill-rule="nonzero" transform="matrix(1,0,0,1,698.183,188.292)"/>
		<path
			d="M0,80.352L-0.498,94.214L-71.719,94.214L-70.972,84.253C-63.999,74.514 -53.845,58.743 -40.508,36.939C-26.176,13.42 -19.009,0.332 -19.009,-2.324L-19.009,-3.237C-31.128,-3.237 -48.311,-2.544 -70.557,-1.162L-70.142,-13.862L-2.407,-13.862L-3.071,-3.569C-9.38,5.341 -19.092,20.974 -32.207,43.331C-45.876,66.573 -52.71,79.356 -52.71,81.68L-52.71,82.593C-41.255,82.593 -23.686,81.846 0,80.352"
			fill-rule="nonzero" transform="matrix(1,0,0,1,801.112,147.284)"/>
		<path
			d="M0,83.008L-0.498,95.542L-67.402,95.542C-66.628,78.388 -66.24,59.462 -66.24,38.765C-66.24,19.286 -66.628,2.187 -67.402,-12.534L-4.648,-12.534L-5.313,-0.166C-20.531,-0.83 -36.662,-1.162 -53.706,-1.162C-53.374,7.416 -53.208,19.009 -53.208,33.618C-38.488,33.618 -25.373,33.286 -13.862,32.622L-13.862,44.99C-26.147,44.492 -39.263,44.243 -53.208,44.243C-53.208,58.466 -52.959,71.802 -52.461,84.253C-34.089,84.253 -16.602,83.838 0,83.008"
			fill-rule="nonzero" transform="matrix(1,0,0,1,892.338,145.956)"/>
		<path d="M0,108.076L-15.771,108.076C-14.941,90.146 -14.526,71.221 -14.526,51.299C-14.526,31.709 -14.941,14.609 -15.771,0L0,0C-0.775,15.107 -1.162,32.207 -1.162,51.299C-1.162,71.332 -0.775,90.258 0,108.076" fill-rule="nonzero"
					transform="matrix(1,0,0,1,929.193,133.423)"/>
		<path
			d="M0,-108.076L-0.415,-96.372C-11.372,-96.925 -22.689,-97.202 -34.365,-97.202C-34.477,-86.577 -34.531,-73.101 -34.531,-56.777C-34.531,-38.736 -34.255,-19.81 -33.701,0L-48.892,0C-48.228,-18.87 -47.896,-37.796 -47.896,-56.777C-47.896,-72.881 -48.062,-86.355 -48.394,-97.202C-56.584,-97.202 -68.095,-96.87 -82.925,-96.206L-82.51,-108.076L0,-108.076Z"
			fill-rule="nonzero" transform="matrix(1,0,0,1,1029.55,241.498)"/></g></g></g></svg>