<svg viewBox="0 0 153 52" xmlns="http://www.w3.org/2000/svg" fill-rule="evenodd" clip-rule="evenodd" stroke-linejoin="round" stroke-miterlimit="2"><path fill="none" d="M0 0h152.7v51.4H0z"/><clipPath id="a"><path d="M0 0h152.7v51.4H0z"/></clipPath><g fill-rule="nonzero" clip-path="url(#a)"><path d="M32.977 5.098c0-.422-.1-.768-.299-1.037-.199-.27-.469-.481-.809-.633-.34-.153-.744-.258-1.213-.317-.468-.058-.984-.088-1.547-.088h-.211V0h15.75v3.023h-.632c-.704 0-1.342.082-1.916.247-.575.164-1.131.451-1.67.861-.539.41-1.096.943-1.67 1.599-.574.657-1.201 1.477-1.881 2.461L26.437 23.238l13.254 21.305c1.055 1.406 2.051 2.396 2.989 2.971.937.574 1.863.861 2.777.861h.914v3.023H26.93v-3.023h.386c2.86 0 4.289-.797 4.289-2.391 0-.257-.029-.515-.087-.773-.059-.258-.17-.563-.334-.914-.164-.352-.405-.785-.721-1.301-.317-.516-.721-1.172-1.213-1.969l-7.137-11.461-7.98 11.813c-.211.305-.422.65-.633 1.037-.211.387-.41.791-.598 1.213-.187.422-.339.85-.457 1.283-.117.434-.175.838-.175 1.213 0 .82.38 1.4 1.142 1.74.762.34 1.94.51 3.533.51h.211v3.023H0v-3.023h.457c.867 0 1.623-.088 2.268-.264.644-.175 1.242-.463 1.793-.861.55-.398 1.095-.914 1.634-1.547.539-.633 1.137-1.418 1.793-2.355l12.024-17.227L8.086 6.82C7.219 5.437 6.24 4.459 5.15 3.885c-1.089-.574-2.173-.862-3.252-.862H.949V0h19.512v3.023h-.211c-.82 0-1.5.053-2.039.159-.539.105-.961.252-1.266.439-.304.188-.515.41-.633.668-.117.258-.175.527-.175.809 0 .257.017.504.052.738.036.234.112.51.229.826.117.317.287.686.51 1.108.222.421.533.949.931 1.582l6.504 10.511 6.821-10.371c.539-.82.972-1.594 1.3-2.32.329-.727.493-1.418.493-2.074zM87.926 51.398l-27-41.484v33.293c0 1.125.158 2.027.474 2.707.317.68.739 1.201 1.266 1.565.527.363 1.154.603 1.881.72.726.117 1.488.176 2.285.176h.949v3.023h-18.07v-3.023h.914c.82 0 1.588-.059 2.303-.176.715-.117 1.342-.357 1.881-.72.539-.364.961-.885 1.265-1.565.305-.68.457-1.582.457-2.707V7.91c0-1.055-.158-1.904-.474-2.549-.317-.644-.744-1.142-1.284-1.494-.539-.351-1.166-.58-1.88-.685-.715-.106-1.471-.159-2.268-.159h-.914V0h13.184l25.769 39.797V7.91c0-1.055-.158-1.904-.475-2.549-.316-.644-.744-1.142-1.283-1.494-.539-.351-1.166-.58-1.881-.685-.714-.106-1.47-.159-2.267-.159h-.949V0h18.07v3.023h-.914c-.82 0-1.588.059-2.303.176-.715.117-1.342.358-1.881.721-.539.363-.961.885-1.265 1.564-.305.68-.457 1.582-.457 2.707v43.207h-5.133zM116.473 34.207l-2.743 7.559c-.21.562-.375 1.119-.492 1.67-.117.55-.176 1.025-.176 1.423 0 1.219.393 2.11 1.178 2.672.785.563 1.987.844 3.604.844h1.652v3.023h-17.578v-3.023h1.371c.703 0 1.301-.076 1.793-.229.492-.152.938-.439 1.336-.861.398-.422.779-.996 1.143-1.722.363-.727.767-1.665 1.212-2.813L124.734 0h5.625l16.278 44.543c.281.75.568 1.371.861 1.863.293.492.639.885 1.037 1.178.399.293.856.498 1.371.615.516.117 1.125.176 1.828.176h.95v3.023h-19.793v-3.023h1.652c2.883 0 4.324-1.148 4.324-3.445 0-.399-.053-.809-.158-1.231-.105-.422-.252-.902-.439-1.441l-2.883-8.051h-18.914zM129.621 18c-.75-2.133-1.435-4.131-2.057-5.994-.621-1.863-1.13-3.662-1.529-5.397-.164.868-.357 1.705-.58 2.514-.223.809-.463 1.635-.721 2.479-.257.843-.55 1.728-.879 2.654-.328.926-.703 1.951-1.125 3.076l-4.886 13.254h16.242L129.621 18z"/></g></svg>