<svg viewBox="0 0 154 81" xmlns="http://www.w3.org/2000/svg" fill-rule="evenodd" clip-rule="evenodd" stroke-linejoin="round" stroke-miterlimit="1.41421"><path d="M54.562 11.672c0-1.735-.738-2.871-2.214-3.41-1.477-.539-3.317-.809-5.52-.809h-.422V1.406h31.5v6.047h-1.265c-1.407 0-2.684.117-3.832.352-1.149.234-2.274.679-3.375 1.336-1.102.656-2.239 1.593-3.411 2.812-1.171 1.219-2.484 2.789-3.937 4.711L47.25 36.422l21.164 28.476c2.109 2.813 4.113 4.793 6.012 5.942 1.898 1.148 3.738 1.722 5.519 1.722l1.899.001v6.046H44.648v-6.047h.704c5.765 0 8.648-1.593 8.648-4.781 0-.515-.07-1.043-.211-1.582-.141-.539-.422-1.172-.844-1.898-.422-.727-.984-1.606-1.687-2.637-.703-1.031-1.617-2.297-2.742-3.797L38.883 44.93 28.828 58.992c-.422.563-.867 1.219-1.336 1.969-.469.75-.89 1.523-1.265 2.32-.375.797-.68 1.606-.915 2.426-.234.82-.351 1.605-.351 2.355 0 1.641.68 2.801 2.039 3.481 1.359.68 3.656 1.019 6.891 1.019h.421v6.047H0v-6.047h1.336c1.734 0 3.258-.14 4.57-.421 1.313-.282 2.555-.774 3.727-1.477 1.172-.703 2.344-1.652 3.515-2.848 1.172-1.195 2.461-2.683 3.868-4.464l18.14-23.485-18.14-24.75c-2.11-2.484-4.161-4.383-6.153-5.695-1.992-1.313-4.066-1.969-6.222-1.969H2.742V1.406h36.563v6.047h-.422c-1.641 0-3 .106-4.078.317-1.078.21-1.922.515-2.532.914-.609.398-1.031.855-1.265 1.371-.235.515-.352 1.054-.352 1.617 0 .984.293 1.957.879 2.918.586.961 1.418 2.191 2.496 3.691l9.492 12.938 7.454-10.758c1.078-1.641 1.945-3.188 2.601-4.641.656-1.453.984-2.836.984-4.148zM153.219 39.867c0 13.547-2.871 23.625-8.614 30.235-5.742 6.609-14.144 9.914-25.207 9.914-5.203 0-9.867-.821-13.992-2.461-4.125-1.641-7.629-4.125-10.511-7.453-2.883-3.329-5.086-7.512-6.61-12.551C86.762 52.512 86 46.617 86 39.867c0-13.453 2.848-23.461 8.543-30.023C100.238 3.281 108.664 0 119.82 0c5.203 0 9.868.809 13.992 2.426 4.126 1.617 7.629 4.078 10.512 7.383 2.883 3.304 5.086 7.453 6.61 12.445 1.523 4.992 2.285 10.863 2.285 17.613zm-53.297 0c0 5.344.351 10.055 1.055 14.133.703 4.078 1.839 7.488 3.41 10.23 1.57 2.743 3.609 4.817 6.117 6.223 2.508 1.406 5.566 2.109 9.176 2.109 3.609.001 6.656-.703 9.14-2.109 2.485-1.406 4.5-3.48 6.047-6.223 1.547-2.742 2.66-6.152 3.34-10.23.68-4.078 1.02-8.789 1.02-14.133 0-5.344-.352-10.031-1.055-14.062-.703-4.032-1.828-7.395-3.375-10.09-1.547-2.695-3.574-4.723-6.082-6.082-2.508-1.36-5.567-2.039-9.176-2.039s-6.656.679-9.141 2.039c-2.484 1.359-4.5 3.387-6.046 6.082-1.547 2.695-2.672 6.058-3.375 10.09-.704 4.031-1.055 8.718-1.055 14.062z" fill-rule="nonzero"/></svg>