<svg viewBox="0 0 288 257" xmlns="http://www.w3.org/2000/svg" fill-rule="evenodd" clip-rule="evenodd" stroke-linejoin="round" stroke-miterlimit="2"><g fill-rule="nonzero"><path d="M.851 217.382c-6.301-26.456 23.843-63.476 42.542-101.783 18.66-38.398 25.913-77.993 51.133-98.633 25.193-20.576 68.327-22.133 102.451-6.319 34.034 15.853 59.018 48.987 75.091 86.14 16.047 37.218 23.143 78.363 3.773 96.99-19.37 18.627-65.231 14.8-100.197 24.679-34.901 9.905-59.023 33.62-92.385 37.447C49.87 259.795 7.151 243.838.851 217.382z" fill="#ecb103"/><g fill="#fff"><path d="M144.215 107.813c0 4.968-1.688 8.777-5.063 11.425-3.375 2.649-8.156 3.973-14.343 3.973h-7.946v21.234h-3.586V93.047h12.586c12.235 0 18.352 4.922 18.352 14.766zm-27.352 12.304h7.067c5.789 0 9.972-.955 12.55-2.865 2.579-1.91 3.868-5.01 3.868-9.299 0-3.961-1.219-6.896-3.657-8.806-2.437-1.911-6.211-2.866-11.32-2.866h-8.508v23.836zM183.766 131.191c0 4.29-1.577 7.688-4.729 10.196s-7.342 3.761-12.568 3.761c-6.281 0-11.098-.691-14.449-2.074v-3.586c3.703 1.571 8.425 2.356 14.168 2.356 4.218 0 7.564-.967 10.037-2.901 2.472-1.933 3.709-4.47 3.709-7.611 0-1.945-.411-3.557-1.231-4.834-.82-1.277-2.156-2.443-4.008-3.498-1.851-1.055-4.57-2.191-8.156-3.41-5.25-1.805-8.877-3.756-10.881-5.854-2.004-2.097-3.006-4.892-3.006-8.384 0-3.844 1.506-6.979 4.518-9.405 3.012-2.425 6.885-3.638 11.619-3.638 4.828 0 9.363.914 13.606 2.742l-1.301 3.094c-4.266-1.782-8.344-2.672-12.235-2.672-3.796 0-6.82.879-9.07 2.636-2.25 1.758-3.375 4.149-3.375 7.172 0 1.899.346 3.457 1.037 4.676.692 1.219 1.822 2.315 3.393 3.287 1.57.973 4.265 2.139 8.086 3.498 4.007 1.383 7.019 2.725 9.035 4.026 2.015 1.3 3.486 2.777 4.412 4.429.926 1.653 1.389 3.651 1.389 5.994z"/></g></g></svg>