<svg width="100%" height="100%" viewBox="0 0 78 65" version="1.1" xml:space="preserve" fill-rule="evenodd" clip-rule="evenodd" stroke-linejoin="round" stroke-miterlimit="2"><g transform="matrix(1,0,0,1,-2190.06,-17.6663) matrix(0.759943,0,0,0.759943,2035.09,-34.8857) matrix(0.729143,0,0,0.729143,69.114,9.7464)"><path d="M2230.17,42.886L2227.61,42.886L2227.61,43.323C2227.61,43.708 2227.32,44.03 2226.94,44.069C2225.74,44.19 2224.59,44.42 2223.47,44.749C2223.1,44.857 2222.71,44.672 2222.57,44.319L2222.4,43.915L2220.03,44.884L2220.2,45.281C2220.35,45.637 2220.2,46.048 2219.86,46.231C2218.82,46.793 2217.83,47.45 2216.91,48.19C2216.61,48.43 2216.18,48.408 2215.91,48.139L2215.48,47.712L2213.68,49.5L2214.1,49.918C2214.37,50.19 2214.4,50.627 2214.15,50.926C2214.01,51.104 2213.86,51.283 2213.72,51.466L2217.7,51.466C2220.59,48.679 2224.54,46.96 2228.89,46.96C2233.24,46.96 2237.19,48.679 2240.08,51.466L2244.06,51.466C2243.92,51.283 2243.78,51.104 2243.63,50.926C2243.38,50.627 2243.41,50.19 2243.68,49.918L2244.1,49.5L2242.3,47.712L2241.87,48.139C2241.6,48.408 2241.17,48.43 2240.87,48.19C2239.95,47.451 2238.97,46.796 2237.92,46.234C2237.58,46.051 2237.44,45.64 2237.59,45.284L2237.75,44.887L2235.39,43.917L2235.22,44.321C2235.07,44.674 2234.68,44.859 2234.32,44.751C2233.2,44.421 2232.04,44.19 2230.84,44.069C2230.46,44.03 2230.17,43.708 2230.17,43.323L2230.17,42.886ZM2234.23,42.804L2233,42.804L2233,41.281L2238.21,41.281C2239,41.281 2239.72,40.821 2240.05,40.104C2240.39,39.391 2240.28,38.544 2239.77,37.937L2236.73,34.28L2237.04,34.28C2237.83,34.28 2238.55,33.82 2238.89,33.103C2239.22,32.39 2239.11,31.543 2238.61,30.936L2235.44,27.141C2235.93,26.954 2236.33,26.587 2236.55,26.102C2236.79,25.594 2236.8,25.019 2236.61,24.51C2236.8,24.428 2237.05,24.469 2237.18,24.634L2242.01,30.427C2242.13,30.57 2242.16,30.77 2242.08,30.94C2242,31.11 2241.83,31.218 2241.64,31.218L2239.78,31.218L2243.94,36.219C2244.06,36.363 2244.09,36.563 2244.01,36.733C2243.93,36.902 2243.76,37.011 2243.57,37.011L2240.74,37.011L2244.91,42.012C2245.03,42.155 2245.05,42.356 2244.97,42.525C2244.89,42.695 2244.72,42.804 2244.54,42.804L2239.02,42.804L2239.02,43.787L2239.02,43.786L2235.27,42.246C2234.89,42.09 2234.45,42.27 2234.29,42.651L2234.23,42.804ZM2218.83,43.76L2218.83,42.804L2213.3,42.804C2213.11,42.804 2212.94,42.695 2212.86,42.525C2212.78,42.356 2212.81,42.156 2212.93,42.012L2217.1,37.011L2214.26,37.011C2214.08,37.011 2213.91,36.902 2213.83,36.733C2213.75,36.564 2213.77,36.363 2213.89,36.219L2218.06,31.218L2216.2,31.218C2216.01,31.218 2215.84,31.11 2215.76,30.94C2215.68,30.771 2215.7,30.571 2215.82,30.427L2220.65,24.634C2220.77,24.492 2220.97,24.441 2221.14,24.483C2220.94,25 2220.95,25.588 2221.19,26.107C2221.42,26.589 2221.82,26.955 2222.3,27.141L2219.14,30.937C2218.63,31.546 2218.52,32.393 2218.86,33.109C2219.19,33.822 2219.91,34.28 2220.7,34.28L2221.02,34.28L2217.97,37.939C2217.46,38.547 2217.36,39.394 2217.69,40.11C2218.03,40.823 2218.75,41.281 2219.54,41.281L2224.76,41.281L2224.76,42.804L2223.56,42.804L2223.49,42.649C2223.33,42.268 2222.9,42.088 2222.52,42.244L2218.83,43.76ZM2226.22,41.754L2226.22,39.826L2219.54,39.826C2219.31,39.826 2219.11,39.695 2219.01,39.49C2218.91,39.285 2218.94,39.043 2219.09,38.869L2224.13,32.825L2220.7,32.825C2220.48,32.825 2220.27,32.693 2220.18,32.489C2220.08,32.284 2220.11,32.042 2220.26,31.868L2225.29,25.824L2223.04,25.824C2222.81,25.824 2222.61,25.692 2222.51,25.487C2222.41,25.283 2222.44,25.041 2222.59,24.867L2228.42,17.866C2228.65,17.6 2229.1,17.6 2229.32,17.866L2235.15,24.867C2235.3,25.04 2235.33,25.282 2235.23,25.487C2235.14,25.692 2234.93,25.824 2234.71,25.824L2232.45,25.824L2237.49,31.868C2237.63,32.041 2237.66,32.284 2237.57,32.489C2237.47,32.693 2237.27,32.825 2237.04,32.825L2233.62,32.825L2238.66,38.869C2238.8,39.043 2238.83,39.285 2238.74,39.49C2238.64,39.695 2238.43,39.826 2238.21,39.826L2231.54,39.826L2231.54,41.719C2231.41,41.518 2231.18,41.386 2230.92,41.386L2226.86,41.386C2226.59,41.386 2226.35,41.534 2226.22,41.754Z" fill="white" fill-rule="nonzero" transform="matrix(1.8047,0,0,1.8047,-3767.52,49.5915)"/><g transform="matrix(1.00273,0,0,0.573232,-0.718337,53.3166)"><path d="M0.059,-0L0.059,-0.688L0.173,-0.688L0.173,-0.106L0.363,-0.106L0.363,-0L0.059,-0Z" fill="white" fill-rule="nonzero" transform="matrix(21.94,0,0,38.3789,183.807,205.304)"/><path d="M0.147,0.008C0.105,0.008 0.075,-0.004 0.057,-0.028C0.038,-0.052 0.029,-0.091 0.029,-0.144C0.029,-0.183 0.033,-0.214 0.041,-0.237C0.049,-0.26 0.062,-0.276 0.081,-0.286C0.099,-0.296 0.124,-0.301 0.157,-0.301C0.182,-0.301 0.218,-0.3 0.263,-0.297L0.263,-0.322C0.263,-0.355 0.261,-0.378 0.256,-0.392C0.251,-0.406 0.242,-0.415 0.23,-0.419C0.217,-0.423 0.197,-0.425 0.168,-0.425C0.139,-0.425 0.101,-0.422 0.053,-0.417L0.053,-0.502C0.1,-0.513 0.148,-0.518 0.199,-0.518C0.247,-0.518 0.283,-0.512 0.308,-0.499C0.332,-0.486 0.348,-0.466 0.358,-0.438C0.367,-0.409 0.371,-0.369 0.371,-0.316L0.371,-0L0.271,-0L0.267,-0.063L0.261,-0.063C0.245,-0.016 0.207,0.008 0.147,0.008ZM0.194,-0.09C0.207,-0.09 0.217,-0.091 0.226,-0.094C0.235,-0.097 0.242,-0.102 0.249,-0.11C0.258,-0.123 0.263,-0.151 0.263,-0.194L0.263,-0.221L0.188,-0.221C0.173,-0.221 0.163,-0.219 0.156,-0.216C0.149,-0.213 0.143,-0.206 0.141,-0.197C0.138,-0.188 0.136,-0.173 0.136,-0.154C0.136,-0.128 0.14,-0.111 0.147,-0.102C0.154,-0.094 0.17,-0.09 0.194,-0.09Z" fill="white" fill-rule="nonzero" transform="matrix(21.94,0,0,38.3789,192.1,205.304)"/><path d="M0.29,-0.281C0.29,-0.326 0.289,-0.357 0.286,-0.375C0.283,-0.393 0.278,-0.405 0.27,-0.409C0.262,-0.414 0.248,-0.417 0.228,-0.417C0.207,-0.417 0.191,-0.412 0.182,-0.404C0.173,-0.395 0.167,-0.38 0.165,-0.361C0.162,-0.342 0.161,-0.31 0.161,-0.266L0.161,-0L0.053,-0L0.053,-0.51L0.152,-0.51L0.156,-0.446L0.162,-0.446C0.171,-0.471 0.185,-0.49 0.204,-0.501C0.223,-0.512 0.248,-0.518 0.279,-0.518C0.312,-0.518 0.338,-0.511 0.355,-0.499C0.372,-0.486 0.383,-0.466 0.389,-0.44C0.395,-0.413 0.398,-0.377 0.398,-0.331L0.398,-0L0.29,-0L0.29,-0.281Z" fill="white" fill-rule="nonzero" transform="matrix(21.94,0,0,38.3789,201.359,205.304)"/><path d="M0.172,0.008C0.137,0.008 0.111,0 0.092,-0.015C0.073,-0.029 0.059,-0.056 0.051,-0.093C0.043,-0.13 0.039,-0.184 0.039,-0.253C0.039,-0.322 0.043,-0.375 0.051,-0.412C0.058,-0.45 0.071,-0.477 0.09,-0.494C0.109,-0.51 0.135,-0.518 0.17,-0.518C0.225,-0.518 0.261,-0.497 0.278,-0.455L0.284,-0.455L0.284,-0.743L0.392,-0.743L0.392,-0L0.292,-0L0.288,-0.063L0.281,-0.063C0.267,-0.016 0.231,0.008 0.172,0.008ZM0.217,-0.092C0.234,-0.092 0.246,-0.095 0.255,-0.101C0.264,-0.106 0.27,-0.116 0.275,-0.13C0.281,-0.151 0.284,-0.193 0.284,-0.255C0.284,-0.306 0.282,-0.342 0.279,-0.362C0.276,-0.383 0.269,-0.398 0.26,-0.406C0.251,-0.414 0.236,-0.418 0.217,-0.418C0.194,-0.418 0.179,-0.415 0.17,-0.408C0.161,-0.402 0.155,-0.388 0.152,-0.367C0.149,-0.346 0.147,-0.308 0.147,-0.255C0.147,-0.202 0.149,-0.164 0.152,-0.143C0.155,-0.122 0.161,-0.108 0.17,-0.102C0.179,-0.095 0.194,-0.092 0.217,-0.092Z" fill="white" fill-rule="nonzero" transform="matrix(21.94,0,0,38.3789,211.21,205.304)"/><path d="M0.187,0.008C0.165,0.008 0.141,0.007 0.114,0.004C0.086,0.001 0.063,-0.002 0.043,-0.006L0.043,-0.093C0.091,-0.088 0.131,-0.085 0.164,-0.085C0.185,-0.085 0.2,-0.087 0.21,-0.091C0.22,-0.094 0.227,-0.1 0.23,-0.108C0.233,-0.116 0.235,-0.128 0.235,-0.144C0.235,-0.163 0.234,-0.176 0.232,-0.184C0.23,-0.191 0.226,-0.197 0.221,-0.2C0.216,-0.203 0.206,-0.205 0.193,-0.207L0.104,-0.22C0.077,-0.224 0.058,-0.237 0.047,-0.258C0.036,-0.279 0.031,-0.315 0.031,-0.365C0.031,-0.422 0.045,-0.462 0.072,-0.485C0.099,-0.507 0.14,-0.518 0.193,-0.518C0.215,-0.518 0.238,-0.517 0.262,-0.514C0.285,-0.51 0.304,-0.507 0.319,-0.502L0.319,-0.416C0.282,-0.422 0.244,-0.425 0.207,-0.425C0.181,-0.425 0.163,-0.421 0.154,-0.413C0.144,-0.406 0.139,-0.39 0.139,-0.367C0.139,-0.35 0.14,-0.338 0.141,-0.331C0.143,-0.324 0.147,-0.319 0.152,-0.316C0.157,-0.313 0.165,-0.31 0.177,-0.309L0.253,-0.299C0.272,-0.296 0.288,-0.291 0.301,-0.283C0.314,-0.275 0.324,-0.261 0.331,-0.24C0.338,-0.219 0.342,-0.19 0.342,-0.152C0.342,-0.091 0.33,-0.05 0.305,-0.027C0.28,-0.004 0.24,0.008 0.187,0.008Z" fill="white" fill-rule="nonzero" transform="matrix(21.94,0,0,38.3789,220.974,205.304)"/><path d="M0.313,-0.007C0.28,0.003 0.243,0.008 0.204,0.008C0.155,0.008 0.119,-0.001 0.096,-0.019C0.073,-0.037 0.057,-0.064 0.05,-0.1C0.043,-0.136 0.039,-0.188 0.039,-0.255C0.039,-0.322 0.043,-0.374 0.051,-0.411C0.06,-0.448 0.076,-0.475 0.099,-0.492C0.122,-0.509 0.157,-0.518 0.203,-0.518C0.223,-0.518 0.243,-0.517 0.263,-0.514C0.283,-0.511 0.299,-0.508 0.31,-0.503L0.31,-0.417C0.282,-0.422 0.256,-0.425 0.232,-0.425C0.206,-0.425 0.187,-0.421 0.176,-0.413C0.165,-0.406 0.157,-0.391 0.153,-0.368C0.149,-0.345 0.147,-0.308 0.147,-0.255C0.147,-0.202 0.149,-0.165 0.153,-0.141C0.157,-0.118 0.165,-0.103 0.176,-0.096C0.187,-0.089 0.206,-0.085 0.232,-0.085C0.258,-0.085 0.285,-0.088 0.313,-0.093L0.313,-0.007Z" fill="white" fill-rule="nonzero" transform="matrix(21.94,0,0,38.3789,229.157,205.304)"/><path d="M0.29,-0.281C0.29,-0.326 0.289,-0.357 0.286,-0.375C0.283,-0.393 0.278,-0.405 0.27,-0.409C0.262,-0.414 0.248,-0.417 0.228,-0.417C0.207,-0.417 0.191,-0.412 0.182,-0.404C0.173,-0.395 0.167,-0.38 0.165,-0.361C0.162,-0.342 0.161,-0.31 0.161,-0.266L0.161,-0L0.053,-0L0.053,-0.743L0.161,-0.743L0.161,-0.45L0.166,-0.45C0.175,-0.473 0.188,-0.491 0.207,-0.501C0.226,-0.513 0.25,-0.518 0.279,-0.518C0.312,-0.518 0.337,-0.511 0.354,-0.499C0.371,-0.486 0.383,-0.466 0.389,-0.441C0.395,-0.415 0.398,-0.38 0.398,-0.335L0.398,-0L0.29,-0L0.29,-0.281Z" fill="white" fill-rule="nonzero" transform="matrix(21.94,0,0,38.3789,236.661,205.304)"/><path d="M0.147,0.008C0.105,0.008 0.075,-0.004 0.057,-0.028C0.038,-0.052 0.029,-0.091 0.029,-0.144C0.029,-0.183 0.033,-0.214 0.041,-0.237C0.049,-0.26 0.062,-0.276 0.081,-0.286C0.099,-0.296 0.124,-0.301 0.157,-0.301C0.182,-0.301 0.218,-0.3 0.263,-0.297L0.263,-0.322C0.263,-0.355 0.261,-0.378 0.256,-0.392C0.251,-0.406 0.242,-0.415 0.23,-0.419C0.217,-0.423 0.197,-0.425 0.168,-0.425C0.139,-0.425 0.101,-0.422 0.053,-0.417L0.053,-0.502C0.1,-0.513 0.148,-0.518 0.199,-0.518C0.247,-0.518 0.283,-0.512 0.308,-0.499C0.332,-0.486 0.348,-0.466 0.358,-0.438C0.367,-0.409 0.371,-0.369 0.371,-0.316L0.371,-0L0.271,-0L0.267,-0.063L0.261,-0.063C0.245,-0.016 0.207,0.008 0.147,0.008ZM0.194,-0.09C0.207,-0.09 0.217,-0.091 0.226,-0.094C0.235,-0.097 0.242,-0.102 0.249,-0.11C0.258,-0.123 0.263,-0.151 0.263,-0.194L0.263,-0.221L0.188,-0.221C0.173,-0.221 0.163,-0.219 0.156,-0.216C0.149,-0.213 0.143,-0.206 0.141,-0.197C0.138,-0.188 0.136,-0.173 0.136,-0.154C0.136,-0.128 0.14,-0.111 0.147,-0.102C0.154,-0.094 0.17,-0.09 0.194,-0.09Z" fill="white" fill-rule="nonzero" transform="matrix(21.94,0,0,38.3789,246.512,205.304)"/><path d="M0.083,-0.417L0.017,-0.417L0.017,-0.51L0.083,-0.51L0.083,-0.557C0.083,-0.616 0.088,-0.658 0.099,-0.683C0.11,-0.708 0.128,-0.725 0.154,-0.732C0.179,-0.739 0.221,-0.743 0.278,-0.743L0.278,-0.659C0.251,-0.659 0.232,-0.657 0.221,-0.654C0.209,-0.651 0.201,-0.644 0.197,-0.633C0.193,-0.622 0.191,-0.605 0.191,-0.581L0.191,-0.51L0.278,-0.51L0.278,-0.417L0.191,-0.417L0.191,-0L0.083,-0L0.083,-0.417Z" fill="white" fill-rule="nonzero" transform="matrix(21.94,0,0,38.3789,255.77,205.304)"/><path d="M0.083,-0L0.083,-0.417L0.016,-0.417L0.016,-0.51L0.083,-0.51L0.083,-0.658L0.191,-0.658L0.191,-0.51L0.273,-0.51L0.273,-0.417L0.191,-0.417L0.191,-0L0.083,-0Z" fill="white" fill-rule="nonzero" transform="matrix(21.94,0,0,38.3789,262.265,205.304)"/><path d="M0.187,0.008C0.165,0.008 0.141,0.007 0.114,0.004C0.086,0.001 0.063,-0.002 0.043,-0.006L0.043,-0.093C0.091,-0.088 0.131,-0.085 0.164,-0.085C0.185,-0.085 0.2,-0.087 0.21,-0.091C0.22,-0.094 0.227,-0.1 0.23,-0.108C0.233,-0.116 0.235,-0.128 0.235,-0.144C0.235,-0.163 0.234,-0.176 0.232,-0.184C0.23,-0.191 0.226,-0.197 0.221,-0.2C0.216,-0.203 0.206,-0.205 0.193,-0.207L0.104,-0.22C0.077,-0.224 0.058,-0.237 0.047,-0.258C0.036,-0.279 0.031,-0.315 0.031,-0.365C0.031,-0.422 0.045,-0.462 0.072,-0.485C0.099,-0.507 0.14,-0.518 0.193,-0.518C0.215,-0.518 0.238,-0.517 0.262,-0.514C0.285,-0.51 0.304,-0.507 0.319,-0.502L0.319,-0.416C0.282,-0.422 0.244,-0.425 0.207,-0.425C0.181,-0.425 0.163,-0.421 0.154,-0.413C0.144,-0.406 0.139,-0.39 0.139,-0.367C0.139,-0.35 0.14,-0.338 0.141,-0.331C0.143,-0.324 0.147,-0.319 0.152,-0.316C0.157,-0.313 0.165,-0.31 0.177,-0.309L0.253,-0.299C0.272,-0.296 0.288,-0.291 0.301,-0.283C0.314,-0.275 0.324,-0.261 0.331,-0.24C0.338,-0.219 0.342,-0.19 0.342,-0.152C0.342,-0.091 0.33,-0.05 0.305,-0.027C0.28,-0.004 0.24,0.008 0.187,0.008Z" fill="white" fill-rule="nonzero" transform="matrix(21.94,0,0,38.3789,268.649,205.304)"/><path d="M0.053,-0.51L0.152,-0.51L0.156,-0.447L0.163,-0.447C0.177,-0.494 0.214,-0.518 0.273,-0.518C0.308,-0.518 0.334,-0.51 0.353,-0.496C0.372,-0.481 0.385,-0.454 0.393,-0.417C0.401,-0.38 0.405,-0.326 0.405,-0.257C0.405,-0.188 0.401,-0.135 0.394,-0.098C0.386,-0.06 0.373,-0.033 0.355,-0.017C0.336,-0 0.31,0.008 0.275,0.008C0.219,0.008 0.183,-0.014 0.167,-0.057L0.161,-0.057L0.161,0.193L0.053,0.193L0.053,-0.51ZM0.227,-0.092C0.25,-0.092 0.266,-0.095 0.275,-0.102C0.283,-0.108 0.29,-0.122 0.293,-0.142C0.296,-0.164 0.297,-0.201 0.297,-0.255C0.297,-0.309 0.296,-0.346 0.293,-0.368C0.29,-0.389 0.283,-0.402 0.275,-0.408C0.266,-0.415 0.25,-0.418 0.227,-0.418C0.209,-0.418 0.196,-0.414 0.187,-0.407C0.178,-0.401 0.171,-0.388 0.167,-0.371C0.163,-0.352 0.161,-0.313 0.161,-0.255C0.161,-0.207 0.162,-0.173 0.165,-0.152C0.168,-0.129 0.174,-0.113 0.184,-0.105C0.193,-0.096 0.207,-0.092 0.227,-0.092Z" fill="white" fill-rule="nonzero" transform="matrix(21.94,0,0,38.3789,276.833,205.304)"/><path d="M0.083,-0.417L0.017,-0.417L0.017,-0.51L0.083,-0.51L0.083,-0.557C0.083,-0.616 0.088,-0.658 0.099,-0.683C0.11,-0.708 0.128,-0.725 0.154,-0.732C0.179,-0.739 0.221,-0.743 0.278,-0.743L0.278,-0.659C0.251,-0.659 0.232,-0.657 0.221,-0.654C0.209,-0.651 0.201,-0.644 0.197,-0.633C0.193,-0.622 0.191,-0.605 0.191,-0.581L0.191,-0.51L0.278,-0.51L0.278,-0.417L0.191,-0.417L0.191,-0L0.083,-0L0.083,-0.417ZM0.349,-0L0.349,-0.743L0.457,-0.743L0.457,-0L0.349,-0Z" fill="white" fill-rule="nonzero" transform="matrix(21.94,0,0,38.3789,286.596,205.304)"/><path d="M0.384,-0.218L0.147,-0.218C0.147,-0.175 0.149,-0.145 0.153,-0.128C0.157,-0.111 0.166,-0.099 0.179,-0.094C0.192,-0.088 0.216,-0.085 0.249,-0.085C0.281,-0.085 0.322,-0.088 0.372,-0.093L0.372,-0.008C0.355,-0.003 0.333,0 0.306,0.003C0.278,0.006 0.251,0.008 0.225,0.008C0.169,0.008 0.128,-0.001 0.102,-0.018C0.075,-0.035 0.058,-0.061 0.051,-0.096C0.043,-0.131 0.039,-0.183 0.039,-0.254C0.039,-0.324 0.043,-0.377 0.05,-0.412C0.057,-0.447 0.074,-0.474 0.099,-0.492C0.124,-0.509 0.164,-0.518 0.218,-0.518C0.271,-0.518 0.31,-0.509 0.333,-0.493C0.356,-0.475 0.37,-0.45 0.376,-0.417C0.381,-0.383 0.384,-0.329 0.384,-0.255L0.384,-0.218ZM0.216,-0.425C0.195,-0.425 0.18,-0.422 0.171,-0.416C0.162,-0.41 0.156,-0.399 0.153,-0.382C0.15,-0.365 0.148,-0.337 0.147,-0.298L0.281,-0.298L0.281,-0.299C0.281,-0.338 0.279,-0.366 0.276,-0.383C0.273,-0.4 0.267,-0.412 0.258,-0.417C0.249,-0.422 0.235,-0.425 0.216,-0.425Z" fill="white" fill-rule="nonzero" transform="matrix(21.94,0,0,38.3789,297.786,205.304)"/><path d="M0.204,0.2C0.181,0.2 0.156,0.199 0.131,0.196C0.105,0.194 0.084,0.191 0.068,0.188L0.068,0.103L0.18,0.105C0.213,0.105 0.237,0.102 0.251,0.095C0.264,0.089 0.273,0.077 0.277,0.059C0.281,0.041 0.283,0.01 0.283,-0.035L0.283,-0.062L0.277,-0.062C0.269,-0.039 0.256,-0.023 0.238,-0.014C0.221,-0.004 0.198,0.001 0.171,0.001C0.136,0.001 0.109,-0.007 0.09,-0.022C0.071,-0.037 0.058,-0.063 0.051,-0.1C0.043,-0.137 0.039,-0.189 0.039,-0.257C0.039,-0.326 0.043,-0.38 0.051,-0.417C0.059,-0.454 0.073,-0.481 0.092,-0.496C0.111,-0.51 0.137,-0.518 0.172,-0.518C0.229,-0.518 0.266,-0.494 0.281,-0.447L0.287,-0.447L0.291,-0.51L0.391,-0.51L0.391,-0.065C0.391,0.005 0.387,0.058 0.38,0.093C0.373,0.128 0.356,0.155 0.329,0.173C0.302,0.191 0.261,0.2 0.204,0.2ZM0.216,-0.096C0.234,-0.096 0.248,-0.099 0.257,-0.106C0.266,-0.113 0.273,-0.124 0.276,-0.141C0.281,-0.16 0.283,-0.199 0.283,-0.257C0.283,-0.308 0.281,-0.343 0.278,-0.362C0.275,-0.383 0.268,-0.398 0.259,-0.406C0.25,-0.413 0.235,-0.417 0.216,-0.417C0.193,-0.417 0.178,-0.414 0.169,-0.408C0.16,-0.402 0.155,-0.389 0.152,-0.368C0.149,-0.347 0.147,-0.31 0.147,-0.257C0.147,-0.205 0.149,-0.168 0.152,-0.147C0.155,-0.126 0.161,-0.112 0.17,-0.106C0.179,-0.099 0.194,-0.096 0.216,-0.096Z" fill="white" fill-rule="nonzero" transform="matrix(21.94,0,0,38.3789,307.11,205.304)"/><path d="M0.384,-0.218L0.147,-0.218C0.147,-0.175 0.149,-0.145 0.153,-0.128C0.157,-0.111 0.166,-0.099 0.179,-0.094C0.192,-0.088 0.216,-0.085 0.249,-0.085C0.281,-0.085 0.322,-0.088 0.372,-0.093L0.372,-0.008C0.355,-0.003 0.333,0 0.306,0.003C0.278,0.006 0.251,0.008 0.225,0.008C0.169,0.008 0.128,-0.001 0.102,-0.018C0.075,-0.035 0.058,-0.061 0.051,-0.096C0.043,-0.131 0.039,-0.183 0.039,-0.254C0.039,-0.324 0.043,-0.377 0.05,-0.412C0.057,-0.447 0.074,-0.474 0.099,-0.492C0.124,-0.509 0.164,-0.518 0.218,-0.518C0.271,-0.518 0.31,-0.509 0.333,-0.493C0.356,-0.475 0.37,-0.45 0.376,-0.417C0.381,-0.383 0.384,-0.329 0.384,-0.255L0.384,-0.218ZM0.216,-0.425C0.195,-0.425 0.18,-0.422 0.171,-0.416C0.162,-0.41 0.156,-0.399 0.153,-0.382C0.15,-0.365 0.148,-0.337 0.147,-0.298L0.281,-0.298L0.281,-0.299C0.281,-0.338 0.279,-0.366 0.276,-0.383C0.273,-0.4 0.267,-0.412 0.258,-0.417C0.249,-0.422 0.235,-0.425 0.216,-0.425Z" fill="white" fill-rule="nonzero" transform="matrix(21.94,0,0,38.3789,316.852,205.304)"/><path d="M0.254,0.008C0.187,0.008 0.139,-0.002 0.11,-0.021C0.081,-0.041 0.063,-0.074 0.056,-0.118C0.049,-0.164 0.045,-0.239 0.045,-0.344C0.045,-0.449 0.049,-0.525 0.056,-0.57C0.063,-0.615 0.081,-0.647 0.11,-0.667C0.139,-0.686 0.187,-0.696 0.254,-0.696C0.321,-0.696 0.369,-0.686 0.398,-0.667C0.427,-0.647 0.445,-0.614 0.453,-0.569C0.46,-0.524 0.464,-0.449 0.464,-0.344C0.464,-0.239 0.46,-0.164 0.453,-0.119C0.445,-0.074 0.427,-0.041 0.398,-0.021C0.369,-0.002 0.321,0.008 0.254,0.008ZM0.254,-0.095C0.287,-0.095 0.309,-0.099 0.321,-0.108C0.333,-0.116 0.341,-0.136 0.344,-0.168C0.348,-0.199 0.35,-0.258 0.35,-0.344C0.35,-0.43 0.348,-0.489 0.344,-0.521C0.341,-0.552 0.333,-0.572 0.321,-0.581C0.309,-0.589 0.287,-0.593 0.254,-0.593C0.221,-0.593 0.199,-0.589 0.188,-0.581C0.176,-0.572 0.168,-0.552 0.165,-0.521C0.161,-0.49 0.159,-0.431 0.159,-0.344C0.159,-0.257 0.161,-0.198 0.165,-0.167C0.168,-0.136 0.176,-0.116 0.188,-0.108C0.199,-0.099 0.221,-0.095 0.254,-0.095Z" fill="white" fill-rule="nonzero" transform="matrix(21.94,0,0,38.3789,219.767,252.405)"/><path d="M0.273,0.008C0.214,0.008 0.177,-0.016 0.163,-0.063L0.156,-0.063L0.152,-0L0.053,-0L0.053,-0.743L0.161,-0.743L0.161,-0.455L0.167,-0.455C0.183,-0.497 0.219,-0.518 0.275,-0.518C0.31,-0.518 0.336,-0.51 0.355,-0.494C0.373,-0.477 0.386,-0.45 0.394,-0.413C0.401,-0.376 0.405,-0.323 0.405,-0.254C0.405,-0.184 0.401,-0.13 0.393,-0.093C0.385,-0.056 0.372,-0.029 0.353,-0.015C0.334,0 0.308,0.008 0.273,0.008ZM0.227,-0.092C0.25,-0.092 0.266,-0.095 0.275,-0.102C0.283,-0.108 0.29,-0.122 0.293,-0.142C0.296,-0.164 0.297,-0.201 0.297,-0.255C0.297,-0.308 0.296,-0.346 0.293,-0.367C0.29,-0.388 0.283,-0.402 0.275,-0.408C0.266,-0.415 0.25,-0.418 0.227,-0.418C0.211,-0.418 0.199,-0.416 0.19,-0.41C0.181,-0.406 0.175,-0.396 0.17,-0.383C0.164,-0.362 0.161,-0.32 0.161,-0.255C0.161,-0.194 0.163,-0.153 0.168,-0.134C0.172,-0.118 0.179,-0.107 0.188,-0.101C0.197,-0.095 0.21,-0.092 0.227,-0.092Z" fill="white" fill-rule="nonzero" transform="matrix(21.94,0,0,38.3789,230.934,252.405)"/><path d="M0.384,-0.218L0.147,-0.218C0.147,-0.175 0.149,-0.145 0.153,-0.128C0.157,-0.111 0.166,-0.099 0.179,-0.094C0.192,-0.088 0.216,-0.085 0.249,-0.085C0.281,-0.085 0.322,-0.088 0.372,-0.093L0.372,-0.008C0.355,-0.003 0.333,0 0.306,0.003C0.278,0.006 0.251,0.008 0.225,0.008C0.169,0.008 0.128,-0.001 0.102,-0.018C0.075,-0.035 0.058,-0.061 0.051,-0.096C0.043,-0.131 0.039,-0.183 0.039,-0.254C0.039,-0.324 0.043,-0.377 0.05,-0.412C0.057,-0.447 0.074,-0.474 0.099,-0.492C0.124,-0.509 0.164,-0.518 0.218,-0.518C0.271,-0.518 0.31,-0.509 0.333,-0.493C0.356,-0.475 0.37,-0.45 0.376,-0.417C0.381,-0.383 0.384,-0.329 0.384,-0.255L0.384,-0.218ZM0.216,-0.425C0.195,-0.425 0.18,-0.422 0.171,-0.416C0.162,-0.41 0.156,-0.399 0.153,-0.382C0.15,-0.365 0.148,-0.337 0.147,-0.298L0.281,-0.298L0.281,-0.299C0.281,-0.338 0.279,-0.366 0.276,-0.383C0.273,-0.4 0.267,-0.412 0.258,-0.417C0.249,-0.422 0.235,-0.425 0.216,-0.425Z" fill="white" fill-rule="nonzero" transform="matrix(21.94,0,0,38.3789,240.698,252.405)"/><path d="M0.053,-0.51L0.152,-0.51L0.156,-0.423L0.163,-0.423C0.173,-0.459 0.188,-0.484 0.207,-0.498C0.227,-0.511 0.253,-0.518 0.285,-0.518L0.285,-0.403C0.254,-0.403 0.23,-0.398 0.212,-0.387C0.194,-0.376 0.181,-0.359 0.173,-0.335C0.165,-0.311 0.161,-0.278 0.161,-0.235L0.161,-0L0.053,-0L0.053,-0.51Z" fill="white" fill-rule="nonzero" transform="matrix(21.94,0,0,38.3789,250.022,252.405)"/><rect x="0.053" y="-0.743" width="0.108" height="0.743" fill="white" fill-rule="nonzero" transform="matrix(21.94,0,0,38.3789,256.648,252.405)"/><path d="M0.147,0.008C0.105,0.008 0.075,-0.004 0.057,-0.028C0.038,-0.052 0.029,-0.091 0.029,-0.144C0.029,-0.183 0.033,-0.214 0.041,-0.237C0.049,-0.26 0.062,-0.276 0.081,-0.286C0.099,-0.296 0.124,-0.301 0.157,-0.301C0.182,-0.301 0.218,-0.3 0.263,-0.297L0.263,-0.322C0.263,-0.355 0.261,-0.378 0.256,-0.392C0.251,-0.406 0.242,-0.415 0.23,-0.419C0.217,-0.423 0.197,-0.425 0.168,-0.425C0.139,-0.425 0.101,-0.422 0.053,-0.417L0.053,-0.502C0.1,-0.513 0.148,-0.518 0.199,-0.518C0.247,-0.518 0.283,-0.512 0.308,-0.499C0.332,-0.486 0.348,-0.466 0.358,-0.438C0.367,-0.409 0.371,-0.369 0.371,-0.316L0.371,-0L0.271,-0L0.267,-0.063L0.261,-0.063C0.245,-0.016 0.207,0.008 0.147,0.008ZM0.194,-0.09C0.207,-0.09 0.217,-0.091 0.226,-0.094C0.235,-0.097 0.242,-0.102 0.249,-0.11C0.258,-0.123 0.263,-0.151 0.263,-0.194L0.263,-0.221L0.188,-0.221C0.173,-0.221 0.163,-0.219 0.156,-0.216C0.149,-0.213 0.143,-0.206 0.141,-0.197C0.138,-0.188 0.136,-0.173 0.136,-0.154C0.136,-0.128 0.14,-0.111 0.147,-0.102C0.154,-0.094 0.17,-0.09 0.194,-0.09Z" fill="white" fill-rule="nonzero" transform="matrix(21.94,0,0,38.3789,261.343,252.405)"/><path d="M0.29,-0.281C0.29,-0.326 0.289,-0.357 0.286,-0.375C0.283,-0.393 0.278,-0.405 0.27,-0.409C0.262,-0.414 0.248,-0.417 0.228,-0.417C0.207,-0.417 0.191,-0.412 0.182,-0.404C0.173,-0.395 0.167,-0.38 0.165,-0.361C0.162,-0.342 0.161,-0.31 0.161,-0.266L0.161,-0L0.053,-0L0.053,-0.51L0.152,-0.51L0.156,-0.446L0.162,-0.446C0.171,-0.471 0.185,-0.49 0.204,-0.501C0.223,-0.512 0.248,-0.518 0.279,-0.518C0.312,-0.518 0.338,-0.511 0.355,-0.499C0.372,-0.486 0.383,-0.466 0.389,-0.44C0.395,-0.413 0.398,-0.377 0.398,-0.331L0.398,-0L0.29,-0L0.29,-0.281Z" fill="white" fill-rule="nonzero" transform="matrix(21.94,0,0,38.3789,270.602,252.405)"/><path d="M0.172,0.008C0.137,0.008 0.111,0 0.092,-0.015C0.073,-0.029 0.059,-0.056 0.051,-0.093C0.043,-0.13 0.039,-0.184 0.039,-0.253C0.039,-0.322 0.043,-0.375 0.051,-0.412C0.058,-0.45 0.071,-0.477 0.09,-0.494C0.109,-0.51 0.135,-0.518 0.17,-0.518C0.225,-0.518 0.261,-0.497 0.278,-0.455L0.284,-0.455L0.284,-0.743L0.392,-0.743L0.392,-0L0.292,-0L0.288,-0.063L0.281,-0.063C0.267,-0.016 0.231,0.008 0.172,0.008ZM0.217,-0.092C0.234,-0.092 0.246,-0.095 0.255,-0.101C0.264,-0.106 0.27,-0.116 0.275,-0.13C0.281,-0.151 0.284,-0.193 0.284,-0.255C0.284,-0.306 0.282,-0.342 0.279,-0.362C0.276,-0.383 0.269,-0.398 0.26,-0.406C0.251,-0.414 0.236,-0.418 0.217,-0.418C0.194,-0.418 0.179,-0.415 0.17,-0.408C0.161,-0.402 0.155,-0.388 0.152,-0.367C0.149,-0.346 0.147,-0.308 0.147,-0.255C0.147,-0.202 0.149,-0.164 0.152,-0.143C0.155,-0.122 0.161,-0.108 0.17,-0.102C0.179,-0.095 0.194,-0.092 0.217,-0.092Z" fill="white" fill-rule="nonzero" transform="matrix(21.94,0,0,38.3789,280.453,252.405)"/></g></g></svg>