<svg viewBox="0 0 320 140" xmlns="http://www.w3.org/2000/svg" fill-rule="evenodd" clip-rule="evenodd" stroke-linejoin="round" stroke-miterlimit="1.41421">
	<g class="logo--bicycle" fill-rule="nonzero">
		<path d="M69.765 31.923c-10.716 3.159-16.867 14.451-13.707 25.169C59.218 67.809 70.51 73.959 81.226 70.8c10.72-3.16 16.868-14.452 13.709-25.169-3.16-10.718-14.45-16.868-25.17-13.708m12.646 42.895C69.477 78.631 55.853 71.21 52.04 58.277c-3.813-12.934 3.607-26.558 16.541-30.371 12.932-3.812 26.559 3.607 30.372 16.541 3.812 12.933-3.611 26.558-16.542 30.371M18.727 46.969C8.009 50.129 1.859 61.42 5.018 72.139c3.16 10.717 14.452 16.867 25.17 13.707 10.718-3.159 16.867-14.451 13.707-25.168-3.159-10.719-14.451-16.868-25.168-13.709m12.645 42.895C18.437 93.677 4.813 86.256 1.001 73.323-2.812 60.39 4.608 46.766 17.543 42.952 30.475 39.14 44.1 46.56 47.913 59.493c3.813 12.933-3.608 26.558-16.541 30.371"/>
		<path d="M55.096 57.53l-2.985.881c-4.385-14.874-20.71-23.99-35.583-19.606 17.217-5.075 34.522 1.206 39.597 18.422l-1.029.303z"/>
		<path d="M51.384 14.233l-.66 3.043c-15.153-3.29-30.985 6.658-34.275 21.811 3.808-17.541 17.622-29.709 35.163-25.901l-.228 1.047zM70.027 11.636l-2.474 1.889C58.14 1.204 39.635-1.473 27.314 7.941 41.576-2.956 59.982-3.279 70.88 10.985l-.853.651z"/>
		<path d="M40.531 22.379l3.082-.437c2.179 15.352 17.008 26.741 32.361 24.56-17.772 2.525-33.981-6.2-36.506-23.971l1.063-.152z"/>
		<path d="M50.94 19.31l3.083-.437c2.18 15.352 17.009 26.741 32.361 24.56-17.77 2.525-33.98-6.2-36.506-23.971l1.062-.152z"/>
	</g>
	<g class="logo--lettering">
		<path d="M57.899 132.389c0 1.181-.963 2.144-2.144 2.144h-17.91v-17.911c0-1.181.961-2.141 2.142-2.141h17.912v17.908zm-24.995-15.767v22.854h22.851c.734 0 1.454-.114 2.144-.334v.334h4.945v-29.941H39.987c-3.906 0-7.083 3.18-7.083 7.087M90.532 132.389c0 1.181-.963 2.144-2.146 2.144H70.481v-17.911c0-1.181.96-2.141 2.141-2.141h17.91v17.908zm0-22.854h-17.91c-3.91 0-7.089 3.18-7.089 7.087v22.854h22.853c.735 0 1.456-.114 2.146-.334v.334h4.939V86.591h-4.939v22.944zM.183 116.622v22.854h4.943v-22.854c0-1.18.963-2.141 2.142-2.141h22.853v-4.947H7.268c-3.906 0-7.085 3.18-7.085 7.088" fill-rule="nonzero"/>
		<path d="M98.169 86.591h4.941v52.885h-4.941z"/>
		<path d="M105.805 93.679v45.797h4.941v-24.672h9.139v-5.269h-9.139V93.679c0-1.182.963-2.144 2.144-2.144h10.658v47.941h4.945V86.591H112.89c-3.906 0-7.085 3.179-7.085 7.088M156.179 132.389c0 1.181-.96 2.144-2.139 2.144h-17.91v-24.998h-4.945v29.941h22.855c3.906 0 7.087-3.18 7.087-7.087v-22.854h-4.948v22.854zM227.221 109.535h-25.559V86.591h-4.946v22.944h-25.811c-3.91 0-7.087 3.18-7.087 7.087v9.97h24.995v5.797c0 1.181-.961 2.144-2.144 2.144h-22.851v4.943h22.851c3.91 0 7.089-3.18 7.089-7.087v-10.741h-24.997v-5.026c0-1.18.961-2.141 2.144-2.141h25.811v24.995h4.946v-24.995h25.559c1.181 0 2.14.961 2.14 2.141v5.026h-24.993v10.741c0 3.907 3.179 7.087 7.087 7.087h22.853v-4.943h-22.853c-1.181 0-2.142-.963-2.142-2.144v-5.797h24.995v-9.97c0-3.907-3.179-7.087-7.087-7.087M279.697 109.607H244.12l-.452.016-.997.141c-3.235.671-5.636 3.532-5.636 6.931v22.851h4.945v-22.851c0-1.183.959-2.145 2.14-2.145h35.577c1.181 0 2.143.962 2.143 2.145v5.024h-24.997v10.741c0 3.908 3.178 7.086 7.087 7.086h22.854v-4.943H263.93c-1.183 0-2.143-.962-2.143-2.143v-5.797h24.997v-9.968c0-3.908-3.18-7.088-7.087-7.088M296.564 109.607c-3.91 0-7.089 3.18-7.089 7.085v22.854h4.947v-22.854c0-1.18.961-2.142 2.142-2.142h22.853v-4.943h-22.853z" fill-rule="nonzero"/>
		<path d="M131.185 101.907h29.942v4.937h-29.942z"/>
	</g>
</svg>