<?xml version="1.0" encoding="UTF-8" standalone="no"?><!DOCTYPE svg PUBLIC "-//W3C//DTD SVG 1.1//EN" "http://www.w3.org/Graphics/SVG/1.1/DTD/svg11.dtd"><svg width="100%" height="100%" viewBox="0 0 196 53" version="1.1" xmlns="http://www.w3.org/2000/svg" xmlns:xlink="http://www.w3.org/1999/xlink" xml:space="preserve" xmlns:serif="http://www.serif.com/" style="fill-rule:evenodd;clip-rule:evenodd;stroke-linejoin:round;stroke-miterlimit:2;"><g><path d="M92.5,2.1l4.1,-0l0,6.3l6.4,0l0,4.1l-6.4,0l0,6.4l-4.1,0l0,-6.4l-6.5,0l0,-4.1l6.5,0l0,-6.3Z" style="fill-rule:nonzero;"/></g><g><path d="M0,30.9l17.2,-0l0,4.8l-11.3,-0l0,3.4l10.9,-0l0,4.8l-10.9,-0l0,3.6l11.3,-0l0,4.8l-17.2,-0l0,-21.4Z" style="fill-rule:nonzero;"/><path d="M22.9,47.5l13.1,0l0,-3.5l-5,0c-4,0 -4.7,-0.1 -6,-0.7c-1.8,-0.8 -2.9,-2.9 -2.9,-5.8c0,-2.6 1,-4.7 2.7,-5.7c1.2,-0.7 2.3,-0.9 5.1,-0.9l10.4,-0l0,4.8l-12.3,-0l-0,3.5l6.3,-0c2.6,-0 3.9,0.3 5.1,1c1.6,1 2.5,2.9 2.5,5.3c-0,2.5 -0.9,4.6 -2.5,5.6c-1.3,0.8 -2.6,1.1 -5.5,1.1l-11,-0l-0,-4.7Z" style="fill-rule:nonzero;"/><path d="M53.9,52.3c-4,0 -6.1,-0.8 -7.3,-2.7c-0.8,-1.3 -1,-2.7 -1,-7c0,-4.9 0.2,-7 0.9,-8.5c0.9,-2.1 3.3,-3.2 7.3,-3.2l9.3,-0l0,4.8l-11.5,-0l0,11.8l11.5,-0l0,4.8l-9.2,0Z" style="fill-rule:nonzero;"/><path d="M68.2,30.9l5.8,-0l-0,8.1l8.9,0l-0,-8.1l5.8,0l-0,21.4l-5.8,0l-0,-8.5l-8.9,0l-0,8.5l-5.8,0l-0,-21.4Z" style="fill-rule:nonzero;"/><path d="M94.1,30.9l17.2,-0l-0,4.8l-11.3,-0l-0,3.4l10.9,-0l-0,4.8l-10.9,-0l-0,3.6l11.3,-0l-0,4.8l-17.2,-0l-0,-21.4Z" style="fill-rule:nonzero;"/><path d="M116.5,30.9l12.8,-0c2.4,-0 3.9,0.3 5,1c1.3,0.8 2.1,2.5 2.1,4.5c0,2.6 -1.2,4.2 -3.5,4.8c1.1,0.3 1.6,0.6 2.1,1.3c0.9,1.2 1.1,2.1 1.1,5.3l0,4.6l-5.8,0l0,-8l-8.1,0l0,8l-5.8,0l0.1,-21.5Zm14,8.9l0,-4.3l-8.1,0l0,4.3l8.1,0Z" style="fill-rule:nonzero;"/><rect x="141.7" y="30.9" width="5.8" height="21.4" style="fill-rule:nonzero;"/><path d="M161.2,52.3c-4,0 -6.1,-0.8 -7.3,-2.7c-0.8,-1.3 -1,-2.7 -1,-7c-0,-4.9 0.2,-7 0.9,-8.5c0.9,-2.1 3.3,-3.2 7.3,-3.2l9.3,-0l-0,4.8l-11.5,-0l-0,11.8l11.5,-0l-0,4.8l-9.2,0Z" style="fill-rule:nonzero;"/><path d="M175.5,30.9l5.8,-0l0,8.1l8.9,0l0,-8.1l5.8,0l0,21.4l-5.7,0l0,-8.5l-8.9,0l0,8.5l-5.8,0l-0,-21.4l-0.1,0Z" style="fill-rule:nonzero;"/></g><g><path d="M13.3,0l-7.5,8.9l-0,-8.9l-5.8,0l-0,21.4l5.8,-0l-0,-9.6l7.8,9.6l7,-0l-9.1,-11.2l8.6,-10.2l-6.8,0Z" style="fill-rule:nonzero;"/><rect x="24.9" y="0" width="5.8" height="21.4"/><path d="M36.4,16.6l13.1,0l0,-3.5l-5,-0c-4,-0 -4.7,-0.1 -6,-0.7c-1.8,-0.8 -2.9,-2.9 -2.9,-5.8c0,-2.6 1,-4.7 2.7,-5.7c1.2,-0.7 2.3,-0.9 5.1,-0.9l10.4,-0l0,4.8l-12.3,-0l0,3.5l6.3,-0c2.6,-0 3.9,0.3 5.1,1c1.6,1 2.5,2.9 2.5,5.3c0,2.5 -0.9,4.6 -2.5,5.6c-1.3,0.9 -2.6,1.2 -5.5,1.2l-11,-0l0,-4.8Z" style="fill-rule:nonzero;"/><path d="M57.2,0l-0,4.8l6.9,-0l-0,16.6l5.9,-0l-0,-16.6l7.1,-0l-0,-4.8l-19.9,-0Z" style="fill-rule:nonzero;"/></g></svg>