<svg viewBox="0 0 76 81" width="48" height="51" xmlns="http://www.w3.org/2000/svg" fill-rule="evenodd" clip-rule="evenodd" stroke-linejoin="round" stroke-miterlimit="1.41421">
	<path d="M28.402 73.279h-7.571c-4.427 0-8.351-2.85-9.719-7.061C8.245 57.394 3.368 42.384.501 33.561c-1.368-4.211.13-8.824 3.712-11.426 7.506-5.453 20.275-14.73 27.78-20.183 3.582-2.603 8.432-2.603 12.014 0 7.505 5.453 20.274 14.73 27.78 20.183 3.582 2.602 5.08 7.215 3.712 11.426-2.867 8.823-7.744 23.833-10.611 32.657-1.368 4.211-5.292 7.061-9.719 7.061h-7.571L38 81l-9.598-7.721z" fill="#00beee"/>
	<g fill="#fff" fill-rule="nonzero">
		<path d="M47.688 34.175c-4.023 1.186-6.333 5.426-5.146 9.451 1.186 4.024 5.426 6.333 9.45 5.147 4.025-1.187 6.333-5.426 5.147-9.45-1.187-4.025-5.426-6.334-9.451-5.148m4.749 16.107c-4.857 1.431-9.973-1.355-11.404-6.211-1.432-4.857 1.354-9.972 6.211-11.404 4.855-1.431 9.972 1.355 11.404 6.211 1.431 4.856-1.356 9.972-6.211 11.404M28.524 39.825c-4.024 1.186-6.333 5.426-5.147 9.451 1.186 4.024 5.426 6.333 9.451 5.147 4.024-1.187 6.333-5.427 5.147-9.451-1.187-4.024-5.426-6.333-9.451-5.147m4.748 16.106c-4.856 1.432-9.972-1.354-11.404-6.211-1.431-4.856 1.355-9.972 6.212-11.403 4.856-1.432 9.972 1.354 11.403 6.211 1.432 4.856-1.354 9.972-6.211 11.403"/>
		<path d="M42.18 43.79l-1.121.331c-1.646-5.585-7.776-9.008-13.36-7.361 6.464-1.906 12.962.452 14.868 6.917l-.387.113z"/>
		<path d="M40.787 27.533l-.248 1.143c-5.69-1.236-11.635 2.499-12.87 8.189 1.43-6.586 6.617-11.155 13.203-9.725l-.085.393zM47.786 26.558l-.928.709c-3.535-4.626-10.483-5.631-15.109-2.096 5.355-4.092 12.266-4.214 16.358 1.142l-.321.245z"/>
		<path d="M36.711 30.592l1.157-.164c.819 5.764 6.387 10.04 12.152 9.221-6.673.949-12.76-2.327-13.708-9l.399-.057z"/>
		<path d="M40.62 29.439l1.157-.164c.819 5.765 6.387 10.041 12.151 9.222-6.672.948-12.759-2.328-13.707-9.001l.399-.057z"/>
	</g>
</svg>