<svg viewBox="0 0 41 47" width="41" height="47" xmlns="http://www.w3.org/2000/svg" fill-rule="evenodd" clip-rule="evenodd" stroke-linejoin="round" stroke-miterlimit="1.41421"><path fill="#d6d6d6" d="M0 0h41v41H0z"/><path d="M20.5 46.429L30.143 40H10.857l9.643 6.429z" fill="#d6d6d6"/><g fill-rule="nonzero"><path d="M17.665 17.194c0-.203-.086-.335-.258-.398-.172-.063-.387-.095-.644-.095h-.049v-.705h3.675v.705h-.147c-.165 0-.314.014-.448.041-.134.028-.265.08-.393.156-.129.077-.262.186-.398.329-.137.142-.29.325-.46.549l-1.731 2.306 2.47 3.322c.246.328.48.56.701.694.222.134.436.201.644.201h.222v.705h-4.34v-.705h.082c.672 0 1.009-.186 1.009-.558 0-.061-.008-.122-.025-.185-.016-.063-.049-.137-.098-.221-.049-.085-.115-.188-.197-.308s-.189-.268-.32-.443l-1.124-1.51-1.173 1.641c-.049.066-.101.142-.156.23-.055.087-.104.178-.148.271-.044.093-.079.187-.106.283-.028.095-.041.187-.041.274 0 .192.079.327.237.407.159.079.427.119.804.119h.05v.705h-4.004v-.705h.156c.202 0 .38-.017.533-.05.153-.033.298-.09.435-.172.137-.082.273-.193.41-.332.137-.14.287-.313.451-.521l2.117-2.74-2.117-2.888c-.246-.29-.485-.512-.717-.665-.233-.153-.475-.23-.726-.23h-.222v-.705h4.266v.705h-.049c-.191 0-.35.013-.476.037-.126.025-.224.061-.295.107-.071.047-.121.1-.148.16-.027.06-.041.123-.041.189 0 .115.034.228.103.34.068.112.165.256.291.431l1.107 1.509.87-1.255c.126-.191.227-.372.304-.541.076-.17.114-.331.114-.484zM29.701 20.484c0 1.58-.335 2.756-1.005 3.527-.67.772-1.65 1.157-2.941 1.157-.607 0-1.152-.096-1.633-.287-.481-.191-.89-.481-1.226-.87-.337-.388-.594-.876-.772-1.464-.177-.588-.266-1.276-.266-2.063 0-1.57.332-2.738.997-3.504.664-.765 1.647-1.148 2.949-1.148.607 0 1.151.094 1.633.283.481.189.89.476 1.226.861.337.386.594.87.771 1.452.178.583.267 1.268.267 2.056zm-6.219 0c0 .623.041 1.173.123 1.649.082.475.215.873.398 1.193.183.32.421.562.714.726.293.164.649.247 1.071.247.421 0 .776-.083 1.066-.247.29-.164.525-.406.706-.726.18-.32.31-.718.389-1.193.08-.476.119-1.026.119-1.649 0-.624-.041-1.171-.123-1.641-.082-.471-.213-.863-.394-1.178-.18-.314-.417-.551-.709-.709-.293-.159-.65-.238-1.071-.238-.421 0-.776.079-1.066.238-.29.158-.525.395-.706.709-.18.315-.312.707-.394 1.178-.082.47-.123 1.017-.123 1.641z"/></g></svg>