<svg viewBox="0 0 80 127" xmlns="http://www.w3.org/2000/svg" fill-rule="evenodd" clip-rule="evenodd" stroke-linejoin="round" stroke-miterlimit="2"><path d="M1522.92,1689.16C1523.57,1687.97 1524.54,1687.28 1525.57,1687.28C1526.59,1687.28 1527.56,1687.97 1528.21,1689.16L1593.91,1809.61C1594.75,1811.15 1594.93,1813.28 1594.36,1815.08C1593.8,1816.87 1592.59,1818.02 1591.27,1818.02L1459.86,1818.02C1458.54,1818.02 1457.34,1816.87 1456.77,1815.08C1456.2,1813.28 1456.38,1811.15 1457.22,1809.61L1522.92,1689.16ZM1467.1,1807.73L1525.57,1700.54L1584.03,1807.73L1467.1,1807.73Z" fill="#fff" transform="matrix(1,0,0,1,-1481.01,-1678.39) matrix(3.78109,0,0,7.20208,-4446.57,-3922.33) matrix(-1.84848e-17,-0.126799,-0.160589,2.43133e-17,1859.64,979.857)"/></svg>