<svg viewBox="0 0 12 24" xmlns="http://www.w3.org/2000/svg" xml:space="preserve" fill-rule="evenodd" clip-rule="evenodd" stroke-linejoin="round" stroke-miterlimit="2"><path d="M1654.72,633.013C1655.72,633.013 1656.61,633.151 1657.39,633.429C1658.17,633.706 1658.82,634.085 1659.36,634.565C1659.89,635.045 1660.3,635.621 1660.57,636.293C1660.85,636.965 1660.99,637.685 1660.99,638.453C1660.99,639.583 1660.71,640.586 1660.16,641.461C1659.6,642.335 1658.86,643.242 1657.92,644.181C1657.45,644.629 1657.05,645.013 1656.73,645.333C1656.41,645.653 1656.15,645.935 1655.95,646.181C1655.75,646.426 1655.6,646.666 1655.5,646.901C1655.4,647.135 1655.36,647.402 1655.36,647.701C1655.36,648.106 1655.42,648.479 1655.55,648.821L1652.09,649.301C1652.01,649.066 1651.93,648.783 1651.87,648.453C1651.8,648.122 1651.77,647.786 1651.77,647.445C1651.77,646.997 1651.83,646.586 1651.93,646.213C1652.04,645.839 1652.2,645.477 1652.41,645.125C1652.63,644.773 1652.88,644.426 1653.16,644.085C1653.45,643.743 1653.79,643.37 1654.17,642.965C1655,642.111 1655.63,641.386 1656.04,640.789C1656.46,640.191 1656.67,639.487 1656.67,638.677C1656.67,638.058 1656.45,637.525 1656.03,637.077C1655.6,636.629 1654.97,636.405 1654.14,636.405C1653.61,636.405 1653.12,636.479 1652.67,636.629C1652.22,636.778 1651.74,637.034 1651.23,637.397L1649.69,634.517C1650.35,634.047 1651.11,633.679 1651.96,633.413C1652.82,633.146 1653.74,633.013 1654.72,633.013ZM1651.71,653.749C1651.71,653.066 1651.95,652.49 1652.43,652.021C1652.91,651.551 1653.48,651.317 1654.14,651.317C1654.78,651.317 1655.34,651.551 1655.82,652.021C1656.3,652.49 1656.54,653.066 1656.54,653.749C1656.54,654.495 1656.3,655.098 1655.82,655.557C1655.34,656.015 1654.78,656.245 1654.14,656.245C1653.48,656.245 1652.91,656.015 1652.43,655.557C1651.95,655.098 1651.71,654.495 1651.71,653.749Z" fill="#f9f9f9" fill-rule="nonzero" transform="matrix(1,0,0,1,-1646.98,-632.382) matrix(1,0,0,1.36164,-3.53495e-13,-1.98338e-13) matrix(1,0,0,0.734411,-2.71343,-0.463032)"/></svg>