<svg viewBox="0 0 29 28" xmlns="http://www.w3.org/2000/svg" fill-rule="evenodd" clip-rule="evenodd" stroke-linejoin="round" stroke-miterlimit="1.41421">
	<path d="M1.85 10.181c.148.508.354.998.614 1.457l-.741.934c-.242.306-.215.741.057 1.016l1.276 1.276c.275.275.711.299 1.016.057L5 14.187c.477.275.985.489 1.514.64l.139 1.194c.046.387.372.678.759.678h1.805c.387 0 .713-.291.759-.678l.133-1.151c.568-.148 1.112-.369 1.623-.656l.898.71c.305.242.74.215 1.015-.057l1.276-1.276c.275-.275.299-.71.058-1.016l-.699-.885c.29-.502.517-1.037.668-1.596l1.076-.124c.387-.046.678-.372.678-.759V7.406c0-.387-.291-.713-.678-.759l-1.061-.124c-.145-.553-.362-1.082-.64-1.578l.653-.825c.241-.305.214-.74-.058-1.015l-1.273-1.273c-.275-.275-.71-.299-1.015-.058l-.801.635c-.52-.305-1.077-.538-1.66-.695L10.048.677C10.003.29 9.676 0 9.289 0H7.485c-.387 0-.714.29-.759.677l-.121 1.037c-.598.16-1.17.402-1.702.719l-.831-.659c-.305-.241-.741-.214-1.016.058L1.78 3.108c-.275.275-.299.71-.057 1.015l.695.88c-.278.502-.489 1.037-.628 1.593l-1.113.127C.29 6.768 0 7.095 0 7.482v1.804c0 .387.29.714.677.759l1.173.136zm6.539-4.882c1.644 0 2.983 1.339 2.983 2.984 0 1.644-1.339 2.983-2.983 2.983-1.645 0-2.984-1.339-2.984-2.983 0-1.645 1.339-2.984 2.984-2.984z" fill-rule="nonzero"/>
	<path d="M26.23 10.626l-.952-.805c-.294-.247-.726-.235-1.004.028l-.526.492c-.444-.214-.916-.365-1.403-.453l-.148-.726c-.075-.374-.423-.634-.804-.604l-1.242.106c-.381.033-.68.344-.693.728l-.024.738c-.477.172-.928.408-1.339.704l-.629-.417c-.32-.212-.746-.151-.994.142l-.804.958c-.248.294-.236.726.027 1.004l.55.586c-.19.43-.326.88-.405 1.343l-.786.16c-.375.075-.635.423-.604.804l.105 1.242c.034.381.345.68.729.693l.849.027c.155.405.357.789.602 1.148l-.475.717c-.211.32-.151.747.142.994l.953.805c.293.247.725.235 1.003-.028l.623-.583c.408.19.837.332 1.279.417l.172.852c.075.375.423.635.804.605l1.242-.106c.381-.033.681-.344.693-.728l.027-.835c.453-.16.883-.377 1.279-.646l.686.453c.32.212.746.151.994-.142l.804-.952c.248-.294.236-.726-.027-1.004l-.553-.586c.203-.43.351-.883.435-1.349l.756-.154c.375-.075.635-.423.605-.804l-.106-1.242c-.033-.381-.345-.68-.729-.693l-.758-.024c-.158-.441-.369-.858-.632-1.245l.414-.623c.218-.32.157-.75-.136-.997zm-4.683 7.182c-1.342.115-2.527-.886-2.639-2.228-.115-1.342.886-2.527 2.228-2.639 1.342-.115 2.527.886 2.639 2.228.115 1.342-.886 2.527-2.228 2.639zM6.197 21.151c-.381.04-.674.36-.677.744l-.009.765c-.006.384.278.71.659.759l.562.072c.094.342.227.668.399.977l-.363.447c-.242.299-.223.728.046 1.004l.535.547c.269.275.698.305 1.003.069l.451-.347c.317.187.653.335 1.003.438l.061.58c.039.381.359.674.743.677l.765.01c.384.006.711-.279.759-.659l.069-.551c.381-.093.744-.235 1.089-.423l.423.342c.299.242.728.223 1.004-.046l.547-.535c.275-.269.305-.698.069-1.003l-.323-.42c.199-.333.353-.687.459-1.059l.502-.051c.381-.039.674-.36.677-.744l.009-.764c.006-.384-.278-.711-.659-.759l-.489-.064c-.094-.368-.233-.725-.415-1.058l.306-.374c.242-.3.223-.729-.046-1.004l-.535-.547c-.269-.275-.698-.306-1.003-.07l-.366.281c-.345-.208-.713-.368-1.1-.477l-.049-.475c-.039-.381-.359-.674-.743-.677l-.765-.009c-.384-.006-.711.278-.759.659l-.06.472c-.399.102-.783.26-1.14.465l-.378-.308c-.299-.242-.728-.224-1.004.045l-.55.538c-.275.269-.305.698-.069 1.004l.323.417c-.187.332-.335.686-.432 1.058l-.529.054zm4.936-.864c1.098.012 1.977.916 1.965 2.013-.012 1.097-.916 1.977-2.013 1.965-1.097-.012-1.977-.916-1.965-2.013.012-1.098.916-1.977 2.013-1.965z" fill-rule="nonzero"/>
</svg>