<?xml version="1.0" encoding="UTF-8" standalone="no"?>
<!DOCTYPE svg PUBLIC "-//W3C//DTD SVG 1.1//EN" "http://www.w3.org/Graphics/SVG/1.1/DTD/svg11.dtd">
<svg width="100%" height="100%" viewBox="0 0 59 59" version="1.1" xmlns="http://www.w3.org/2000/svg" xmlns:xlink="http://www.w3.org/1999/xlink" xml:space="preserve" xmlns:serif="http://www.serif.com/" style="fill-rule:evenodd;clip-rule:evenodd;stroke-linejoin:round;stroke-miterlimit:2;" fill="#fff">
    <g transform="matrix(1,0,0,1,-635.222,-1619.15)">
        <g transform="matrix(3.78109,0,0,7.20208,-4446.57,-3922.33)">
            <g transform="matrix(0.0304119,0,0,0.0159663,1344,769.428)">
                <path id="up" d="M492,0L344.212,0C333.166,0 324.212,8.954 324.212,20C324.212,31.046 333.166,40 344.212,40L443.715,40L283.394,200.322C275.583,208.133 275.583,220.796 283.394,228.606C291.204,236.416 303.867,236.417 311.678,228.606L472,68.284L472,167.787C472,178.833 480.954,187.787 492,187.787C503.046,187.787 512,178.833 512,167.787L512,20C512,9.115 503.154,0 492,0Z" style="fill-rule:nonzero;"/>
            </g>
        </g>
    </g>
</svg>
