<svg viewBox="0 0 16 14" xmlns="http://www.w3.org/2000/svg" fill-rule="evenodd" clip-rule="evenodd" stroke-linejoin="round" stroke-miterlimit="2"><rect id="ArtBoard1" x="0" y="0" width="16" height="13.622" fill="none"/><path d="M14.691,10.846l-5.634,-9.344c-0.222,-0.369 -0.627,-0.597 -1.057,-0.597c-0.43,-0 -0.835,0.228 -1.057,0.597l-5.634,9.344c-0.23,0.381 -0.237,0.857 -0.018,1.244c0.218,0.387 0.63,0.627 1.074,0.627l11.27,0c0.444,0 0.856,-0.24 1.074,-0.627c0.219,-0.387 0.212,-0.864 -0.018,-1.244Z" fill="#ffde33" fill-rule="nonzero"/><clipPath id="_clip1"><path d="M14.691,10.846l-5.634,-9.344c-0.222,-0.369 -0.627,-0.597 -1.057,-0.597c-0.43,-0 -0.835,0.228 -1.057,0.597l-5.634,9.344c-0.23,0.381 -0.237,0.857 -0.018,1.244c0.218,0.387 0.63,0.627 1.074,0.627l11.27,0c0.444,0 0.856,-0.24 1.074,-0.627c0.219,-0.387 0.212,-0.864 -0.018,-1.244Z" clip-rule="nonzero"/></clipPath><g clip-path="url(#_clip1)"><rect x="8" y=".408" width="6.653" height="13.11" fill="#ffbc33"/></g><path d="M14.691,10.846l-5.634,-9.344c-0.222,-0.369 -0.627,-0.597 -1.057,-0.597c-0.43,-0 -0.835,0.228 -1.057,0.597l-5.634,9.344c-0.23,0.381 -0.237,0.857 -0.018,1.244c0.218,0.387 0.63,0.627 1.074,0.627l11.27,0c0.444,0 0.856,-0.24 1.074,-0.627c0.219,-0.387 0.212,-0.864 -0.018,-1.244Z" fill="none" stroke="#616161" stroke-width=".78"/><path d="M8.004,4.584c-0.34,0 -0.606,0.183 -0.606,0.507c0,0.987 0.117,2.406 0.117,3.393c-0,0.257 0.224,0.365 0.489,0.365c0.199,0 0.481,-0.108 0.481,-0.365c0,-0.987 0.117,-2.406 0.117,-3.393c-0,-0.324 -0.274,-0.507 -0.598,-0.507Z" fill="#454545" fill-rule="nonzero"/><path d="M8.012,9.422c-0.365,-0 -0.638,0.29 -0.638,0.639c-0,0.34 0.273,0.639 0.638,0.639c0.341,-0 0.631,-0.299 0.631,-0.639c0,-0.349 -0.29,-0.639 -0.631,-0.639Z" fill="#454545" fill-rule="nonzero"/></svg>