<?xml version="1.0" standalone="no"?>
<!DOCTYPE svg PUBLIC "-//W3C//DTD SVG 20010904//EN"
 "http://www.w3.org/TR/2001/REC-SVG-20010904/DTD/svg10.dtd">
<svg version="1.0" xmlns="http://www.w3.org/2000/svg"
 width="700.000000pt" height="700.000000pt" viewBox="0 0 700.000000 700.000000"
 preserveAspectRatio="xMidYMid meet">
<metadata>
Created by potrace 1.14, written by Peter Selinger 2001-2017
</metadata>
<g transform="translate(0.000000,700.000000) scale(0.100000,-0.100000)"
fill="#000000" stroke="none">
<path d="M2968 6545 c-2 -1 -43 -5 -93 -8 -118 -8 -191 -22 -299 -58 -205 -69
-371 -180 -485 -324 -61 -77 -101 -144 -131 -222 -15 -38 -31 -63 -40 -64 -49
-2 -207 -43 -275 -71 -205 -83 -372 -212 -473 -363 -130 -196 -159 -385 -97
-635 8 -35 57 -134 92 -186 l37 -56 -24 -20 c-14 -11 -51 -45 -84 -76 -382
-370 -313 -929 152 -1230 l89 -57 -17 -40 c-52 -123 -66 -298 -36 -429 56
-241 248 -460 516 -588 41 -20 94 -42 117 -48 23 -7 51 -21 61 -31 44 -40 163
-115 247 -154 101 -48 210 -81 330 -100 167 -28 475 -9 675 41 62 15 73 16 67
8 -3 -5 -8 -45 -11 -89 -4 -44 -8 -96 -11 -115 -2 -19 -7 -66 -10 -105 -3 -38
-8 -88 -10 -110 -2 -22 -7 -71 -10 -110 -3 -38 -8 -81 -10 -95 -2 -14 -6 -59
-10 -100 -3 -41 -7 -83 -9 -93 -8 -58 -315 -308 -396 -323 -25 -4 -47 -8 -50
-9 -3 -1 -25 -5 -50 -9 -25 -5 -48 -10 -51 -12 -4 -2 1 -34 10 -71 l17 -68
670 0 c368 0 735 1 817 3 l147 3 0 78 c0 55 -4 78 -12 79 -7 0 -44 8 -83 17
-38 9 -81 18 -95 21 -90 16 -118 27 -161 67 -26 23 -80 72 -121 109 -71 64
-75 70 -75 110 1 24 -3 122 -7 218 -4 96 -9 234 -12 305 -2 72 -6 169 -8 218
-2 48 -1 87 3 87 3 0 50 -11 103 -24 52 -14 124 -28 159 -33 96 -12 368 -9
419 4 25 7 61 15 80 18 56 10 179 55 255 93 106 53 182 108 266 191 92 92 149
179 191 288 17 45 34 81 37 81 14 -4 112 16 187 38 355 102 628 376 684 684
34 189 -6 373 -120 545 l-47 71 23 49 c20 45 31 70 40 100 16 50 30 156 28
221 -5 192 -92 384 -243 532 -59 59 -154 132 -171 132 -5 0 -10 4 -10 9 0 10
-191 100 -231 108 -29 6 -37 21 -20 38 20 21 74 139 93 203 27 90 32 244 12
340 -75 358 -442 656 -874 709 -110 14 -382 5 -411 -12 -3 -2 -19 -7 -36 -9
-52 -10 -165 -47 -230 -76 l-63 -29 -21 27 c-175 224 -451 367 -767 397 -37 4
-79 8 -94 10 -15 1 -29 1 -30 0z"/>
</g>
</svg>
