<?xml version="1.0" standalone="no"?>
<!DOCTYPE svg PUBLIC "-//W3C//DTD SVG 20010904//EN"
 "http://www.w3.org/TR/2001/REC-SVG-20010904/DTD/svg10.dtd">
<svg version="1.0" xmlns="http://www.w3.org/2000/svg"
 width="700.000000pt" height="700.000000pt" viewBox="0 0 700.000000 700.000000"
 preserveAspectRatio="xMidYMid meet">
<metadata>
Created by potrace 1.11, written by Peter Selinger 2001-2013
</metadata>
<g transform="translate(0.000000,700.000000) scale(0.100000,-0.100000)"
fill="#000000" stroke="none">
<path d="M3300 5670 c-206 -26 -410 -88 -605 -185 -148 -73 -208 -112 -94 -61
100 45 244 90 354 112 126 25 413 25 545 0 350 -67 676 -254 886 -509 l40 -48
80 61 c43 34 80 67 82 74 5 21 -192 220 -287 291 -159 119 -352 204 -552 245
-115 24 -338 33 -449 20z"/>
<path d="M3055 5015 c-457 -73 -851 -378 -1089 -840 -42 -81 -126 -282 -126
-301 0 -4 26 44 58 107 75 152 155 262 277 384 210 210 470 353 754 415 192
42 359 46 587 14 l40 -6 18 83 c10 46 20 93 22 105 5 18 -2 22 -58 33 -98 19
-377 23 -483 6z"/>
<path d="M3597 4685 c-43 -7 -80 -15 -82 -17 -3 -2 5 -47 15 -100 48 -234 155
-456 306 -634 30 -35 54 -66 54 -69 0 -3 -22 -32 -48 -65 -27 -32 -65 -89 -86
-124 l-38 -66 -39 31 c-21 16 -66 60 -100 97 -189 205 -316 442 -370 692 -13
58 -24 106 -25 108 -3 5 -192 -20 -203 -28 -7 -3 -3 -38 9 -95 80 -382 293
-699 599 -895 l68 -43 -28 -86 c-15 -47 -30 -107 -34 -133 l-7 -46 -98 102
c-54 56 -134 127 -178 159 -291 209 -688 312 -1075 278 -224 -20 -239 -27 -57
-28 172 -1 291 -18 431 -61 342 -107 634 -323 830 -615 76 -114 128 -222 177
-372 52 -156 90 -238 155 -339 191 -292 475 -486 820 -557 121 -25 319 -29
442 -10 491 78 901 452 1026 938 58 224 50 485 -21 704 -104 316 -342 592
-637 739 -304 150 -651 175 -968 69 -108 -36 -258 -113 -340 -174 -33 -25 -62
-45 -65 -45 -11 0 -128 185 -170 269 -49 99 -102 256 -121 359 -15 83 -7 80
-142 57z m1498 -650 c186 -49 331 -131 472 -268 517 -501 383 -1363 -262
-1682 -530 -264 -1161 -46 -1415 488 -107 223 -130 514 -59 744 17 53 23 63
37 58 194 -79 459 -126 694 -124 l123 2 -106 8 c-129 9 -243 31 -364 71 -105
34 -315 135 -315 150 0 24 142 238 157 238 4 0 42 -23 86 -51 263 -169 602
-261 942 -258 l130 2 -100 7 c-317 23 -615 145 -869 356 l-69 57 29 24 c118
97 315 176 519 207 78 12 272 -3 370 -29z"/>
<path d="M1978 3713 c7 -3 16 -2 19 1 4 3 -2 6 -13 5 -11 0 -14 -3 -6 -6z"/>
<path d="M2064 3500 c-494 -52 -910 -388 -1069 -862 -88 -265 -85 -564 10
-828 151 -419 530 -738 969 -815 114 -19 328 -19 442 0 334 59 639 259 829
544 82 124 137 248 178 401 28 106 30 128 31 290 1 136 -3 194 -18 260 -121
554 -558 948 -1118 1009 -106 12 -147 12 -254 1z m388 -244 c321 -82 596 -323
716 -626 59 -150 67 -199 66 -395 0 -166 -3 -187 -28 -270 -100 -333 -331
-587 -638 -702 -136 -51 -216 -66 -368 -67 -138 0 -204 9 -320 46 -376 119
-658 445 -720 831 -18 108 -8 330 19 428 47 174 127 320 245 445 131 141 270
232 438 288 186 63 402 71 590 22z"/>
</g>
</svg>
