<?xml version="1.0" standalone="no"?>
<!DOCTYPE svg PUBLIC "-//W3C//DTD SVG 20010904//EN"
 "http://www.w3.org/TR/2001/REC-SVG-20010904/DTD/svg10.dtd">
<svg version="1.0" xmlns="http://www.w3.org/2000/svg"
 width="700.000000pt" height="700.000000pt" viewBox="0 0 700.000000 700.000000"
 preserveAspectRatio="xMidYMid meet">
<metadata>
Created by potrace 1.11, written by Peter Selinger 2001-2013
</metadata>
<g transform="translate(0.000000,700.000000) scale(0.100000,-0.100000)"
fill="#000000" stroke="none">
<path d="M3391 6390 c-451 -44 -817 -196 -1083 -448 -241 -230 -417 -534 -647
-1118 -38 -98 -109 -277 -155 -396 -214 -543 -300 -717 -694 -1403 -107 -187
-232 -412 -278 -500 -367 -706 -375 -1078 -30 -1420 120 -119 228 -193 408
-280 425 -204 946 -273 1383 -184 277 57 523 161 1092 463 617 326 890 408
1704 511 461 57 650 88 823 131 389 98 601 242 722 490 171 349 145 883 -75
1544 -218 653 -547 1241 -938 1675 -484 536 -1022 830 -1683 920 -134 19 -428
26 -549 15z m774 -2091 c43 -6 106 -19 141 -30 l64 -20 -15 -29 c-9 -17 -19
-30 -24 -30 -4 0 -34 9 -67 21 -83 30 -241 37 -317 15 -162 -47 -222 -240
-110 -353 40 -39 103 -70 258 -128 227 -84 298 -157 299 -305 1 -95 -20 -152
-77 -207 -89 -87 -211 -121 -391 -108 -56 4 -130 15 -166 24 -64 16 -65 17
-68 52 l-3 37 68 -20 c101 -29 291 -36 368 -14 84 25 138 65 169 128 42 85 32
172 -28 236 -37 41 -109 78 -248 130 -134 51 -180 75 -230 120 -56 50 -80 108
-80 193 -1 119 55 204 170 256 87 41 166 49 287 32z m-924 -23 c159 -34 236
-109 259 -252 11 -70 -2 -169 -30 -223 -19 -37 -77 -96 -120 -123 -66 -40
-123 -51 -292 -55 l-168 -5 0 -239 0 -239 -35 0 -35 0 0 575 0 575 178 0 c113
0 201 -5 243 -14z"/>
<path d="M2898 4225 c-5 -5 -8 -130 -8 -278 l0 -270 158 5 c130 4 167 9 215
27 116 45 161 113 161 246 0 135 -56 214 -176 250 -54 16 -339 32 -350 20z"/>
</g>
</svg>
