<?xml version="1.0" standalone="no"?>
<!DOCTYPE svg PUBLIC "-//W3C//DTD SVG 20010904//EN"
 "http://www.w3.org/TR/2001/REC-SVG-20010904/DTD/svg10.dtd">
<svg version="1.0" xmlns="http://www.w3.org/2000/svg"
 width="700.000000pt" height="700.000000pt" viewBox="0 0 700.000000 700.000000"
 preserveAspectRatio="xMidYMid meet">
<metadata>
Created by potrace 1.11, written by Peter Selinger 2001-2013
</metadata>
<g transform="translate(0.000000,700.000000) scale(0.100000,-0.100000)"
fill="#000000" stroke="none">
<path d="M0 3635 l0 -1645 3500 0 3500 0 0 1645 0 1645 -3500 0 -3500 0 0
-1645z m6890 0 l0 -1535 -3390 0 -3390 0 0 1535 0 1535 3390 0 3390 0 0 -1535z"/>
<path d="M973 4508 c2 -7 131 -208 286 -447 155 -239 283 -437 284 -441 1 -3
-134 -221 -301 -482 -166 -262 -305 -484 -308 -493 -6 -14 6 -15 107 -13 l114
3 255 411 c140 227 258 409 262 405 4 -3 111 -177 239 -386 127 -209 240 -392
251 -407 19 -28 20 -28 139 -28 65 0 119 2 119 4 0 2 -138 221 -306 487 -169
266 -309 489 -311 496 -3 7 121 206 276 442 154 235 284 436 287 445 6 15 -5
16 -107 14 l-114 -3 -193 -305 c-106 -168 -212 -335 -236 -373 l-42 -67 -214
342 c-117 189 -224 358 -237 376 l-24 32 -116 0 c-88 0 -114 -3 -110 -12z"/>
<path d="M2697 4513 c-4 -3 -7 -429 -7 -945 l0 -938 101 0 101 0 -5 768 c-2
422 -7 777 -12 790 -4 12 -3 22 2 22 4 0 240 -355 523 -790 l514 -790 123 0
123 0 0 945 0 945 -101 0 -101 0 3 -789 4 -788 -60 91 c-34 50 -265 405 -515
789 l-454 697 -116 0 c-64 0 -120 -3 -123 -7z"/>
<path d="M5157 4508 c-3 -7 -168 -427 -367 -933 -199 -506 -365 -926 -367
-933 -4 -10 19 -12 106 -10 l112 3 78 200 c43 110 95 244 115 298 l38 97 378
0 378 0 15 -37 c8 -21 61 -156 117 -300 l103 -263 110 0 c108 0 109 0 105 23
-4 16 -607 1560 -713 1825 l-17 42 -93 0 c-65 0 -94 -4 -98 -12z m301 -813
l99 -260 -148 -3 c-81 -1 -217 -1 -303 0 l-154 3 114 300 c95 250 183 504 184
533 0 4 25 -65 55 -153 30 -88 99 -277 153 -420z"/>
</g>
</svg>
