<?xml version="1.0" standalone="no"?>
<!DOCTYPE svg PUBLIC "-//W3C//DTD SVG 20010904//EN"
 "http://www.w3.org/TR/2001/REC-SVG-20010904/DTD/svg10.dtd">
<svg version="1.0" xmlns="http://www.w3.org/2000/svg"
 width="700.000000pt" height="700.000000pt" viewBox="0 0 700.000000 700.000000"
 preserveAspectRatio="xMidYMid meet">
<metadata>
Created by potrace 1.11, written by Peter Selinger 2001-2013
</metadata>
<g transform="translate(0.000000,700.000000) scale(0.100000,-0.100000)"
fill="#000000" stroke="none">
<path d="M3447 5719 c-14 -8 -182 -205 -418 -490 -20 -24 -98 -118 -174 -209
-75 -91 -153 -185 -173 -209 -21 -25 -42 -49 -47 -55 -6 -6 -40 -47 -75 -91
-36 -44 -72 -87 -80 -95 -39 -39 -102 -123 -114 -151 -22 -52 2 -111 54 -131
14 -5 116 -9 227 -10 112 0 203 -3 203 -7 0 -5 -208 -260 -304 -371 -12 -14
-122 -146 -246 -295 -123 -148 -226 -272 -229 -275 -3 -3 -24 -27 -46 -55 -21
-27 -42 -52 -45 -55 -21 -18 -40 -59 -40 -88 0 -25 9 -43 34 -68 l34 -34 322
0 322 0 -38 -47 c-21 -27 -49 -59 -60 -73 -12 -14 -61 -72 -109 -130 -48 -58
-104 -125 -125 -150 -21 -25 -55 -65 -75 -90 -21 -25 -54 -65 -75 -90 -455
-542 -458 -546 -426 -609 32 -60 13 -59 676 -59 l605 0 1 -218 c0 -121 3 -231
7 -245 13 -51 24 -52 467 -52 434 0 447 1 467 47 5 11 9 121 9 244 l-1 222 35
1 c19 0 294 0 610 1 630 0 604 -2 636 61 10 18 13 41 10 61 -5 26 -111 162
-269 346 -12 14 -53 63 -92 110 -38 47 -72 87 -75 90 -3 3 -104 124 -225 270
-121 146 -228 274 -238 285 -18 20 -17 20 305 25 346 5 354 7 377 57 26 58 16
82 -82 198 -85 100 -86 102 -189 226 -51 63 -97 119 -103 125 -5 6 -28 32 -50
59 -42 51 -152 182 -188 225 -12 14 -51 62 -87 105 -36 44 -80 97 -99 117 -18
21 -41 48 -49 60 -9 13 -18 25 -21 28 -3 3 -14 15 -24 27 l-19 21 209 0 c245
0 266 5 291 73 21 54 31 41 -618 819 -20 25 -73 88 -116 140 -43 52 -83 100
-89 106 -5 6 -26 31 -46 55 -156 188 -202 240 -219 249 -24 13 -80 12 -103 -1z"/>
</g>
</svg>
