<?xml version="1.0" standalone="no"?>
<!DOCTYPE svg PUBLIC "-//W3C//DTD SVG 20010904//EN"
 "http://www.w3.org/TR/2001/REC-SVG-20010904/DTD/svg10.dtd">
<svg version="1.0" xmlns="http://www.w3.org/2000/svg"
 width="700.000000pt" height="700.000000pt" viewBox="0 0 700.000000 700.000000"
 preserveAspectRatio="xMidYMid meet">
<metadata>
Created by potrace 1.11, written by Peter Selinger 2001-2013
</metadata>
<g transform="translate(0.000000,700.000000) scale(0.100000,-0.100000)"
fill="#000000" stroke="none">
<path d="M5245 5650 c-530 -60 -909 -338 -1115 -818 -102 -237 -165 -501 -202
-842 -17 -166 -18 -804 0 -955 47 -400 115 -658 242 -920 233 -479 601 -732
1128 -775 212 -17 467 11 642 70 503 171 821 594 949 1260 49 252 71 513 71
829 0 832 -177 1419 -539 1782 -193 194 -408 304 -691 354 -113 19 -373 27
-485 15z m408 -429 c334 -86 537 -393 621 -936 71 -465 67 -1196 -10 -1638
-35 -207 -106 -416 -185 -550 -59 -101 -194 -233 -284 -279 -122 -62 -179 -73
-365 -73 -155 1 -170 2 -245 29 -117 40 -181 80 -266 165 -204 205 -307 506
-361 1056 -16 172 -17 838 0 1010 36 375 91 612 188 810 121 247 301 386 549
425 89 13 268 4 358 -19z"/>
<path d="M120 5421 l0 -158 86 -7 c154 -11 252 -61 384 -196 134 -136 146
-154 970 -1496 l37 -60 -434 -669 c-239 -368 -467 -712 -506 -765 -183 -244
-331 -329 -569 -330 l-88 0 0 -165 0 -165 780 0 780 0 0 164 0 163 -107 6
c-60 3 -132 13 -161 22 -64 20 -126 73 -143 123 -33 98 3 278 90 452 27 52
156 274 288 493 l241 397 273 -437 c151 -241 303 -495 338 -564 60 -118 64
-132 69 -208 4 -72 2 -86 -22 -135 -45 -91 -136 -135 -298 -144 l-98 -5 0
-163 0 -164 845 0 845 0 0 164 0 164 -92 4 c-81 3 -102 8 -163 38 -82 41 -190
139 -269 244 -72 97 -1040 1647 -1040 1666 0 21 710 1143 794 1255 160 215
265 285 453 305 51 5 102 10 115 10 22 0 22 1 22 160 l0 160 -715 0 -715 0 0
-159 0 -160 43 -5 c23 -3 66 -8 95 -11 77 -8 157 -41 186 -76 75 -89 51 -280
-65 -511 -53 -108 -382 -677 -391 -678 -10 0 -496 794 -538 881 -48 99 -57
159 -36 233 29 97 119 146 299 161 l87 7 0 159 0 159 -835 0 -835 0 0 -159z"/>
</g>
</svg>
