<?xml version="1.0" standalone="no"?>
<!DOCTYPE svg PUBLIC "-//W3C//DTD SVG 20010904//EN"
 "http://www.w3.org/TR/2001/REC-SVG-20010904/DTD/svg10.dtd">
<svg version="1.0" xmlns="http://www.w3.org/2000/svg"
 width="700.000000pt" height="700.000000pt" viewBox="0 0 700.000000 700.000000"
 preserveAspectRatio="xMidYMid meet">
<metadata>
Created by potrace 1.14, written by Peter Selinger 2001-2017
</metadata>
<g transform="translate(0.000000,700.000000) scale(0.100000,-0.100000)"
fill="#000000" stroke="none">
<path d="M0 3500 l0 -3500 3500 0 3500 0 0 3500 0 3500 -3500 0 -3500 0 0
-3500z m3700 1949 c325 -40 620 -164 804 -338 230 -219 339 -490 340 -846 0
-345 -90 -595 -295 -819 -117 -128 -328 -259 -514 -320 -245 -79 -394 -96
-851 -96 l-364 0 0 -745 0 -745 -335 0 -335 0 0 1960 0 1960 733 0 c452 0 765
-4 817 -11z"/>
<path d="M2820 4249 l0 -691 318 5 c333 5 426 14 568 58 154 48 263 125 343
244 73 109 93 180 99 347 5 166 -11 251 -69 367 -93 186 -313 315 -594 350
-49 6 -219 11 -377 11 l-288 0 0 -691z"/>
</g>
</svg>
